<svg xmlns="http://www.w3.org/2000/svg" version="1.1" xmlns:xlink="http://www.w3.org/1999/xlink" xmlns:svgjs="http://svgjs.com/svgjs" width="1440" height="560" preserveAspectRatio="none" viewBox="0 0 1440 560"><g mask="url(&quot;#SvgjsMask1003&quot;)" fill="none"><rect width="1440" height="560" x="0" y="0" fill="rgba(247, 247, 247, 1)"></rect><path d="M0,492.108C101.077,519.024,213.399,524.34,307.11,477.873C404.664,429.501,499.831,343.521,516.627,235.936C533.324,128.988,416.7,48.878,390.483,-56.143C368.208,-145.373,423.431,-247.1,376.326,-326.089C327.504,-407.957,229.335,-443.466,139.876,-476.374C45.319,-511.157,-54.465,-542.196,-152.913,-520.772C-254.725,-498.616,-346.179,-437.733,-411.333,-356.422C-475.167,-276.758,-519.461,-175.27,-511.297,-73.513C-503.658,21.695,-424.706,90.876,-369.209,168.612C-324.207,231.647,-275.611,287.173,-217.357,338.214C-149.207,397.926,-87.558,468.792,0,492.108" fill="#c6c6c6"></path><path d="M1440 1000.2629999999999C1521.533 984.611 1595.016 953.8679999999999 1669.306 916.806 1752.676 875.2139999999999 1844.011 844.322 1900.734 770.41 1964.9389999999999 686.747 2014.5729999999999 583.761 2005.53 478.68899999999996 1996.325 371.73199999999997 1922.618 283.854 1851.909 203.079 1781.492 122.637 1705.797 30.206999999999994 1599.926 15.342999999999961 1496.137 0.7709999999999582 1406.612 80.32 1312.982 127.416 1235.967 166.15499999999997 1171.5729999999999 216.723 1101.036 266.286 1004.973 333.786 837.653 354.81 823.493 471.36 809.213 588.902 983.095 639.215 1043.345 741.146 1094.348 827.434 1062.2350000000001 962.4200000000001 1146.151 1017.238 1229.989 1072.005 1341.655 1019.143 1440 1000.2629999999999" fill="#ffffff"></path></g><defs><mask id="SvgjsMask1003"><rect width="1440" height="560" fill="#ffffff"></rect></mask></defs></svg>