<svg xmlns="http://www.w3.org/2000/svg" version="1.1" xmlns:xlink="http://www.w3.org/1999/xlink" xmlns:svgjs="http://svgjs.com/svgjs" width="1440" height="560" preserveAspectRatio="none" viewBox="0 0 1440 560"><g mask="url(&quot;#SvgjsMask1008&quot;)" fill="none"><rect width="1440" height="560" x="0" y="0" fill="#0e2a47"></rect><g mask="url(&quot;#SvgjsMask1009&quot;)"><path d="M712.5 -12.5L712.5 12.5L712.5 37.5" stroke="rgba(245, 255, 0, 1)" stroke-width="4.17"></path><path d="M706.25 37.5 a6.25 6.25 0 1 0 12.5 0 a6.25 6.25 0 1 0 -12.5 0z" fill="rgba(245, 255, 0, 1)"></path><path d="M737.5 -12.5L737.5 12.5L737.5 37.5L737.5 62.5" stroke="rgba(245, 255, 0, 1)" stroke-width="4.17"></path><path d="M731.25 62.5 a6.25 6.25 0 1 0 12.5 0 a6.25 6.25 0 1 0 -12.5 0z" fill="rgba(245, 255, 0, 1)"></path><path d="M687.5 -12.5L687.5 12.5" stroke="#3a7cc3" stroke-width="4.17"></path><path d="M681.25 12.5 a6.25 6.25 0 1 0 12.5 0 a6.25 6.25 0 1 0 -12.5 0z" fill="#3a7cc3"></path><path d="M762.5 12.5L787.5 37.5L787.5 62.5L787.5 87.5M762.5 -12.5L762.5 12.5L762.5 37.5L762.5 62.5" stroke="#dd1133" stroke-width="4.17"></path><path d="M756.25 62.5 a6.25 6.25 0 1 0 12.5 0 a6.25 6.25 0 1 0 -12.5 0zM781.25 87.5 a6.25 6.25 0 1 0 12.5 0 a6.25 6.25 0 1 0 -12.5 0z" fill="#dd1133"></path><path d="M612.5 87.5L587.5 112.5M612.5 137.5L587.5 162.5L587.5 187.5L587.5 212.5L562.5 237.5M637.5 37.5L612.5 62.5M662.5 -12.5L637.5 12.5L637.5 37.5L637.5 62.5L612.5 87.5L612.5 112.5L612.5 137.5L612.5 162.5" stroke="#dd1133" stroke-width="4.17"></path><path d="M606.25 162.5 a6.25 6.25 0 1 0 12.5 0 a6.25 6.25 0 1 0 -12.5 0zM581.25 112.5 a6.25 6.25 0 1 0 12.5 0 a6.25 6.25 0 1 0 -12.5 0zM556.25 237.5 a6.25 6.25 0 1 0 12.5 0 a6.25 6.25 0 1 0 -12.5 0zM606.25 62.5 a6.25 6.25 0 1 0 12.5 0 a6.25 6.25 0 1 0 -12.5 0z" fill="#dd1133"></path><path d="M787.5 -12.5L812.5 12.5" stroke="#3a7cc3" stroke-width="4.17"></path><path d="M806.25 12.5 a6.25 6.25 0 1 0 12.5 0 a6.25 6.25 0 1 0 -12.5 0z" fill="#3a7cc3"></path><path d="M637.5 -12.5L612.5 12.5" stroke="rgba(245, 255, 0, 1)" stroke-width="4.17"></path><path d="M606.25 12.5 a6.25 6.25 0 1 0 12.5 0 a6.25 6.25 0 1 0 -12.5 0z" fill="rgba(245, 255, 0, 1)"></path><path d="M862.5 137.5L837.5 162.5L837.5 187.5L837.5 212.5M837.5 37.5L812.5 62.5L812.5 87.5M837.5 112.5L837.5 137.5M812.5 -12.5L837.5 12.5L837.5 37.5L837.5 62.5L837.5 87.5L837.5 112.5L862.5 137.5L862.5 162.5L862.5 187.5" stroke="#dd1133" stroke-width="4.17"></path><path d="M856.25 187.5 a6.25 6.25 0 1 0 12.5 0 a6.25 6.25 0 1 0 -12.5 0zM831.25 212.5 a6.25 6.25 0 1 0 12.5 0 a6.25 6.25 0 1 0 -12.5 0zM806.25 87.5 a6.25 6.25 0 1 0 12.5 0 a6.25 6.25 0 1 0 -12.5 0zM831.25 137.5 a6.25 6.25 0 1 0 12.5 0 a6.25 6.25 0 1 0 -12.5 0z" fill="#dd1133"></path><path d="M612.5 -12.5L587.5 12.5L587.5 37.5L587.5 62.5" stroke="#dd1133" stroke-width="4.17"></path><path d="M581.25 62.5 a6.25 6.25 0 1 0 12.5 0 a6.25 6.25 0 1 0 -12.5 0z" fill="#dd1133"></path><path d="M837.5 -12.5L862.5 12.5L862.5 37.5L862.5 62.5L862.5 87.5L862.5 112.5L887.5 137.5L887.5 162.5L887.5 187.5L887.5 212.5" stroke="#3a7cc3" stroke-width="4.17"></path><path d="M881.25 212.5 a6.25 6.25 0 1 0 12.5 0 a6.25 6.25 0 1 0 -12.5 0z" fill="#3a7cc3"></path><path d="M537.5 137.5L562.5 162.5L562.5 187.5M537.5 112.5L562.5 137.5M562.5 87.5L562.5 112.5M587.5 -12.5L562.5 12.5L562.5 37.5L562.5 62.5L562.5 87.5L537.5 112.5L537.5 137.5L537.5 162.5" stroke="rgba(245, 255, 0, 1)" stroke-width="4.17"></path><path d="M531.25 162.5 a6.25 6.25 0 1 0 12.5 0 a6.25 6.25 0 1 0 -12.5 0zM556.25 187.5 a6.25 6.25 0 1 0 12.5 0 a6.25 6.25 0 1 0 -12.5 0zM556.25 137.5 a6.25 6.25 0 1 0 12.5 0 a6.25 6.25 0 1 0 -12.5 0zM556.25 112.5 a6.25 6.25 0 1 0 12.5 0 a6.25 6.25 0 1 0 -12.5 0z" fill="rgba(245, 255, 0, 1)"></path><path d="M887.5 62.5L912.5 87.5M887.5 87.5L887.5 112.5M862.5 -12.5L887.5 12.5L887.5 37.5L887.5 62.5L887.5 87.5L912.5 112.5L912.5 137.5L912.5 162.5" stroke="#3a7cc3" stroke-width="4.17"></path><path d="M906.25 162.5 a6.25 6.25 0 1 0 12.5 0 a6.25 6.25 0 1 0 -12.5 0zM906.25 87.5 a6.25 6.25 0 1 0 12.5 0 a6.25 6.25 0 1 0 -12.5 0zM881.25 112.5 a6.25 6.25 0 1 0 12.5 0 a6.25 6.25 0 1 0 -12.5 0z" fill="#3a7cc3"></path><path d="M512.5 137.5L512.5 162.5M487.5 162.5L462.5 187.5L462.5 212.5M562.5 -12.5L537.5 12.5L537.5 37.5L537.5 62.5L537.5 87.5L512.5 112.5L512.5 137.5L487.5 162.5L487.5 187.5" stroke="#dd1133" stroke-width="4.17"></path><path d="M481.25 187.5 a6.25 6.25 0 1 0 12.5 0 a6.25 6.25 0 1 0 -12.5 0zM506.25 162.5 a6.25 6.25 0 1 0 12.5 0 a6.25 6.25 0 1 0 -12.5 0zM456.25 212.5 a6.25 6.25 0 1 0 12.5 0 a6.25 6.25 0 1 0 -12.5 0z" fill="#dd1133"></path><path d="M887.5 -12.5L912.5 12.5L912.5 37.5" stroke="#dd1133" stroke-width="4.17"></path><path d="M906.25 37.5 a6.25 6.25 0 1 0 12.5 0 a6.25 6.25 0 1 0 -12.5 0z" fill="#dd1133"></path><path d="M537.5 -12.5L512.5 12.5L512.5 37.5L512.5 62.5L512.5 87.5L487.5 112.5L487.5 137.5" stroke="#3a7cc3" stroke-width="4.17"></path><path d="M481.25 137.5 a6.25 6.25 0 1 0 12.5 0 a6.25 6.25 0 1 0 -12.5 0z" fill="#3a7cc3"></path><path d="M937.5 112.5L962.5 137.5M962.5 62.5L962.5 87.5L962.5 112.5M937.5 12.5L937.5 37.5M912.5 -12.5L937.5 12.5L962.5 37.5L962.5 62.5L937.5 87.5L937.5 112.5L937.5 137.5L937.5 162.5L937.5 187.5" stroke="#3a7cc3" stroke-width="4.17"></path><path d="M931.25 187.5 a6.25 6.25 0 1 0 12.5 0 a6.25 6.25 0 1 0 -12.5 0zM956.25 137.5 a6.25 6.25 0 1 0 12.5 0 a6.25 6.25 0 1 0 -12.5 0zM956.25 112.5 a6.25 6.25 0 1 0 12.5 0 a6.25 6.25 0 1 0 -12.5 0zM931.25 37.5 a6.25 6.25 0 1 0 12.5 0 a6.25 6.25 0 1 0 -12.5 0z" fill="#3a7cc3"></path><path d="M512.5 -12.5L487.5 12.5L487.5 37.5L487.5 62.5L487.5 87.5L462.5 112.5" stroke="rgba(245, 255, 0, 1)" stroke-width="4.17"></path><path d="M456.25 112.5 a6.25 6.25 0 1 0 12.5 0 a6.25 6.25 0 1 0 -12.5 0z" fill="rgba(245, 255, 0, 1)"></path><path d="M987.5 137.5L987.5 162.5L987.5 187.5L987.5 212.5M937.5 -12.5L962.5 12.5L987.5 37.5L987.5 62.5L987.5 87.5L987.5 112.5L987.5 137.5L962.5 162.5" stroke="#dd1133" stroke-width="4.17"></path><path d="M956.25 162.5 a6.25 6.25 0 1 0 12.5 0 a6.25 6.25 0 1 0 -12.5 0zM981.25 212.5 a6.25 6.25 0 1 0 12.5 0 a6.25 6.25 0 1 0 -12.5 0z" fill="#dd1133"></path><path d="M462.5 37.5L437.5 62.5M487.5 -12.5L462.5 12.5L462.5 37.5L462.5 62.5L462.5 87.5L437.5 112.5" stroke="#3a7cc3" stroke-width="4.17"></path><path d="M431.25 112.5 a6.25 6.25 0 1 0 12.5 0 a6.25 6.25 0 1 0 -12.5 0zM431.25 62.5 a6.25 6.25 0 1 0 12.5 0 a6.25 6.25 0 1 0 -12.5 0z" fill="#3a7cc3"></path><path d="M1012.5 87.5L1037.5 112.5M1012.5 137.5L1037.5 162.5L1037.5 187.5M962.5 -12.5L987.5 12.5L1012.5 37.5L1012.5 62.5L1012.5 87.5L1012.5 112.5L1012.5 137.5L1012.5 162.5L1012.5 187.5L1012.5 212.5" stroke="#3a7cc3" stroke-width="4.17"></path><path d="M1006.25 212.5 a6.25 6.25 0 1 0 12.5 0 a6.25 6.25 0 1 0 -12.5 0zM1031.25 112.5 a6.25 6.25 0 1 0 12.5 0 a6.25 6.25 0 1 0 -12.5 0zM1031.25 187.5 a6.25 6.25 0 1 0 12.5 0 a6.25 6.25 0 1 0 -12.5 0z" fill="#3a7cc3"></path><path d="M437.5 12.5L437.5 37.5M462.5 -12.5L437.5 12.5L412.5 37.5L412.5 62.5L412.5 87.5L412.5 112.5" stroke="#3a7cc3" stroke-width="4.17"></path><path d="M406.25 112.5 a6.25 6.25 0 1 0 12.5 0 a6.25 6.25 0 1 0 -12.5 0zM431.25 37.5 a6.25 6.25 0 1 0 12.5 0 a6.25 6.25 0 1 0 -12.5 0z" fill="#3a7cc3"></path><path d="M987.5 -12.5L1012.5 12.5L1037.5 37.5L1037.5 62.5" stroke="#dd1133" stroke-width="4.17"></path><path d="M1031.25 62.5 a6.25 6.25 0 1 0 12.5 0 a6.25 6.25 0 1 0 -12.5 0z" fill="#dd1133"></path><path d="M437.5 -12.5L412.5 12.5L387.5 37.5L387.5 62.5L387.5 87.5L387.5 112.5" stroke="rgba(245, 255, 0, 1)" stroke-width="4.17"></path><path d="M381.25 112.5 a6.25 6.25 0 1 0 12.5 0 a6.25 6.25 0 1 0 -12.5 0z" fill="rgba(245, 255, 0, 1)"></path><path d="M1012.5 -12.5L1037.5 12.5L1062.5 37.5L1062.5 62.5L1062.5 87.5L1062.5 112.5" stroke="#dd1133" stroke-width="4.17"></path><path d="M1056.25 112.5 a6.25 6.25 0 1 0 12.5 0 a6.25 6.25 0 1 0 -12.5 0z" fill="#dd1133"></path><path d="M362.5 137.5L387.5 162.5M362.5 162.5L337.5 187.5L312.5 212.5L312.5 237.5M362.5 187.5L362.5 212.5M412.5 -12.5L387.5 12.5L362.5 37.5L362.5 62.5L362.5 87.5L362.5 112.5L362.5 137.5L362.5 162.5L362.5 187.5L337.5 212.5" stroke="#dd1133" stroke-width="4.17"></path><path d="M331.25 212.5 a6.25 6.25 0 1 0 12.5 0 a6.25 6.25 0 1 0 -12.5 0zM381.25 162.5 a6.25 6.25 0 1 0 12.5 0 a6.25 6.25 0 1 0 -12.5 0zM306.25 237.5 a6.25 6.25 0 1 0 12.5 0 a6.25 6.25 0 1 0 -12.5 0zM356.25 212.5 a6.25 6.25 0 1 0 12.5 0 a6.25 6.25 0 1 0 -12.5 0z" fill="#dd1133"></path><path d="M1037.5 -12.5L1062.5 12.5L1087.5 37.5L1087.5 62.5L1087.5 87.5L1087.5 112.5" stroke="#dd1133" stroke-width="4.17"></path><path d="M1081.25 112.5 a6.25 6.25 0 1 0 12.5 0 a6.25 6.25 0 1 0 -12.5 0z" fill="#dd1133"></path><path d="M387.5 -12.5L362.5 12.5L337.5 37.5L337.5 62.5L337.5 87.5L337.5 112.5L337.5 137.5" stroke="rgba(245, 255, 0, 1)" stroke-width="4.17"></path><path d="M331.25 137.5 a6.25 6.25 0 1 0 12.5 0 a6.25 6.25 0 1 0 -12.5 0z" fill="rgba(245, 255, 0, 1)"></path><path d="M1112.5 37.5L1137.5 62.5L1137.5 87.5L1137.5 112.5L1137.5 137.5M1062.5 -12.5L1087.5 12.5L1112.5 37.5L1112.5 62.5L1112.5 87.5" stroke="#dd1133" stroke-width="4.17"></path><path d="M1106.25 87.5 a6.25 6.25 0 1 0 12.5 0 a6.25 6.25 0 1 0 -12.5 0zM1131.25 137.5 a6.25 6.25 0 1 0 12.5 0 a6.25 6.25 0 1 0 -12.5 0z" fill="#dd1133"></path><path d="M287.5 162.5L312.5 187.5M287.5 187.5L262.5 212.5L262.5 237.5M312.5 37.5L287.5 62.5L287.5 87.5L287.5 112.5L262.5 137.5M362.5 -12.5L337.5 12.5L312.5 37.5L312.5 62.5L312.5 87.5L312.5 112.5L287.5 137.5L287.5 162.5L287.5 187.5L287.5 212.5" stroke="#3a7cc3" stroke-width="4.17"></path><path d="M281.25 212.5 a6.25 6.25 0 1 0 12.5 0 a6.25 6.25 0 1 0 -12.5 0zM306.25 187.5 a6.25 6.25 0 1 0 12.5 0 a6.25 6.25 0 1 0 -12.5 0zM256.25 237.5 a6.25 6.25 0 1 0 12.5 0 a6.25 6.25 0 1 0 -12.5 0zM256.25 137.5 a6.25 6.25 0 1 0 12.5 0 a6.25 6.25 0 1 0 -12.5 0z" fill="#3a7cc3"></path></g></g><defs><mask id="SvgjsMask1008"><rect width="1440" height="560" fill="#ffffff"></rect></mask><mask id="SvgjsMask1009"><rect width="1440" height="560" fill="white"></rect><path d="M709.37 37.5 a3.13 3.13 0 1 0 6.26 0 a3.13 3.13 0 1 0 -6.26 0z" fill="black"></path><path d="M734.37 62.5 a3.13 3.13 0 1 0 6.26 0 a3.13 3.13 0 1 0 -6.26 0z" fill="black"></path><path d="M684.37 12.5 a3.13 3.13 0 1 0 6.26 0 a3.13 3.13 0 1 0 -6.26 0z" fill="black"></path><path d="M759.37 62.5 a3.13 3.13 0 1 0 6.26 0 a3.13 3.13 0 1 0 -6.26 0zM784.37 87.5 a3.13 3.13 0 1 0 6.26 0 a3.13 3.13 0 1 0 -6.26 0z" fill="black"></path><path d="M609.37 162.5 a3.13 3.13 0 1 0 6.26 0 a3.13 3.13 0 1 0 -6.26 0zM584.37 112.5 a3.13 3.13 0 1 0 6.26 0 a3.13 3.13 0 1 0 -6.26 0zM559.37 237.5 a3.13 3.13 0 1 0 6.26 0 a3.13 3.13 0 1 0 -6.26 0zM609.37 62.5 a3.13 3.13 0 1 0 6.26 0 a3.13 3.13 0 1 0 -6.26 0z" fill="black"></path><path d="M809.37 12.5 a3.13 3.13 0 1 0 6.26 0 a3.13 3.13 0 1 0 -6.26 0z" fill="black"></path><path d="M609.37 12.5 a3.13 3.13 0 1 0 6.26 0 a3.13 3.13 0 1 0 -6.26 0z" fill="black"></path><path d="M859.37 187.5 a3.13 3.13 0 1 0 6.26 0 a3.13 3.13 0 1 0 -6.26 0zM834.37 212.5 a3.13 3.13 0 1 0 6.26 0 a3.13 3.13 0 1 0 -6.26 0zM809.37 87.5 a3.13 3.13 0 1 0 6.26 0 a3.13 3.13 0 1 0 -6.26 0zM834.37 137.5 a3.13 3.13 0 1 0 6.26 0 a3.13 3.13 0 1 0 -6.26 0z" fill="black"></path><path d="M584.37 62.5 a3.13 3.13 0 1 0 6.26 0 a3.13 3.13 0 1 0 -6.26 0z" fill="black"></path><path d="M884.37 212.5 a3.13 3.13 0 1 0 6.26 0 a3.13 3.13 0 1 0 -6.26 0z" fill="black"></path><path d="M534.37 162.5 a3.13 3.13 0 1 0 6.26 0 a3.13 3.13 0 1 0 -6.26 0zM559.37 187.5 a3.13 3.13 0 1 0 6.26 0 a3.13 3.13 0 1 0 -6.26 0zM559.37 137.5 a3.13 3.13 0 1 0 6.26 0 a3.13 3.13 0 1 0 -6.26 0zM559.37 112.5 a3.13 3.13 0 1 0 6.26 0 a3.13 3.13 0 1 0 -6.26 0z" fill="black"></path><path d="M909.37 162.5 a3.13 3.13 0 1 0 6.26 0 a3.13 3.13 0 1 0 -6.26 0zM909.37 87.5 a3.13 3.13 0 1 0 6.26 0 a3.13 3.13 0 1 0 -6.26 0zM884.37 112.5 a3.13 3.13 0 1 0 6.26 0 a3.13 3.13 0 1 0 -6.26 0z" fill="black"></path><path d="M484.37 187.5 a3.13 3.13 0 1 0 6.26 0 a3.13 3.13 0 1 0 -6.26 0zM509.37 162.5 a3.13 3.13 0 1 0 6.26 0 a3.13 3.13 0 1 0 -6.26 0zM459.37 212.5 a3.13 3.13 0 1 0 6.26 0 a3.13 3.13 0 1 0 -6.26 0z" fill="black"></path><path d="M909.37 37.5 a3.13 3.13 0 1 0 6.26 0 a3.13 3.13 0 1 0 -6.26 0z" fill="black"></path><path d="M484.37 137.5 a3.13 3.13 0 1 0 6.26 0 a3.13 3.13 0 1 0 -6.26 0z" fill="black"></path><path d="M934.37 187.5 a3.13 3.13 0 1 0 6.26 0 a3.13 3.13 0 1 0 -6.26 0zM959.37 137.5 a3.13 3.13 0 1 0 6.26 0 a3.13 3.13 0 1 0 -6.26 0zM959.37 112.5 a3.13 3.13 0 1 0 6.26 0 a3.13 3.13 0 1 0 -6.26 0zM934.37 37.5 a3.13 3.13 0 1 0 6.26 0 a3.13 3.13 0 1 0 -6.26 0z" fill="black"></path><path d="M459.37 112.5 a3.13 3.13 0 1 0 6.26 0 a3.13 3.13 0 1 0 -6.26 0z" fill="black"></path><path d="M959.37 162.5 a3.13 3.13 0 1 0 6.26 0 a3.13 3.13 0 1 0 -6.26 0zM984.37 212.5 a3.13 3.13 0 1 0 6.26 0 a3.13 3.13 0 1 0 -6.26 0z" fill="black"></path><path d="M434.37 112.5 a3.13 3.13 0 1 0 6.26 0 a3.13 3.13 0 1 0 -6.26 0zM434.37 62.5 a3.13 3.13 0 1 0 6.26 0 a3.13 3.13 0 1 0 -6.26 0z" fill="black"></path><path d="M1009.37 212.5 a3.13 3.13 0 1 0 6.26 0 a3.13 3.13 0 1 0 -6.26 0zM1034.37 112.5 a3.13 3.13 0 1 0 6.26 0 a3.13 3.13 0 1 0 -6.26 0zM1034.37 187.5 a3.13 3.13 0 1 0 6.26 0 a3.13 3.13 0 1 0 -6.26 0z" fill="black"></path><path d="M409.37 112.5 a3.13 3.13 0 1 0 6.26 0 a3.13 3.13 0 1 0 -6.26 0zM434.37 37.5 a3.13 3.13 0 1 0 6.26 0 a3.13 3.13 0 1 0 -6.26 0z" fill="black"></path><path d="M1034.37 62.5 a3.13 3.13 0 1 0 6.26 0 a3.13 3.13 0 1 0 -6.26 0z" fill="black"></path><path d="M384.37 112.5 a3.13 3.13 0 1 0 6.26 0 a3.13 3.13 0 1 0 -6.26 0z" fill="black"></path><path d="M1059.37 112.5 a3.13 3.13 0 1 0 6.26 0 a3.13 3.13 0 1 0 -6.26 0z" fill="black"></path><path d="M334.37 212.5 a3.13 3.13 0 1 0 6.26 0 a3.13 3.13 0 1 0 -6.26 0zM384.37 162.5 a3.13 3.13 0 1 0 6.26 0 a3.13 3.13 0 1 0 -6.26 0zM309.37 237.5 a3.13 3.13 0 1 0 6.26 0 a3.13 3.13 0 1 0 -6.26 0zM359.37 212.5 a3.13 3.13 0 1 0 6.26 0 a3.13 3.13 0 1 0 -6.26 0z" fill="black"></path><path d="M1084.37 112.5 a3.13 3.13 0 1 0 6.26 0 a3.13 3.13 0 1 0 -6.26 0z" fill="black"></path><path d="M334.37 137.5 a3.13 3.13 0 1 0 6.26 0 a3.13 3.13 0 1 0 -6.26 0z" fill="black"></path><path d="M1109.37 87.5 a3.13 3.13 0 1 0 6.26 0 a3.13 3.13 0 1 0 -6.26 0zM1134.37 137.5 a3.13 3.13 0 1 0 6.26 0 a3.13 3.13 0 1 0 -6.26 0z" fill="black"></path><path d="M284.37 212.5 a3.13 3.13 0 1 0 6.26 0 a3.13 3.13 0 1 0 -6.26 0zM309.37 187.5 a3.13 3.13 0 1 0 6.26 0 a3.13 3.13 0 1 0 -6.26 0zM259.37 237.5 a3.13 3.13 0 1 0 6.26 0 a3.13 3.13 0 1 0 -6.26 0zM259.37 137.5 a3.13 3.13 0 1 0 6.26 0 a3.13 3.13 0 1 0 -6.26 0z" fill="black"></path></mask></defs></svg>