<svg xmlns="http://www.w3.org/2000/svg" version="1.1" xmlns:xlink="http://www.w3.org/1999/xlink" xmlns:svgjs="http://svgjs.com/svgjs" width="1440" height="560" preserveAspectRatio="none" viewBox="0 0 1440 560"><g mask="url(&quot;#SvgjsMask1005&quot;)" fill="none"><path d="M1512 560L0 560 L0 334.87Q54.86 269.73, 120 324.58Q198.27 282.85, 240 361.12Q281.88 331, 312 372.88Q337.02 277.9, 432 302.92Q475.71 274.63, 504 318.35Q576.67 271.02, 624 343.7Q662.96 262.66, 744 301.62Q786.14 271.76, 816 313.91Q895.45 273.37, 936 352.82Q1008.46 305.28, 1056 377.74Q1090.16 291.9, 1176 326.07Q1225.55 255.62, 1296 305.17Q1320.49 257.67, 1368 282.16Q1409.05 251.21, 1440 292.25Q1488.61 268.86, 1512 317.46z" fill="rgba(0, 0, 0, 1)"></path><path d="M1464 560L0 560 L0 386.09Q85.49 351.58, 120 437.07Q123.24 368.31, 192 371.55Q220.72 328.27, 264 357Q312.86 333.86, 336 382.71Q366.49 341.2, 408 371.69Q493.12 336.81, 528 421.93Q530.61 352.54, 600 355.15Q676.88 360.03, 672 436.91Q691.51 336.42, 792 355.93Q836.11 328.04, 864 372.15Q930.9 367.05, 936 433.95Q950.03 375.98, 1008 390.01Q1028.14 338.15, 1080 358.3Q1164.52 322.82, 1200 407.34Q1223.22 358.56, 1272 381.78Q1351.65 341.43, 1392 421.09Q1438.94 396.03, 1464 442.98z" fill="#25467d"></path><path d="M1512 560L0 560 L0 488.85Q48.49 465.34, 72 513.83Q90.38 412.22, 192 430.6Q263.88 382.48, 312 454.35Q366.62 436.97, 384 491.58Q408.75 444.33, 456 469.08Q476.81 417.88, 528 438.69Q569.28 407.97, 600 449.24Q682.76 412, 720 494.76Q765.8 420.56, 840 466.37Q925.66 432.04, 960 517.7Q1014.76 452.47, 1080 507.23Q1114.09 421.32, 1200 455.41Q1278.54 413.95, 1320 492.49Q1327.67 428.16, 1392 435.84Q1461.3 385.14, 1512 454.44z" fill="#356cb1"></path><path d="M1464 560L0 560 L0 575.83Q41.38 497.21, 120 538.59Q191.37 489.96, 240 561.32Q276.73 478.05, 360 514.78Q410.83 493.61, 432 544.43Q483.37 475.8, 552 527.17Q577.1 480.26, 624 505.36Q704.99 466.35, 744 547.34Q795.98 527.32, 816 579.3Q846.76 490.06, 936 520.82Q1016.72 481.54, 1056 562.26Q1097.82 532.08, 1128 573.9Q1171.38 497.28, 1248 540.66Q1266.82 487.48, 1320 506.3Q1364.51 478.81, 1392 523.32Q1436.81 496.13, 1464 540.94z" fill="rgba(156, 156, 156, 1)"></path></g><defs><mask id="SvgjsMask1005"><rect width="1440" height="560" fill="#ffffff"></rect></mask></defs></svg>