<svg xmlns="http://www.w3.org/2000/svg" version="1.1" xmlns:xlink="http://www.w3.org/1999/xlink" xmlns:svgjs="http://svgjs.com/svgjs" width="1440" height="560" preserveAspectRatio="none" viewBox="0 0 1440 560"><g mask="url(&quot;#SvgjsMask1002&quot;)" fill="none"><rect width="1440" height="560" x="0" y="0" fill="rgba(235, 235, 235, 1)"></rect><path d="M1440 0L1050.78 0L1440 97.47z" fill="rgba(255, 255, 255, .1)"></path><path d="M1050.78 0L1440 97.47L1440 277.39L806.91 0z" fill="rgba(255, 255, 255, .075)"></path><path d="M806.91 0L1440 277.39L1440 428.29999999999995L364.38 0z" fill="rgba(255, 255, 255, .05)"></path><path d="M364.3800000000001 0L1440 428.29999999999995L1440 473.77L249.0400000000001 0z" fill="rgba(255, 255, 255, .025)"></path><path d="M0 560L647.2 560L0 439.94z" fill="rgba(0, 0, 0, .1)"></path><path d="M0 439.94L647.2 560L865.7800000000001 560L0 246.07z" fill="rgba(0, 0, 0, .075)"></path><path d="M0 246.07L865.7800000000001 560L918.6000000000001 560L0 167.56z" fill="rgba(0, 0, 0, .05)"></path><path d="M0 167.56L918.6000000000001 560L1120.96 560L0 91.48z" fill="rgba(0, 0, 0, .025)"></path></g><defs><mask id="SvgjsMask1002"><rect width="1440" height="560" fill="#ffffff"></rect></mask></defs></svg>