<svg id="svg" version="1.1" xmlns="http://www.w3.org/2000/svg" xmlns:xlink="http://www.w3.org/1999/xlink" width="400" height="372.9438893159109" viewBox="0, 0, 400,372.9438893159109"><g id="svgg"><path id="path0" d="M20.242 9.198 C 16.932 10.258,14.166 12.710,12.662 15.920 L 11.837 17.679 11.837 57.648 L 11.837 97.617 12.551 99.384 C 13.873 102.659,17.056 105.472,20.609 106.505 C 22.153 106.954,37.807 106.990,199.397 106.919 L 376.493 106.841 378.512 105.847 C 380.977 104.633,383.411 102.159,384.567 99.693 L 385.396 97.925 385.396 57.802 L 385.396 17.679 384.493 15.834 C 383.323 13.442,380.555 10.672,378.261 9.597 L 376.480 8.762 199.231 8.702 C 28.827 8.643,21.916 8.662,20.242 9.198 M127.287 57.802 L 127.287 85.473 90.392 85.473 L 53.497 85.473 53.497 57.802 L 53.497 30.131 90.392 30.131 L 127.287 30.131 127.287 57.802 M284.874 40.341 C 287.141 42.815,287.145 49.725,284.881 52.196 C 282.964 54.287,279.469 53.754,278.109 51.163 C 277.219 49.465,277.190 43.511,278.063 41.574 C 279.323 38.781,282.857 38.141,284.874 40.341 M295.158 46.118 L 295.158 53.190 293.774 53.190 L 292.390 53.190 292.390 48.256 L 292.390 43.322 291.238 44.218 C 289.314 45.712,289.008 45.702,289.008 44.141 C 289.008 42.944,289.120 42.731,290.033 42.193 C 290.596 41.860,291.530 41.019,292.108 40.323 C 292.941 39.321,293.367 39.057,294.158 39.052 L 295.158 39.047 295.158 46.118 M305.777 39.535 C 308.106 40.640,308.618 43.982,306.639 45.165 C 306.100 45.487,306.099 45.520,306.615 45.829 C 310.319 48.049,308.250 53.500,303.705 53.496 C 300.920 53.494,297.592 49.683,299.846 49.079 C 301.258 48.701,301.779 48.864,302.130 49.794 C 302.565 50.947,303.771 51.307,304.845 50.603 C 306.602 49.452,305.369 46.414,303.305 46.809 C 302.463 46.969,302.449 46.939,302.729 45.542 C 302.844 44.963,303.110 44.581,303.396 44.581 C 304.118 44.581,304.996 43.648,304.996 42.880 C 304.996 41.320,302.848 41.101,302.169 42.591 C 301.785 43.434,301.789 43.432,300.393 43.153 C 299.483 42.971,299.418 42.880,299.588 42.030 C 300.082 39.559,303.189 38.307,305.777 39.535 M257.955 43.659 L 257.955 47.963 258.878 47.963 C 259.749 47.963,259.800 48.031,259.800 49.193 C 259.800 50.354,259.749 50.423,258.878 50.423 C 257.990 50.423,257.955 50.474,257.955 51.806 L 257.955 53.190 256.572 53.190 L 255.188 53.190 255.188 51.806 L 255.188 50.423 252.267 50.423 L 249.347 50.423 249.347 49.268 C 249.347 47.144,255.161 39.354,256.747 39.354 L 257.955 39.354 257.955 43.659 M275.480 40.738 L 275.480 42.121 272.900 42.121 C 270.207 42.121,269.946 42.255,269.946 43.639 C 269.946 44.101,270.167 44.164,271.407 44.058 C 276.067 43.657,277.705 50.102,273.636 52.830 C 271.215 54.453,267.239 52.967,266.695 50.236 C 266.378 48.643,268.954 48.243,269.539 49.794 C 270.375 52.008,273.118 51.088,272.960 48.647 C 272.838 46.772,271.796 46.038,270.189 46.697 C 266.624 48.158,266.431 47.673,267.850 40.815 L 268.152 39.354 271.816 39.354 L 275.480 39.354 275.480 40.738 M85.165 46.580 L 85.165 52.575 79.170 52.575 L 73.174 52.575 73.174 57.802 L 73.174 63.028 79.170 63.028 L 85.165 63.028 85.165 69.024 L 85.165 75.019 90.392 75.019 L 95.619 75.019 95.619 69.024 L 95.619 63.028 101.614 63.028 L 107.610 63.028 107.610 57.802 L 107.610 52.575 101.614 52.575 L 95.619 52.575 95.619 46.580 L 95.619 40.584 90.392 40.584 L 85.165 40.584 85.165 46.580 M160.728 41.367 C 162.641 42.167,164.441 44.483,163.688 45.176 C 163.030 45.781,161.105 45.858,160.902 45.288 C 159.933 42.561,156.175 42.829,155.077 45.703 C 153.105 50.868,158.460 55.895,160.720 51.001 C 161.283 49.782,161.344 49.769,163.182 50.456 C 165.587 51.356,161.576 55.342,158.265 55.342 C 154.171 55.342,151.725 52.630,151.749 48.117 C 151.777 42.645,156.068 39.420,160.728 41.367 M169.408 43.966 L 169.408 46.733 172.022 46.733 L 174.635 46.733 174.635 43.966 L 174.635 41.199 176.172 41.199 L 177.709 41.199 177.709 48.271 L 177.709 55.342 176.172 55.342 L 174.635 55.342 174.635 52.267 L 174.635 49.193 172.022 49.193 L 169.408 49.193 169.408 52.267 L 169.408 55.342 167.871 55.342 L 166.334 55.342 166.334 48.271 L 166.334 41.199 167.871 41.199 L 169.408 41.199 169.408 43.966 M190.315 42.429 L 190.315 43.659 186.933 43.659 L 183.551 43.659 183.551 45.196 L 183.551 46.733 186.472 46.733 L 189.393 46.733 189.393 47.963 L 189.393 49.193 186.472 49.193 L 183.551 49.193 183.551 52.267 L 183.551 55.342 182.014 55.342 L 180.477 55.342 180.477 48.271 L 180.477 41.199 185.396 41.199 L 190.315 41.199 190.315 42.429 M280.829 42.281 C 279.426 44.422,280.361 51.219,282.026 50.980 C 283.098 50.825,283.465 49.625,283.465 46.272 C 283.465 41.975,282.242 40.124,280.829 42.281 M253.557 45.821 L 252.079 47.963 253.634 47.963 L 255.188 47.963 255.188 45.811 C 255.188 44.627,255.154 43.663,255.111 43.668 C 255.069 43.674,254.370 44.642,253.557 45.821 M264.412 51.806 L 264.412 53.190 262.875 53.190 L 261.337 53.190 261.337 51.806 L 261.337 50.423 262.875 50.423 L 264.412 50.423 264.412 51.806 M259.520 62.500 C 263.674 65.299,261.244 70.715,255.834 70.715 L 253.651 70.715 253.651 73.328 L 253.651 75.942 252.114 75.942 L 250.576 75.942 250.576 68.870 L 250.576 61.799 254.528 61.799 C 258.132 61.799,258.571 61.860,259.520 62.500 M266.872 67.640 L 266.872 73.482 270.254 73.482 L 273.636 73.482 273.636 74.712 L 273.636 75.942 268.716 75.942 L 263.797 75.942 263.797 68.870 L 263.797 61.799 265.334 61.799 L 266.872 61.799 266.872 67.640 M281.299 66.257 L 283.935 70.561 284.021 66.180 L 284.106 61.799 285.635 61.799 L 287.164 61.799 287.164 68.870 L 287.164 75.942 285.550 75.931 L 283.935 75.920 281.245 71.556 L 278.555 67.191 278.555 71.566 L 278.555 75.942 277.018 75.942 L 275.480 75.942 275.480 68.854 L 275.480 61.766 277.071 61.859 L 278.662 61.952 281.299 66.257 M158.207 63.479 C 159.129 63.864,160.184 65.341,160.184 66.247 C 160.184 66.843,158.628 66.302,158.280 65.585 C 157.377 63.726,153.420 64.045,153.420 65.976 C 153.420 66.840,153.894 67.120,156.490 67.793 C 162.058 69.236,161.698 74.404,156.029 74.404 C 153.620 74.404,150.668 71.964,151.472 70.638 C 151.776 70.137,152.833 70.440,153.085 71.099 C 154.107 73.771,159.518 73.617,158.845 70.935 C 158.642 70.126,158.088 69.840,155.157 69.026 C 152.304 68.235,151.308 66.780,152.231 64.753 C 152.946 63.183,155.962 62.540,158.207 63.479 M175.250 63.797 C 175.250 64.412,175.096 64.566,174.481 64.566 C 173.866 64.566,173.713 64.412,173.713 63.797 C 173.713 63.182,173.866 63.028,174.481 63.028 C 175.096 63.028,175.250 63.182,175.250 63.797 M201.076 63.643 C 201.076 64.092,200.871 64.258,200.318 64.258 C 199.608 64.258,198.924 65.003,198.924 65.775 C 198.924 65.956,199.349 66.103,199.869 66.103 C 201.113 66.103,201.024 67.131,199.767 67.276 L 198.924 67.374 198.924 70.889 C 198.924 74.199,198.888 74.404,198.309 74.404 C 197.730 74.404,197.694 74.199,197.694 70.869 C 197.694 67.538,197.658 67.333,197.079 67.333 C 196.669 67.333,196.464 67.128,196.464 66.718 C 196.464 66.308,196.669 66.103,197.079 66.103 C 197.565 66.103,197.694 65.898,197.694 65.128 C 197.694 63.760,198.460 63.028,199.894 63.028 C 200.871 63.028,201.076 63.135,201.076 63.643 M253.651 66.294 L 253.651 68.329 255.470 68.198 C 259.587 67.900,259.405 64.258,255.274 64.258 L 253.651 64.258 253.651 66.294 M163.598 69.024 C 163.986 70.630,164.383 71.945,164.482 71.945 C 164.581 71.945,164.992 70.630,165.395 69.024 C 166.480 64.702,167.412 64.725,168.485 69.101 L 169.220 72.098 170.141 69.101 C 170.969 66.408,171.137 66.103,171.793 66.103 C 172.412 66.103,172.490 66.209,172.303 66.795 C 171.644 68.851,170.023 74.195,170.023 74.311 C 170.023 74.385,169.651 74.401,169.195 74.348 C 168.428 74.258,168.318 74.053,167.687 71.539 C 167.313 70.047,166.951 68.771,166.883 68.702 C 166.815 68.634,166.442 69.889,166.056 71.491 C 165.379 74.300,165.323 74.404,164.503 74.404 C 163.676 74.404,163.620 74.293,162.533 70.475 C 161.206 65.814,161.231 66.103,162.154 66.103 C 162.834 66.103,162.951 66.339,163.598 69.024 M175.250 70.254 L 175.250 74.404 174.481 74.404 L 173.713 74.404 173.713 70.254 L 173.713 66.103 174.481 66.103 L 175.250 66.103 175.250 70.254 M182.126 66.740 C 183.060 67.475,183.217 68.563,182.390 68.563 C 182.089 68.563,181.606 68.286,181.317 67.948 C 180.479 66.969,178.324 67.196,178.324 68.264 C 178.324 68.685,178.869 68.996,180.553 69.537 C 182.297 70.098,182.867 70.431,183.170 71.071 C 184.597 74.081,178.507 75.896,176.968 72.919 C 176.219 71.471,177.327 71.068,178.379 72.406 C 179.084 73.301,180.761 73.461,181.518 72.704 C 182.222 72.000,181.795 71.374,180.368 71.018 C 177.262 70.241,176.269 69.175,177.053 67.455 C 177.705 66.023,180.681 65.604,182.126 66.740 M190.366 67.012 C 190.676 67.395,190.930 67.901,190.930 68.136 C 190.930 68.787,189.593 68.646,189.157 67.948 C 188.691 67.202,186.890 67.105,186.318 67.794 C 185.734 68.498,186.358 69.015,188.377 69.500 C 192.702 70.537,192.163 74.404,187.693 74.404 C 185.467 74.404,183.369 71.983,185.343 71.693 C 185.710 71.639,186.011 71.733,186.011 71.901 C 186.011 73.017,188.618 73.646,189.390 72.717 C 190.027 71.949,189.517 71.409,187.645 70.869 C 185.417 70.225,184.781 69.673,184.781 68.384 C 184.781 66.173,188.873 65.168,190.366 67.012 M202.921 66.586 C 202.921 67.025,202.965 67.025,203.404 66.586 C 203.927 66.064,205.543 65.928,205.825 66.383 C 206.197 66.985,205.657 67.549,204.856 67.396 C 203.556 67.148,203.228 67.953,203.228 71.389 C 203.228 74.400,203.227 74.404,202.460 74.404 L 201.691 74.404 201.691 70.254 C 201.691 66.308,201.721 66.103,202.306 66.103 C 202.660 66.103,202.921 66.308,202.921 66.586 M212.267 66.452 C 213.721 67.115,214.516 74.405,213.134 74.405 C 212.748 74.404,212.354 74.200,212.259 73.951 C 212.105 73.551,211.981 73.551,211.207 73.951 C 209.811 74.673,207.945 74.537,207.058 73.650 C 205.462 72.054,206.561 70.048,209.243 69.660 C 211.984 69.264,212.185 69.175,211.959 68.450 C 211.471 66.887,208.148 67.004,208.148 68.585 C 208.148 68.742,207.802 68.870,207.379 68.870 C 206.549 68.870,206.431 68.549,206.925 67.626 C 207.641 66.289,210.520 65.656,212.267 66.452 M217.064 66.582 C 217.064 67.015,217.129 67.015,217.747 66.582 C 220.449 64.689,222.291 66.484,222.291 71.008 L 222.291 74.404 221.522 74.404 L 220.753 74.404 220.753 71.187 C 220.753 67.736,220.562 67.333,218.929 67.333 C 217.511 67.333,217.064 68.329,217.064 71.483 C 217.064 74.394,217.061 74.404,216.295 74.404 L 215.527 74.404 215.527 70.254 L 215.527 66.103 216.295 66.103 C 216.786 66.103,217.064 66.276,217.064 66.582 M230.001 67.002 C 231.106 68.107,231.174 68.870,230.167 68.870 C 229.698 68.870,229.377 68.653,229.277 68.269 C 228.856 66.661,226.067 67.325,225.595 69.146 C 224.790 72.251,228.165 74.848,229.422 72.090 C 229.746 71.378,230.553 71.086,230.990 71.522 C 231.096 71.628,230.981 72.104,230.735 72.580 C 229.281 75.392,225.158 74.889,224.130 71.774 C 222.820 67.805,227.224 64.225,230.001 67.002 M210.009 70.743 C 208.305 71.077,207.559 71.736,208.030 72.488 C 208.500 73.239,210.505 73.362,211.252 72.686 C 211.808 72.183,212.094 70.370,211.606 70.441 C 211.480 70.460,210.761 70.595,210.009 70.743 M281.091 143.220 C 276.904 144.712,274.669 148.960,275.822 153.231 C 276.629 156.216,277.370 157.194,283.194 162.952 C 286.358 166.080,289.184 169.020,289.474 169.485 C 290.162 170.588,290.590 170.552,291.309 169.331 C 291.875 168.368,295.467 164.662,299.308 161.076 C 303.721 156.956,304.754 155.181,304.935 151.404 C 305.295 143.926,296.881 139.886,291.558 144.981 L 290.257 146.225 289.254 145.163 C 287.229 143.015,283.893 142.221,281.091 143.220 M286.039 144.350 C 287.513 144.966,289.153 146.442,289.623 147.577 C 290.113 148.761,290.348 148.740,291.153 147.438 C 294.297 142.350,301.392 142.893,303.444 148.378 C 304.935 152.362,303.444 155.758,298.049 160.667 C 294.536 163.864,292.324 166.080,291.237 167.493 L 290.462 168.499 287.653 165.649 C 286.109 164.081,283.602 161.673,282.084 160.298 C 277.751 156.375,276.228 153.071,277.013 149.293 C 277.840 145.309,282.382 142.822,286.039 144.350 M152.504 149.818 C 151.499 150.327,150.971 151.431,150.965 153.036 C 150.961 154.282,150.918 154.343,150.038 154.343 C 149.260 154.343,149.116 154.462,149.116 155.111 C 149.116 155.761,149.260 155.880,150.038 155.880 L 150.961 155.880 150.961 161.261 L 150.961 166.641 152.037 166.641 L 153.113 166.641 153.113 161.261 L 153.113 155.880 154.343 155.880 C 155.450 155.880,155.573 155.803,155.573 155.111 C 155.573 154.420,155.450 154.343,154.343 154.343 C 153.147 154.343,153.113 154.314,153.113 153.289 C 153.113 151.960,153.792 151.268,155.098 151.268 C 156.059 151.268,156.817 150.156,156.246 149.584 C 155.932 149.271,153.256 149.438,152.504 149.818 M99.308 152.643 L 99.308 155.554 98.189 154.795 C 92.502 150.935,87.534 161.720,93.058 165.933 C 94.612 167.118,97.316 167.176,98.515 166.049 C 99.306 165.306,99.308 165.306,99.308 165.973 C 99.308 166.532,99.484 166.641,100.384 166.641 L 101.460 166.641 101.460 158.186 L 101.460 149.731 100.384 149.731 L 99.308 149.731 99.308 152.643 M112.221 152.499 L 112.221 155.266 111.073 154.651 C 107.427 152.697,103.920 155.516,103.920 160.399 C 103.920 165.488,107.904 168.568,111.410 166.189 C 112.471 165.469,112.529 165.461,112.529 166.035 C 112.529 166.503,112.738 166.641,113.451 166.641 L 114.374 166.641 114.374 158.186 L 114.374 149.731 113.297 149.731 L 112.221 149.731 112.221 152.499 M216.141 150.961 C 216.141 152.161,216.167 152.191,217.218 152.191 C 218.268 152.191,218.294 152.161,218.294 150.961 C 218.294 149.760,218.268 149.731,217.218 149.731 C 216.167 149.731,216.141 149.760,216.141 150.961 M125.519 150.695 C 124.614 151.269,124.520 151.470,124.520 152.836 C 124.520 154.238,124.466 154.343,123.751 154.343 C 123.136 154.343,122.982 154.497,122.982 155.111 C 122.982 155.719,123.138 155.880,123.724 155.880 L 124.466 155.880 124.569 160.789 C 124.688 166.377,124.786 166.620,127.024 166.842 C 128.722 167.011,129.231 166.684,128.960 165.603 C 128.799 164.962,128.620 164.820,128.159 164.966 C 126.883 165.371,126.672 164.685,126.672 160.147 L 126.672 155.880 127.748 155.880 C 128.691 155.880,128.824 155.785,128.824 155.111 C 128.824 154.440,128.690 154.343,127.761 154.343 L 126.699 154.343 126.608 152.202 L 126.518 150.061 125.519 150.695 M222.675 150.695 C 221.770 151.269,221.676 151.470,221.676 152.836 C 221.676 154.238,221.622 154.343,220.907 154.343 C 220.292 154.343,220.138 154.497,220.138 155.111 C 220.138 155.719,220.294 155.880,220.880 155.880 L 221.622 155.880 221.725 160.789 C 221.844 166.377,221.942 166.620,224.180 166.842 C 225.878 167.011,226.387 166.684,226.116 165.603 C 225.955 164.962,225.776 164.820,225.315 164.966 C 224.039 165.371,223.828 164.685,223.828 160.147 L 223.828 155.880 224.904 155.880 C 225.847 155.880,225.980 155.785,225.980 155.111 C 225.980 154.440,225.846 154.343,224.917 154.343 L 223.855 154.343 223.764 152.202 L 223.674 150.061 222.675 150.695 M80.387 154.613 C 79.138 155.181,78.094 156.380,78.094 157.247 C 78.094 157.990,79.685 158.249,80.077 157.570 C 81.593 154.944,86.088 155.275,86.088 158.012 C 86.088 159.047,85.985 159.096,82.706 159.593 C 79.381 160.098,77.950 160.998,77.612 162.797 C 76.980 166.166,80.996 168.075,84.729 166.181 C 85.561 165.759,86.260 165.413,86.282 165.413 C 86.305 165.412,86.396 165.688,86.484 166.026 C 86.607 166.496,86.904 166.641,87.742 166.641 C 88.793 166.641,88.827 166.608,88.540 165.852 C 88.375 165.419,88.239 163.170,88.239 160.856 C 88.237 155.908,87.877 154.920,85.873 154.363 C 84.113 153.875,81.779 153.981,80.387 154.613 M133.282 154.614 C 127.602 157.222,129.580 166.909,135.799 166.942 C 139.322 166.960,141.530 164.475,141.530 160.492 C 141.530 155.490,137.550 152.654,133.282 154.614 M159.691 154.368 C 157.945 154.874,156.226 157.171,157.154 157.759 C 157.795 158.164,158.955 158.081,158.955 157.629 C 158.955 156.075,162.483 155.217,164.130 156.370 C 165.544 157.361,164.960 159.056,163.105 159.346 C 157.678 160.193,156.495 160.905,156.495 163.321 C 156.495 166.550,159.916 167.966,163.425 166.189 C 164.857 165.464,165.388 165.523,165.407 166.410 C 165.409 166.537,165.910 166.641,166.520 166.641 C 167.459 166.641,167.594 166.558,167.400 166.103 C 167.273 165.807,167.107 163.490,167.030 160.953 C 166.873 155.826,166.669 155.195,164.936 154.471 C 163.784 153.990,161.171 153.938,159.691 154.368 M184.627 154.471 C 180.022 156.527,180.194 164.856,184.878 166.622 C 189.955 168.536,194.335 163.250,192.329 157.628 C 191.285 154.698,187.548 153.167,184.627 154.471 M211.089 154.811 C 210.341 155.618,210.300 155.628,210.300 155.003 C 210.300 154.454,210.119 154.343,209.224 154.343 L 208.148 154.343 208.148 160.492 L 208.148 166.641 209.194 166.641 L 210.241 166.641 210.347 162.359 C 210.476 157.164,210.848 156.341,213.068 156.341 C 214.171 156.341,214.420 156.224,214.653 155.597 C 215.240 154.023,212.400 153.397,211.089 154.811 M230.256 154.749 C 224.826 157.607,226.965 166.935,233.051 166.935 C 235.998 166.935,240.113 163.433,237.873 162.832 C 236.765 162.535,236.126 162.620,236.126 163.063 C 236.126 165.767,230.598 165.589,229.815 162.861 C 229.265 160.944,228.878 161.107,233.996 161.107 L 238.672 161.107 238.494 159.382 C 238.048 155.061,233.994 152.781,230.256 154.749 M242.583 154.557 C 239.028 156.389,240.075 159.832,244.581 161.127 C 247.903 162.082,248.117 162.208,248.117 163.205 C 248.117 165.966,243.153 165.740,242.219 162.937 C 242.141 162.704,241.785 162.675,241.127 162.848 L 240.150 163.105 240.741 164.422 C 242.607 168.582,250.496 167.353,250.379 162.921 C 250.334 161.183,249.398 160.313,246.753 159.549 C 242.655 158.367,241.911 157.746,243.064 156.473 C 244.127 155.298,247.809 155.955,247.809 157.320 C 247.809 157.783,249.450 157.724,249.931 157.243 C 250.208 156.966,249.252 155.522,248.344 154.848 C 247.148 153.960,244.045 153.803,242.583 154.557 M169.097 154.573 C 169.095 154.700,170.099 157.471,171.326 160.731 L 173.559 166.657 174.604 166.572 L 175.650 166.487 177.907 160.492 C 179.148 157.194,180.165 154.462,180.167 154.420 C 180.168 154.377,179.695 154.343,179.115 154.343 C 177.938 154.343,178.283 153.693,175.699 160.771 C 174.857 163.079,174.474 163.808,174.328 163.385 C 174.217 163.062,173.464 160.895,172.655 158.570 L 171.184 154.343 170.142 154.343 C 169.569 154.343,169.099 154.447,169.097 154.573 M194.934 158.570 C 194.943 163.511,195.219 165.007,196.296 165.936 C 197.848 167.275,200.640 167.227,202.297 165.833 L 203.228 165.049 203.228 165.845 C 203.228 166.525,203.363 166.641,204.151 166.641 L 205.073 166.641 205.073 160.492 L 205.073 154.343 203.997 154.343 L 202.921 154.343 202.921 158.294 C 202.921 163.771,202.269 165.104,199.588 165.104 C 197.507 165.104,197.245 164.467,197.128 159.136 L 197.024 154.343 195.975 154.343 L 194.927 154.343 194.934 158.570 M216.141 160.492 L 216.141 166.641 217.218 166.641 L 218.294 166.641 218.294 160.492 L 218.294 154.343 217.218 154.343 L 216.141 154.343 216.141 160.492 M97.986 156.572 C 101.429 160.352,98.097 167.471,94.287 164.475 C 91.483 162.269,92.815 155.880,96.080 155.880 C 97.012 155.880,97.526 156.067,97.986 156.572 M111.093 156.509 C 113.068 158.062,112.981 163.184,110.956 164.602 C 108.575 166.270,106.072 164.182,106.072 160.527 C 106.072 156.560,108.593 154.542,111.093 156.509 M137.674 156.360 C 140.811 158.557,139.420 165.104,135.816 165.104 C 132.927 165.104,131.291 161.452,132.679 158.099 C 133.542 156.015,135.973 155.169,137.674 156.360 M188.916 156.360 C 192.097 158.444,190.647 165.104,187.012 165.104 C 184.748 165.104,183.551 163.509,183.551 160.492 C 183.551 156.730,186.277 154.630,188.916 156.360 M234.860 156.381 C 235.454 156.797,236.434 158.489,236.434 159.099 C 236.434 159.188,234.912 159.262,233.051 159.262 C 229.411 159.262,229.227 159.164,230.013 157.628 C 230.874 155.944,233.333 155.312,234.860 156.381 M86.088 161.737 C 86.088 164.420,82.392 166.450,80.447 164.836 C 78.817 163.483,80.037 161.870,83.167 161.243 C 86.041 160.666,86.088 160.674,86.088 161.737 M164.796 161.988 C 164.796 164.737,161.007 166.497,159.130 164.620 C 157.801 163.291,158.874 161.928,161.737 161.308 C 164.831 160.638,164.796 160.631,164.796 161.988 M218.049 193.050 C 215.808 193.824,214.309 195.125,213.221 197.241 L 212.298 199.034 212.298 213.682 L 212.298 228.329 213.224 230.139 C 214.316 232.275,216.084 233.751,218.363 234.427 C 220.747 235.135,288.399 235.135,290.784 234.427 C 293.062 233.751,294.831 232.275,295.923 230.139 L 296.849 228.329 296.849 213.682 L 296.849 199.034 295.923 197.224 C 294.831 195.088,293.062 193.613,290.784 192.936 C 288.138 192.151,220.347 192.256,218.049 193.050 M138.048 213.528 L 138.048 221.983 139.124 221.983 L 140.200 221.983 140.200 217.817 C 140.200 212.419,140.810 211.222,143.562 211.222 C 145.613 211.222,145.877 211.872,145.986 217.190 L 146.085 221.983 147.171 221.983 L 148.257 221.983 148.148 216.973 C 148.057 212.759,147.951 211.827,147.478 211.106 C 146.298 209.306,142.984 208.875,141.090 210.275 L 140.200 210.933 140.200 208.003 L 140.200 205.073 139.124 205.073 L 138.048 205.073 138.048 213.528 M234.896 213.374 L 234.896 220.446 233.974 220.446 L 233.051 220.446 233.051 213.374 L 233.051 206.303 233.974 206.303 L 234.896 206.303 234.896 213.374 M281.015 213.682 L 284.399 220.446 277.634 220.446 C 273.913 220.446,270.869 220.377,270.869 220.294 C 270.869 220.092,277.450 206.918,277.551 206.918 C 277.594 206.918,279.153 209.962,281.015 213.682 M104.228 209.705 C 99.722 211.594,99.323 219.315,103.613 221.601 C 106.431 223.103,110.356 222.006,111.463 219.407 C 111.979 218.195,110.281 217.305,109.631 218.446 C 107.883 221.515,103.774 220.990,103.014 217.602 L 102.755 216.449 107.334 216.449 L 111.914 216.449 111.907 215.142 C 111.887 211.170,107.739 208.234,104.228 209.705 M128.978 209.795 C 124.566 211.836,124.612 219.970,129.045 221.867 C 131.984 223.125,135.347 221.586,136.206 218.590 C 136.414 217.867,136.349 217.708,135.789 217.557 C 134.621 217.244,134.413 217.351,134.051 218.446 C 133.147 221.184,129.479 221.166,128.330 218.417 C 127.407 216.208,127.997 212.759,129.475 211.724 C 131.064 210.611,134.051 211.604,134.051 213.245 C 134.051 213.719,135.661 213.712,136.137 213.235 C 136.416 212.957,135.090 210.774,134.285 210.186 C 133.219 209.407,130.283 209.190,128.978 209.795 M153.849 209.710 C 152.103 210.216,150.385 212.513,151.312 213.101 C 151.953 213.506,153.113 213.423,153.113 212.971 C 153.113 211.417,156.641 210.559,158.288 211.713 C 159.702 212.703,159.118 214.398,157.264 214.688 C 151.836 215.535,150.653 216.247,150.653 218.663 C 150.653 221.892,154.074 223.308,157.583 221.531 C 159.016 220.806,159.547 220.865,159.565 221.752 C 159.567 221.879,160.069 221.983,160.679 221.983 C 161.617 221.983,161.752 221.900,161.558 221.445 C 161.432 221.149,161.265 218.832,161.188 216.295 C 161.031 211.168,160.828 210.537,159.094 209.813 C 157.943 209.332,155.330 209.280,153.849 209.710 M168.185 209.721 C 167.765 209.888,167.177 210.246,166.878 210.517 C 166.373 210.974,166.334 210.962,166.334 210.347 C 166.334 209.795,166.154 209.685,165.257 209.685 L 164.181 209.685 164.181 215.834 L 164.181 221.983 165.257 221.983 L 166.334 221.983 166.341 218.524 C 166.353 212.890,167.123 211.222,169.710 211.222 C 171.862 211.222,172.175 212.009,172.175 217.413 L 172.175 221.983 173.251 221.983 L 174.327 221.983 174.327 217.187 C 174.327 210.178,172.526 207.988,168.185 209.721 M180.015 209.794 C 177.973 210.740,176.787 212.932,176.787 215.764 C 176.787 220.435,180.618 223.313,184.247 221.368 L 185.396 220.752 185.396 222.006 C 185.396 225.143,180.191 226.455,179.208 223.566 C 179.145 223.379,178.622 223.133,178.046 223.018 L 176.998 222.809 177.199 223.857 C 178.006 228.056,186.049 227.828,187.231 223.572 C 187.404 222.952,187.545 219.573,187.546 216.065 L 187.548 209.685 186.626 209.685 C 185.898 209.685,185.703 209.819,185.703 210.321 C 185.703 210.953,185.698 210.953,184.742 210.272 C 183.566 209.434,181.290 209.205,180.015 209.794 M193.236 209.956 C 188.667 212.054,188.820 219.876,193.468 221.818 C 196.452 223.065,201.076 221.149,201.076 218.666 C 201.076 218.141,199.130 217.830,198.963 218.329 C 198.040 221.100,193.735 221.160,192.589 218.417 C 191.751 216.412,191.672 216.449,196.814 216.449 L 201.467 216.449 201.270 214.988 C 200.668 210.528,196.997 208.229,193.236 209.956 M114.867 211.760 C 115.675 212.902,116.613 214.216,116.951 214.681 L 117.564 215.527 115.339 218.755 L 113.113 221.983 114.441 221.983 C 115.754 221.983,115.785 221.958,117.096 219.833 C 118.842 217.003,118.722 217.009,120.517 219.668 C 122.028 221.908,122.119 221.983,123.317 221.983 C 124.229 221.983,124.494 221.882,124.320 221.599 C 124.191 221.387,123.214 219.978,122.150 218.467 C 119.850 215.202,119.897 215.591,121.540 213.428 C 122.268 212.468,123.177 211.234,123.559 210.684 L 124.254 209.685 123.019 209.685 C 121.850 209.685,121.707 209.792,120.357 211.684 C 118.727 213.968,118.776 213.971,117.263 211.519 C 116.155 209.723,116.102 209.685,114.764 209.685 L 113.397 209.685 114.867 211.760 M230.263 211.048 C 231.514 212.247,231.658 213.019,230.677 213.265 C 230.131 213.402,229.814 213.314,229.622 212.972 C 227.637 209.425,223.607 212.510,224.738 216.710 C 225.461 219.395,229.669 219.651,229.669 217.010 C 229.669 216.591,229.904 216.449,230.592 216.449 C 232.206 216.449,231.304 218.980,229.325 220.004 C 224.957 222.263,220.788 216.638,223.433 212.055 C 224.707 209.848,228.437 209.298,230.263 211.048 M243.806 210.531 C 248.349 212.813,246.579 220.445,241.507 220.445 C 238.469 220.445,236.584 218.129,236.835 214.704 C 237.119 210.824,240.437 208.838,243.806 210.531 M254.100 210.468 C 255.103 210.944,255.967 212.246,255.635 212.782 C 255.300 213.325,254.198 213.063,253.596 212.298 C 252.510 210.917,249.203 211.447,249.765 212.912 C 249.971 213.450,250.664 213.769,253.042 214.422 C 255.881 215.201,256.928 216.989,255.631 218.842 C 254.017 221.147,249.185 220.936,248.010 218.509 C 247.215 216.867,248.770 216.440,249.913 217.986 C 251.025 219.491,254.266 219.136,254.266 217.510 C 254.266 216.890,253.139 216.270,251.197 215.821 C 248.235 215.136,247.043 213.202,248.467 211.392 C 249.601 209.950,252.133 209.535,254.100 210.468 M264.591 210.486 C 265.842 211.080,266.730 212.446,267.020 214.220 L 267.233 215.527 263.363 215.527 C 259.107 215.527,259.023 215.572,259.957 217.377 C 260.899 219.199,263.236 219.511,264.519 217.986 C 265.975 216.255,267.615 216.958,266.230 218.719 C 263.184 222.591,257.455 220.094,257.704 215.004 C 257.903 210.925,261.099 208.829,264.591 210.486 M108.189 211.724 C 108.782 212.139,109.762 213.831,109.762 214.441 C 109.762 214.531,108.240 214.604,106.380 214.604 C 102.462 214.604,102.084 214.226,104.043 212.267 C 105.239 211.071,106.939 210.848,108.189 211.724 M183.882 211.616 C 186.086 213.321,186.082 218.641,183.876 219.822 C 181.332 221.183,178.939 219.178,178.939 215.685 C 178.939 212.253,181.732 209.954,183.882 211.616 M197.831 211.914 C 198.263 212.294,198.703 213.055,198.809 213.605 L 199.001 214.604 195.580 214.604 C 193.699 214.604,192.160 214.531,192.160 214.441 C 192.160 211.886,195.904 210.218,197.831 211.914 M239.668 212.264 C 237.515 214.417,238.765 218.909,241.516 218.909 C 243.383 218.909,244.427 217.585,244.427 215.219 C 244.427 212.003,241.653 210.280,239.668 212.264 M260.289 212.476 C 259.105 213.882,259.244 213.989,262.260 213.989 C 265.344 213.989,265.687 213.699,264.272 212.284 C 263.133 211.145,261.336 211.231,260.289 212.476 M158.955 217.330 C 158.955 220.079,155.165 221.839,153.288 219.962 C 151.959 218.633,153.032 217.270,155.896 216.650 C 158.990 215.980,158.955 215.973,158.955 217.330 M135.491 272.876 C 135.015 273.472,133.874 274.385,132.955 274.904 C 131.443 275.756,131.284 275.947,131.284 276.893 C 131.284 278.190,131.367 278.189,133.568 276.864 C 134.551 276.272,135.407 275.788,135.472 275.788 C 135.536 275.788,135.588 278.693,135.588 282.244 L 135.588 288.701 136.664 288.701 L 137.740 288.701 137.740 280.246 L 137.740 271.791 137.048 271.791 C 136.625 271.791,136.021 272.212,135.491 272.876 M146.037 277.313 C 143.594 280.827,142.163 283.174,142.102 283.769 L 142.006 284.704 145.715 284.704 L 149.424 284.704 149.424 286.703 L 149.424 288.701 150.500 288.701 L 151.576 288.701 151.576 286.703 L 151.576 284.704 152.806 284.704 C 153.967 284.704,154.035 284.653,154.035 283.782 C 154.035 282.911,153.967 282.859,152.806 282.859 L 151.576 282.859 151.576 277.325 L 151.576 271.791 150.726 271.791 C 149.972 271.791,149.444 272.413,146.037 277.313 M159.401 272.206 C 156.665 273.448,155.876 276.768,157.848 278.739 C 158.423 279.314,158.779 279.785,158.640 279.785 C 157.972 279.785,156.475 281.485,156.180 282.579 C 155.267 285.971,157.857 289.008,161.664 289.008 C 166.765 289.008,169.220 282.903,165.198 280.218 L 164.217 279.562 164.934 279.179 C 169.406 276.785,164.085 270.081,159.401 272.206 M171.103 272.483 C 171.031 272.694,170.644 274.625,170.244 276.774 L 169.515 280.682 170.387 280.873 C 171.054 281.020,171.480 280.879,172.202 280.271 C 175.896 277.163,180.402 282.688,176.972 286.118 C 175.211 287.879,172.637 287.422,171.702 285.184 C 171.182 283.939,168.907 283.882,169.277 285.123 C 170.522 289.303,175.926 290.395,178.854 287.060 C 182.826 282.537,178.419 275.786,172.979 278.059 L 171.957 278.486 172.376 276.489 C 172.938 273.806,172.725 273.943,176.344 273.943 L 179.554 273.943 179.554 273.021 L 179.554 272.098 175.394 272.098 C 172.340 272.098,171.199 272.201,171.103 272.483 M163.470 274.304 C 164.541 275.310,164.471 277.360,163.336 278.254 C 161.541 279.670,158.955 278.432,158.955 276.158 C 158.955 273.866,161.772 272.709,163.470 274.304 M149.424 279.170 L 149.424 282.859 146.938 282.859 C 145.571 282.859,144.499 282.733,144.555 282.579 C 144.676 282.250,149.234 275.508,149.347 275.491 C 149.389 275.485,149.424 277.141,149.424 279.170 M291.531 277.594 C 289.286 278.378,287.790 279.679,286.703 281.791 L 285.780 283.584 285.693 300.941 C 285.587 322.278,285.673 322.722,290.383 325.131 L 292.193 326.057 306.072 326.057 L 319.951 326.057 321.761 325.131 C 326.419 322.749,326.518 322.258,326.518 301.614 C 326.518 280.971,326.419 280.480,321.762 278.097 L 319.953 277.171 306.556 277.098 C 294.202 277.031,293.032 277.069,291.531 277.594 M163.946 281.604 C 164.808 282.375,164.950 282.704,164.950 283.935 C 164.950 287.657,159.346 288.494,158.394 284.915 C 157.503 281.568,161.342 279.278,163.946 281.604 M308.521 295.758 C 311.234 299.340,311.174 299.154,309.608 299.154 L 308.378 299.154 308.378 303.749 L 308.378 308.344 309.755 308.438 L 311.131 308.532 308.674 311.760 C 305.656 315.726,306.196 315.700,303.459 312.008 C 300.603 308.155,300.671 308.378,302.357 308.378 L 303.766 308.378 303.766 303.783 L 303.766 299.188 302.405 299.094 L 301.043 299.001 303.395 295.849 C 306.231 292.048,305.718 292.057,308.521 295.758 M70.715 304.689 C 70.715 305.302,70.920 305.304,169.101 305.304 C 267.282 305.304,267.487 305.302,267.487 304.689 C 267.487 304.075,267.282 304.074,169.101 304.074 C 70.920 304.074,70.715 304.075,70.715 304.689 M77.425 320.039 C 72.571 321.599,70.449 326.814,72.409 332.369 C 74.550 338.438,83.342 339.108,86.099 333.413 C 86.822 331.918,86.730 331.632,85.427 331.325 C 84.695 331.153,84.541 331.280,83.890 332.592 C 82.057 336.288,76.838 336.242,74.892 332.513 C 72.044 327.055,76.179 320.258,81.311 321.963 C 82.426 322.333,82.826 322.740,84.089 324.791 C 84.424 325.335,86.100 325.096,86.308 324.475 C 86.519 323.840,84.389 321.177,83.173 320.554 C 81.839 319.871,78.796 319.599,77.425 320.039 M89.470 328.517 L 89.470 336.972 90.699 336.972 L 91.929 336.972 91.929 332.975 L 91.929 328.978 96.234 328.978 L 100.538 328.978 100.538 332.975 L 100.538 336.972 101.614 336.972 L 102.690 336.972 102.690 328.517 L 102.690 320.061 101.614 320.061 L 100.538 320.061 100.538 323.597 L 100.538 327.133 96.234 327.133 L 91.929 327.133 91.929 323.597 L 91.929 320.061 90.699 320.061 L 89.470 320.061 89.470 328.517 M106.687 328.517 L 106.687 336.972 107.754 336.972 L 108.820 336.972 108.907 333.205 L 108.993 329.439 112.913 329.353 L 116.833 329.267 116.833 328.354 L 116.833 327.440 112.824 327.440 L 108.815 327.440 108.904 324.750 L 108.993 322.060 113.528 321.975 L 118.063 321.890 118.063 320.976 L 118.063 320.061 112.375 320.061 L 106.687 320.061 106.687 328.517 M129.885 320.494 C 128.383 321.148,126.431 323.920,127.042 324.531 C 127.598 325.088,129.131 325.012,129.131 324.428 C 129.131 323.176,130.589 321.906,132.026 321.906 C 135.529 321.906,135.658 326.463,132.171 327.021 C 130.222 327.332,130.239 328.978,132.191 328.978 C 135.430 328.978,136.785 332.577,134.324 334.647 C 132.651 336.055,129.151 335.263,129.127 333.471 C 129.115 332.631,128.585 332.296,127.607 332.511 C 124.816 333.124,128.748 337.255,132.139 337.272 C 137.508 337.300,140.049 329.692,135.242 327.982 C 134.940 327.874,135.058 327.640,135.654 327.161 C 139.444 324.117,134.550 318.462,129.885 320.494 M142.760 320.657 C 140.926 321.490,139.247 324.384,140.235 325.009 C 141.230 325.639,141.938 325.319,142.312 324.070 C 143.319 320.711,148.501 321.327,148.501 324.805 C 148.501 326.161,147.274 327.785,144.310 330.352 C 137.682 336.093,137.789 336.972,145.119 336.972 L 150.653 336.972 150.653 336.049 L 150.653 335.127 146.656 335.127 C 144.458 335.127,142.659 335.009,142.659 334.866 C 142.659 334.722,144.232 333.136,146.155 331.341 C 149.905 327.840,150.654 326.721,150.652 324.627 C 150.649 321.053,146.493 318.962,142.760 320.657 M156.034 320.497 C 151.257 322.629,152.043 330.366,157.106 331.045 C 158.632 331.250,159.487 331.029,160.913 330.061 L 162.057 329.285 161.870 330.438 C 161.049 335.493,156.444 337.630,155.393 333.444 C 155.242 332.842,155.003 332.667,154.328 332.667 C 151.576 332.667,154.287 336.868,157.255 337.202 C 161.613 337.693,163.912 334.608,163.923 328.252 C 163.935 321.957,160.446 318.528,156.034 320.497 M175.712 320.546 C 173.586 321.654,172.732 323.083,172.709 325.567 C 172.667 330.173,177.452 332.811,180.775 330.014 L 181.706 329.231 181.706 329.971 C 181.706 334.969,176.422 337.683,175.111 333.359 C 174.858 332.524,173.490 332.396,173.189 333.179 C 172.604 334.706,175.379 337.279,177.611 337.279 C 182.211 337.279,184.935 331.773,183.572 325.230 C 182.728 321.180,178.887 318.890,175.712 320.546 M160.274 322.526 C 162.861 324.560,161.624 329.285,158.504 329.285 C 156.196 329.285,154.741 327.496,155.101 325.100 C 155.510 322.371,158.308 320.979,160.274 322.526 M180.056 322.451 C 181.928 323.968,181.820 327.929,179.879 328.969 C 176.272 330.899,173.039 325.900,175.988 322.952 C 177.193 321.747,178.924 321.534,180.056 322.451 M167.256 335.742 L 167.256 336.972 168.486 336.972 L 169.716 336.972 169.716 335.742 L 169.716 334.512 168.486 334.512 L 167.256 334.512 167.256 335.742 " stroke="none" fill="#e4ebfa" fill-rule="evenodd"></path><path id="path1" d="M280.787 39.254 C 277.125 40.009,276.264 50.494,279.679 52.732 C 283.324 55.120,286.088 52.334,286.088 46.272 C 286.088 40.687,284.437 38.502,280.787 39.254 M293.005 39.353 C 293.005 39.904,290.869 42.040,289.928 42.430 C 289.130 42.760,289.008 42.969,289.008 44.003 C 289.008 45.461,289.154 45.470,291.130 44.141 L 292.698 43.085 292.698 48.138 L 292.698 53.190 293.928 53.190 L 295.158 53.190 295.158 46.118 L 295.158 39.047 294.081 39.047 C 293.490 39.047,293.005 39.185,293.005 39.353 M302.419 39.355 C 300.896 39.828,299.042 42.214,299.692 42.864 C 300.175 43.347,301.574 42.997,302.047 42.275 C 302.601 41.429,304.259 41.200,304.935 41.875 C 305.781 42.722,304.932 44.581,303.698 44.581 C 303.181 44.581,302.844 45.197,302.844 46.144 C 302.844 46.611,303.064 46.733,303.903 46.733 C 305.739 46.733,306.635 49.092,305.304 50.423 C 304.192 51.534,301.614 50.825,301.614 49.408 C 301.614 49.131,301.276 49.048,300.507 49.138 C 298.432 49.380,300.046 52.519,302.599 53.207 C 307.062 54.408,310.622 48.104,306.618 46.088 L 305.642 45.596 306.522 44.946 C 309.549 42.708,306.222 38.176,302.419 39.355 M255.100 40.354 C 250.521 46.580,249.654 47.987,249.654 49.194 L 249.654 50.423 252.575 50.423 L 255.496 50.423 255.496 51.806 C 255.496 53.183,255.501 53.190,256.572 53.190 C 257.642 53.190,257.648 53.183,257.648 51.806 C 257.648 50.474,257.682 50.423,258.570 50.423 C 259.441 50.423,259.493 50.354,259.493 49.193 C 259.493 48.031,259.441 47.963,258.570 47.963 L 257.648 47.963 257.648 43.659 L 257.648 39.354 256.741 39.354 C 256.074 39.354,255.640 39.618,255.100 40.354 M268.265 39.739 C 268.196 39.950,267.875 41.667,267.552 43.554 L 266.963 46.984 267.971 47.102 C 268.525 47.166,269.223 47.041,269.521 46.823 C 271.169 45.617,273.328 46.739,273.328 48.800 C 273.328 51.203,270.395 51.927,269.272 49.801 C 268.602 48.531,266.572 48.959,266.922 50.297 C 267.772 53.539,272.218 54.424,274.515 51.809 C 277.448 48.468,274.677 43.093,270.621 44.256 C 269.560 44.561,269.428 44.321,269.833 42.813 C 270.006 42.166,270.182 42.121,272.595 42.121 L 275.173 42.121 275.173 40.738 L 275.173 39.354 271.781 39.354 C 269.339 39.354,268.355 39.462,268.265 39.739 M157.264 41.031 C 157.095 41.094,156.572 41.230,156.103 41.334 C 153.044 42.009,151.087 46.775,152.209 50.815 C 153.672 56.082,161.337 56.821,163.396 51.894 L 163.864 50.775 162.799 50.423 C 161.702 50.061,161.107 50.197,161.107 50.808 C 161.107 51.743,159.454 52.882,158.098 52.882 C 155.405 52.882,153.799 49.816,154.635 46.272 C 155.408 42.996,160.158 42.196,161.151 45.174 C 161.250 45.472,161.628 45.521,162.574 45.362 L 163.863 45.144 163.370 44.171 C 162.232 41.923,159.139 40.333,157.264 41.031 M166.641 48.271 L 166.641 55.342 167.871 55.342 L 169.101 55.342 169.101 52.267 L 169.101 49.193 172.022 49.193 L 174.942 49.193 174.942 52.267 L 174.942 55.342 176.172 55.342 L 177.402 55.342 177.402 48.271 L 177.402 41.199 176.172 41.199 L 174.942 41.199 174.942 43.966 L 174.942 46.733 172.022 46.733 L 169.101 46.733 169.101 43.966 L 169.101 41.199 167.871 41.199 L 166.641 41.199 166.641 48.271 M180.784 48.271 L 180.784 55.342 182.014 55.342 L 183.244 55.342 183.244 52.267 L 183.244 49.193 186.164 49.193 L 189.085 49.193 189.085 47.963 L 189.085 46.733 186.164 46.733 L 183.244 46.733 183.244 45.196 L 183.244 43.659 186.626 43.659 L 190.008 43.659 190.008 42.429 L 190.008 41.199 185.396 41.199 L 180.784 41.199 180.784 48.271 M283.345 42.476 C 283.990 43.723,283.874 49.724,283.190 50.549 C 282.546 51.324,280.973 51.073,280.474 50.115 C 279.924 49.059,280.076 42.726,280.668 42.014 C 281.401 41.132,282.772 41.369,283.345 42.476 M255.496 45.657 L 255.496 47.963 253.659 47.963 L 251.823 47.963 253.429 45.663 C 255.417 42.814,255.496 42.814,255.496 45.657 M261.645 51.806 L 261.645 53.190 262.875 53.190 L 264.105 53.190 264.105 51.806 L 264.105 50.423 262.875 50.423 L 261.645 50.423 261.645 51.806 M250.884 68.829 L 250.884 75.942 252.114 75.942 L 253.344 75.942 253.344 73.374 L 253.344 70.806 255.799 70.617 C 259.781 70.310,261.162 69.187,261.162 66.257 C 261.162 62.943,259.868 62.062,254.708 61.863 L 250.884 61.716 250.884 68.829 M264.105 68.870 L 264.105 75.942 268.870 75.942 L 273.636 75.942 273.636 74.712 L 273.636 73.482 270.100 73.482 L 266.564 73.482 266.564 67.640 L 266.564 61.799 265.334 61.799 L 264.105 61.799 264.105 68.870 M275.788 68.870 L 275.788 75.942 277.010 75.942 L 278.231 75.942 278.316 71.253 L 278.401 66.564 281.322 71.253 L 284.243 75.941 285.550 75.942 L 286.856 75.942 286.856 68.870 L 286.856 61.799 285.626 61.799 L 284.397 61.799 284.397 66.410 C 284.397 68.947,284.293 71.019,284.166 71.015 C 284.039 71.011,282.690 68.940,281.168 66.414 L 278.401 61.821 277.095 61.810 L 275.788 61.799 275.788 68.870 M154.193 63.482 C 150.608 64.788,151.714 68.184,156.040 69.152 C 160.137 70.069,160.290 73.021,156.239 73.021 C 154.262 73.021,152.806 72.162,152.806 70.997 C 152.806 70.616,152.631 70.511,152.191 70.626 C 151.458 70.817,151.463 70.773,152.013 72.088 C 153.405 75.420,160.184 74.732,160.184 71.258 C 160.184 69.391,159.119 68.593,155.356 67.643 C 153.188 67.096,152.565 66.036,153.728 64.873 C 155.038 63.563,158.647 64.352,158.647 65.949 C 158.647 66.469,158.912 66.525,159.527 66.136 C 161.506 64.882,156.790 62.536,154.193 63.482 M173.713 63.797 C 173.713 64.361,173.877 64.566,174.327 64.566 C 174.778 64.566,174.942 64.361,174.942 63.797 C 174.942 63.233,174.778 63.028,174.327 63.028 C 173.877 63.028,173.713 63.233,173.713 63.797 M198.689 63.406 C 198.213 63.635,197.934 64.114,197.804 64.922 C 197.663 65.804,197.470 66.103,197.040 66.103 C 196.723 66.103,196.464 66.311,196.464 66.564 C 196.464 66.820,196.738 67.025,197.079 67.025 C 197.660 67.025,197.694 67.230,197.694 70.715 C 197.694 74.199,197.728 74.404,198.309 74.404 C 198.890 74.404,198.924 74.199,198.924 70.715 L 198.924 67.025 199.693 67.025 C 200.171 67.025,200.461 66.851,200.461 66.564 C 200.461 66.274,200.169 66.103,199.672 66.103 C 198.535 66.103,198.693 64.466,199.846 64.304 C 200.746 64.178,201.204 63.608,200.676 63.272 C 200.181 62.957,199.528 63.001,198.689 63.406 M257.887 64.737 C 259.833 66.100,258.274 68.255,255.342 68.255 L 253.344 68.255 253.344 66.257 L 253.344 64.258 255.274 64.258 C 256.523 64.258,257.445 64.427,257.887 64.737 M162.376 69.101 C 162.871 70.749,163.416 72.617,163.587 73.251 C 163.809 74.076,164.066 74.404,164.489 74.404 C 165.107 74.404,165.131 74.343,166.200 70.027 C 166.846 67.423,166.971 67.520,167.866 71.311 C 168.906 75.713,169.314 75.598,170.932 70.449 C 172.352 65.932,172.321 66.103,171.727 66.103 C 171.435 66.103,171.053 66.880,170.632 68.332 C 169.138 73.482,169.224 73.455,168.207 69.101 C 167.228 64.916,166.716 64.960,165.558 69.331 C 164.667 72.692,164.386 73.135,164.046 71.714 C 163.002 67.359,162.550 66.103,162.026 66.103 C 161.520 66.103,161.549 66.349,162.376 69.101 M173.713 70.254 C 173.713 74.199,173.743 74.404,174.327 74.404 C 174.912 74.404,174.942 74.199,174.942 70.254 C 174.942 66.308,174.912 66.103,174.327 66.103 C 173.743 66.103,173.713 66.308,173.713 70.254 M178.324 66.631 C 175.966 67.832,176.714 69.777,179.897 70.725 C 181.517 71.208,182.014 71.488,182.014 71.920 C 182.014 73.343,179.311 73.855,178.312 72.621 C 177.747 71.923,176.787 71.699,176.787 72.266 C 176.787 73.673,179.703 74.736,181.502 73.984 C 184.276 72.825,183.680 70.636,180.316 69.626 C 178.186 68.987,177.520 68.322,178.264 67.578 C 178.784 67.057,180.710 67.171,181.362 67.760 C 182.405 68.704,183.203 68.285,182.296 67.270 C 181.311 66.168,179.732 65.914,178.324 66.631 M186.653 66.372 C 183.910 67.139,184.420 69.577,187.535 70.585 C 189.811 71.321,190.426 71.965,189.623 72.769 C 188.867 73.525,187.110 73.448,186.230 72.621 C 185.420 71.860,184.781 71.742,184.781 72.352 C 184.781 74.255,189.671 74.952,190.617 73.184 C 191.616 71.318,190.934 70.405,187.855 69.492 C 186.543 69.102,186.143 68.839,186.066 68.316 C 185.873 66.989,188.612 66.707,189.492 67.963 C 189.746 68.325,190.029 68.432,190.298 68.266 C 190.940 67.869,190.438 67.045,189.253 66.550 C 188.105 66.071,187.803 66.050,186.653 66.372 M201.691 70.254 C 201.691 74.199,201.721 74.404,202.306 74.404 C 202.879 74.404,202.921 74.199,202.921 71.389 C 202.921 67.915,203.223 67.222,204.720 67.264 C 205.814 67.295,206.076 66.575,205.085 66.260 C 204.431 66.053,203.228 66.556,203.228 67.036 C 203.228 67.199,203.090 67.333,202.921 67.333 C 202.752 67.333,202.613 67.056,202.613 66.718 C 202.613 66.376,202.408 66.103,202.152 66.103 C 201.765 66.103,201.691 66.769,201.691 70.254 M208.853 66.443 C 207.572 66.814,206.276 68.563,207.282 68.563 C 207.483 68.563,207.971 68.258,208.367 67.886 C 209.630 66.700,212.145 67.163,212.145 68.582 C 212.145 69.321,211.980 69.400,209.662 69.769 C 206.804 70.225,205.784 71.779,207.198 73.525 C 207.913 74.407,210.114 74.491,211.346 73.683 C 212.340 73.032,212.452 73.043,212.452 73.789 C 212.452 74.170,212.657 74.404,212.990 74.405 C 213.442 74.405,213.539 68.172,213.104 67.087 C 212.824 66.388,210.343 66.013,208.853 66.443 M215.834 70.254 C 215.834 73.738,215.908 74.404,216.295 74.404 C 216.669 74.404,216.756 73.911,216.756 71.805 C 216.756 68.786,217.112 67.791,218.348 67.360 C 220.489 66.614,221.061 67.488,221.061 71.509 C 221.061 73.878,221.145 74.404,221.522 74.404 C 222.288 74.404,222.183 67.956,221.401 66.990 C 220.677 66.096,218.651 65.991,217.756 66.802 C 216.993 67.492,216.756 67.472,216.756 66.718 C 216.756 66.376,216.551 66.103,216.295 66.103 C 215.908 66.103,215.834 66.769,215.834 70.254 M226.320 66.493 C 222.358 67.930,224.157 75.005,228.287 74.230 C 229.292 74.042,230.899 72.621,230.899 71.921 C 230.899 71.381,229.710 71.639,229.526 72.219 C 228.711 74.788,225.365 73.208,225.365 70.254 C 225.365 67.367,228.729 65.776,229.526 68.286 C 229.716 68.887,230.592 68.752,230.592 68.122 C 230.592 66.827,228.060 65.862,226.320 66.493 M212.145 71.154 C 212.145 72.926,210.081 74.044,208.435 73.164 C 206.585 72.174,208.318 70.664,211.914 70.134 C 212.041 70.115,212.145 70.574,212.145 71.154 M51.112 226.979 C 51.189 342.704,51.212 347.024,51.759 348.655 C 53.518 353.893,56.786 357.815,61.210 359.997 C 66.068 362.392,53.231 362.196,199.606 362.108 L 330.976 362.029 333.424 361.164 C 339.183 359.128,343.142 355.161,345.190 349.371 L 346.042 346.964 346.121 226.979 L 346.200 106.995 198.616 106.995 L 51.032 106.995 51.112 226.979 M286.939 143.519 C 287.661 143.838,288.703 144.578,289.254 145.163 L 290.257 146.225 291.558 144.981 C 296.881 139.886,305.295 143.926,304.935 151.404 C 304.754 155.181,303.721 156.956,299.308 161.076 C 295.467 164.662,291.875 168.368,291.309 169.331 C 290.590 170.552,290.162 170.588,289.474 169.485 C 289.184 169.020,286.358 166.080,283.194 162.952 C 277.370 157.194,276.629 156.216,275.822 153.231 C 274.006 146.510,280.626 140.726,286.939 143.519 M280.775 144.558 C 274.951 147.382,275.532 154.366,282.084 160.298 C 283.602 161.673,286.109 164.081,287.653 165.649 L 290.462 168.499 291.237 167.493 C 292.324 166.080,294.536 163.864,298.049 160.667 C 303.444 155.758,304.935 152.362,303.444 148.378 C 301.392 142.893,294.297 142.350,291.153 147.438 C 290.348 148.740,290.113 148.761,289.623 147.577 C 288.371 144.555,283.917 143.035,280.775 144.558 M156.490 150.115 C 156.483 151.198,156.121 151.522,154.800 151.630 C 153.596 151.728,153.573 151.753,153.480 153.036 L 153.385 154.343 154.479 154.343 C 155.489 154.343,155.573 154.413,155.573 155.265 C 155.573 156.114,155.487 156.188,154.497 156.188 L 153.420 156.188 153.420 161.414 L 153.420 166.641 152.037 166.641 L 150.653 166.641 150.653 161.435 L 150.653 156.228 149.808 156.131 C 148.496 155.980,148.374 154.343,149.675 154.343 C 150.543 154.343,150.592 154.270,150.791 152.674 C 151.101 150.195,151.991 149.424,154.538 149.424 C 156.364 149.424,156.495 149.470,156.490 150.115 M101.460 158.186 L 101.460 166.641 100.384 166.641 C 99.611 166.641,99.308 166.505,99.308 166.158 C 99.308 165.757,99.170 165.783,98.498 166.311 C 96.633 167.778,93.066 166.871,91.599 164.556 C 88.157 159.130,92.886 151.811,98.094 154.504 L 99.001 154.974 99.001 152.352 L 99.001 149.731 100.231 149.731 L 101.460 149.731 101.460 158.186 M114.681 158.186 L 114.681 166.641 113.451 166.641 C 112.775 166.641,112.221 166.499,112.221 166.326 C 112.221 166.145,111.834 166.211,111.314 166.479 C 106.127 169.162,101.372 161.974,104.642 156.394 C 105.983 154.104,109.539 153.200,111.411 154.673 L 112.221 155.310 112.221 152.520 L 112.221 149.731 113.451 149.731 L 114.681 149.731 114.681 158.186 M218.601 150.961 L 218.601 152.191 217.218 152.191 L 215.834 152.191 215.834 150.961 L 215.834 149.731 217.218 149.731 L 218.601 149.731 218.601 150.961 M126.979 152.191 L 126.979 154.343 128.076 154.343 C 129.658 154.343,129.569 155.977,127.978 156.130 L 126.979 156.227 126.979 160.511 L 126.979 164.796 128.020 164.796 C 128.943 164.796,129.077 164.902,129.197 165.720 C 129.372 166.910,129.319 166.949,127.486 166.949 C 124.732 166.949,124.520 166.515,124.520 160.900 L 124.520 156.188 123.751 156.188 C 123.102 156.188,122.982 156.044,122.982 155.265 C 122.982 154.486,123.102 154.343,123.751 154.343 C 124.474 154.343,124.520 154.246,124.520 152.723 C 124.520 151.288,124.616 151.043,125.365 150.579 C 126.818 149.678,126.979 149.839,126.979 152.191 M224.135 152.191 L 224.135 154.343 225.232 154.343 C 226.814 154.343,226.725 155.977,225.135 156.130 L 224.135 156.227 224.135 160.511 L 224.135 164.796 225.176 164.796 C 226.099 164.796,226.233 164.902,226.353 165.720 C 226.528 166.910,226.475 166.949,224.642 166.949 C 221.888 166.949,221.676 166.515,221.676 160.900 L 221.676 156.188 220.907 156.188 C 220.258 156.188,220.138 156.044,220.138 155.265 C 220.138 154.486,220.258 154.343,220.907 154.343 C 221.630 154.343,221.676 154.246,221.676 152.723 C 221.676 151.288,221.772 151.043,222.521 150.579 C 223.974 149.678,224.135 149.839,224.135 152.191 M86.505 154.496 C 88.180 155.291,88.362 155.882,88.539 161.107 C 88.628 163.728,88.813 166.045,88.950 166.257 C 89.136 166.544,88.852 166.641,87.830 166.641 C 86.912 166.641,86.404 166.493,86.288 166.191 C 86.142 165.810,85.895 165.839,84.676 166.378 C 81.117 167.952,77.479 166.485,77.479 163.476 C 77.479 161.133,78.862 160.018,82.362 159.543 C 85.756 159.081,85.780 159.070,85.780 157.910 C 85.780 155.494,81.147 155.062,80.402 157.409 C 80.145 158.220,77.786 158.340,77.786 157.542 C 77.786 154.854,83.243 152.948,86.505 154.496 M138.258 154.363 C 142.936 156.136,142.936 164.848,138.258 166.621 C 133.834 168.297,129.908 165.415,129.908 160.492 C 129.908 155.571,133.837 152.688,138.258 154.363 M165.247 154.472 C 166.946 155.182,167.256 156.177,167.256 160.918 C 167.256 163.198,167.391 165.419,167.556 165.852 C 167.850 166.626,167.830 166.641,166.480 166.641 C 165.462 166.641,165.104 166.521,165.104 166.180 C 165.104 165.587,165.011 165.597,163.566 166.334 C 160.315 167.993,156.188 166.484,156.188 163.637 C 156.188 161.233,157.515 160.111,160.991 159.576 C 165.006 158.959,164.884 159.014,164.674 157.924 C 164.217 155.558,160.494 155.025,159.387 157.167 C 158.906 158.096,156.859 158.377,156.589 157.550 C 155.828 155.229,161.895 153.072,165.247 154.472 M190.138 154.774 C 193.947 157.006,193.961 164.090,190.161 166.242 C 185.818 168.702,181.116 165.754,181.098 160.559 C 181.080 155.249,185.797 152.230,190.138 154.774 M214.682 154.420 C 215.572 155.100,214.588 156.898,213.542 156.500 C 211.353 155.668,210.607 157.242,210.607 162.690 L 210.607 166.641 209.377 166.641 L 208.148 166.641 208.148 160.492 L 208.148 154.343 209.224 154.343 C 210.037 154.343,210.300 154.472,210.300 154.872 C 210.300 155.327,210.396 155.306,210.983 154.719 C 211.760 153.942,213.837 153.774,214.682 154.420 M235.823 154.606 C 237.233 155.356,238.507 157.473,238.766 159.493 L 238.972 161.107 234.321 161.107 C 229.175 161.107,229.259 161.067,230.106 163.095 C 231.113 165.503,234.711 165.720,235.752 163.436 C 236.193 162.469,238.586 162.224,238.586 163.146 C 238.586 167.665,229.906 168.327,227.797 163.970 C 224.933 158.054,230.376 151.705,235.823 154.606 M248.117 154.574 C 249.159 155.094,250.411 156.938,250.084 157.469 C 249.701 158.088,248.037 157.704,247.194 156.802 C 245.730 155.235,242.691 155.686,242.938 157.435 C 243.031 158.092,243.427 158.310,246.118 159.180 C 250.503 160.597,251.622 162.309,249.954 165.045 C 247.855 168.488,238.859 166.689,240.235 163.102 C 240.554 162.272,242.482 162.510,242.707 163.407 C 243.217 165.438,247.507 165.646,248.005 163.664 C 248.253 162.677,247.747 162.175,246.036 161.712 C 240.785 160.292,239.419 158.727,240.912 155.842 C 241.814 154.097,245.769 153.401,248.117 154.574 M172.943 158.784 C 173.786 161.226,174.566 163.060,174.675 162.858 C 174.785 162.656,175.533 160.657,176.338 158.417 L 177.801 154.343 179.143 154.343 L 180.485 154.343 180.069 155.342 C 179.840 155.892,178.780 158.666,177.713 161.507 L 175.773 166.672 174.550 166.580 L 173.326 166.487 171.213 160.953 C 170.051 157.909,169.022 155.177,168.926 154.881 C 168.778 154.425,168.954 154.343,170.081 154.343 L 171.411 154.343 172.943 158.784 M197.387 158.969 C 197.387 164.837,198.227 166.116,201.105 164.628 C 202.412 163.952,202.613 163.132,202.613 158.473 L 202.613 154.343 203.997 154.343 L 205.380 154.343 205.380 160.492 L 205.380 166.641 204.151 166.641 C 203.268 166.641,202.921 166.512,202.921 166.184 C 202.921 165.812,202.737 165.840,201.922 166.337 C 200.700 167.082,198.064 167.156,196.762 166.482 C 195.158 165.653,194.927 164.745,194.927 159.277 L 194.927 154.343 196.157 154.343 L 197.387 154.343 197.387 158.969 M218.601 160.492 L 218.601 166.641 217.218 166.641 L 215.834 166.641 215.834 160.492 L 215.834 154.343 217.218 154.343 L 218.601 154.343 218.601 160.492 M94.789 156.248 C 93.094 157.067,92.520 161.605,93.860 163.594 C 95.915 166.643,99.154 164.837,99.149 160.646 C 99.145 156.982,97.242 155.063,94.789 156.248 M107.840 156.212 C 105.773 157.416,105.620 162.487,107.598 164.258 C 109.726 166.165,111.970 164.633,112.167 161.137 C 112.390 157.202,110.274 154.794,107.840 156.212 M134.168 156.467 C 131.839 157.887,131.941 163.392,134.319 164.622 C 135.769 165.372,136.756 165.227,137.886 164.097 C 141.261 160.722,138.038 154.107,134.168 156.467 M184.943 156.887 C 181.642 160.187,184.616 166.636,188.510 164.622 C 190.993 163.338,190.972 157.635,188.480 156.346 C 187.060 155.612,186.066 155.764,184.943 156.887 M231.324 156.467 C 230.571 156.926,229.669 158.390,229.669 159.154 C 229.669 159.214,231.137 159.262,232.931 159.262 L 236.193 159.262 235.995 158.417 C 235.501 156.307,233.176 155.337,231.324 156.467 M83.555 161.284 C 80.238 161.944,79.360 162.792,80.381 164.350 C 81.725 166.401,85.780 164.681,85.780 162.060 C 85.780 161.366,85.746 160.816,85.703 160.835 C 85.661 160.855,84.694 161.057,83.555 161.284 M162.029 161.383 C 159.129 162.027,158.955 162.143,158.955 163.420 C 158.955 165.307,161.839 165.833,163.557 164.258 C 164.444 163.444,165.271 160.747,164.605 160.835 C 164.457 160.855,163.297 161.102,162.029 161.383 M291.776 193.106 C 293.633 193.945,295.381 195.671,296.267 197.540 L 296.996 199.078 296.996 213.682 L 296.996 228.286 296.267 229.823 C 295.381 231.693,293.633 233.419,291.776 234.258 C 290.410 234.875,289.922 234.883,254.573 234.886 L 218.755 234.890 217.218 234.161 C 212.314 231.836,212.159 231.209,212.154 213.682 L 212.151 199.078 212.869 197.534 C 213.265 196.685,214.056 195.522,214.628 194.951 C 215.200 194.379,216.362 193.588,217.211 193.192 L 218.755 192.473 254.573 192.477 C 289.922 192.481,290.410 192.489,291.776 193.106 M140.507 207.694 L 140.507 210.316 141.414 209.846 C 142.578 209.245,145.198 209.243,146.359 209.844 C 147.963 210.673,148.194 211.581,148.194 217.049 L 148.194 221.983 146.964 221.983 L 145.734 221.983 145.734 217.357 C 145.734 211.503,144.892 210.211,142.038 211.687 C 140.662 212.398,140.507 213.000,140.507 217.658 L 140.507 221.983 139.124 221.983 L 137.740 221.983 137.740 213.528 L 137.740 205.073 139.124 205.073 L 140.507 205.073 140.507 207.694 M233.359 213.374 C 233.359 220.241,233.377 220.446,233.974 220.446 C 234.571 220.446,234.589 220.241,234.589 213.374 C 234.589 206.508,234.571 206.303,233.974 206.303 C 233.377 206.303,233.359 206.508,233.359 213.374 M274.171 213.836 L 270.870 220.446 277.480 220.446 C 281.115 220.446,284.089 220.375,284.089 220.289 C 284.089 220.084,277.654 207.225,277.551 207.225 C 277.508 207.225,275.987 210.200,274.171 213.836 M109.699 210.255 C 110.951 211.146,111.894 212.964,112.127 214.933 L 112.307 216.449 107.628 216.449 L 102.949 216.449 103.167 217.444 C 103.899 220.777,108.346 221.610,109.303 218.593 C 109.576 217.733,111.914 217.700,111.914 218.556 C 111.914 223.206,102.918 223.567,100.961 218.995 C 98.396 212.999,104.698 206.694,109.699 210.255 M134.056 209.938 C 135.319 210.600,136.757 213.028,136.124 213.430 C 135.230 213.997,134.073 213.695,133.594 212.769 C 131.317 208.365,126.555 213.866,128.526 218.624 C 129.560 221.121,133.327 220.887,133.898 218.290 C 134.174 217.034,136.510 216.859,136.510 218.094 C 136.510 221.346,130.844 223.600,127.988 221.484 C 121.880 216.959,127.400 206.454,134.056 209.938 M159.405 209.814 C 161.104 210.524,161.414 211.519,161.414 216.260 C 161.414 218.540,161.549 220.761,161.714 221.194 C 162.008 221.968,161.988 221.983,160.638 221.983 C 159.620 221.983,159.262 221.863,159.262 221.522 C 159.262 220.929,159.169 220.939,157.725 221.676 C 154.473 223.335,150.346 221.826,150.346 218.979 C 150.346 216.575,151.674 215.453,155.150 214.918 C 159.164 214.301,159.042 214.356,158.832 213.266 C 158.375 210.900,154.652 210.367,153.545 212.509 C 153.064 213.438,151.018 213.719,150.747 212.892 C 149.986 210.571,156.053 208.414,159.405 209.814 M173.123 210.160 C 174.390 211.290,174.635 212.454,174.635 217.361 L 174.635 221.983 173.251 221.983 L 171.868 221.983 171.868 217.239 C 171.868 212.121,171.758 211.745,170.149 211.341 C 167.595 210.701,166.641 212.505,166.641 217.976 L 166.641 221.983 165.411 221.983 L 164.181 221.983 164.181 215.834 L 164.181 209.685 165.257 209.685 C 166.010 209.685,166.334 209.824,166.334 210.147 C 166.334 210.527,166.537 210.496,167.487 209.974 C 168.996 209.145,172.099 209.247,173.123 210.160 M184.463 209.896 C 184.988 210.264,185.239 210.309,185.325 210.050 C 185.392 209.849,186.000 209.685,186.677 209.685 L 187.907 209.685 187.804 216.526 C 187.692 224.038,187.552 224.650,185.611 226.096 C 184.469 226.947,180.804 227.176,179.180 226.497 C 177.209 225.674,176.052 222.905,177.678 222.905 C 178.879 222.905,179.554 223.188,179.554 223.690 C 179.554 224.335,180.820 225.058,181.949 225.058 C 183.916 225.058,185.063 224.022,185.079 222.232 L 185.088 221.097 184.243 221.538 C 177.683 224.960,173.211 213.320,179.708 209.735 C 180.681 209.199,183.608 209.298,184.463 209.896 M198.247 209.809 C 200.094 210.770,201.384 212.991,201.384 215.209 L 201.384 216.449 196.885 216.449 L 192.387 216.449 192.571 217.585 C 192.977 220.082,195.777 221.243,197.632 219.682 C 198.174 219.227,198.616 218.659,198.616 218.420 C 198.616 218.111,199.014 217.986,200.000 217.986 C 201.609 217.986,201.727 218.308,200.684 219.855 C 198.251 223.467,192.344 223.153,190.435 219.310 C 187.664 213.732,193.094 207.128,198.247 209.809 M117.294 211.253 C 118.703 213.630,118.763 213.636,120.231 211.543 C 121.521 209.704,121.549 209.685,123.029 209.685 L 124.525 209.685 122.386 212.581 L 120.246 215.477 121.085 216.655 C 121.547 217.303,122.584 218.766,123.391 219.908 L 124.858 221.983 123.350 221.983 L 121.843 221.983 120.412 219.831 C 119.624 218.647,118.912 217.679,118.827 217.679 C 118.743 217.679,118.053 218.647,117.294 219.831 L 115.915 221.983 114.383 221.983 L 112.851 221.983 115.123 218.792 L 117.394 215.601 115.423 212.814 C 113.068 209.485,113.101 209.683,114.912 209.691 C 116.338 209.697,116.394 209.733,117.294 211.253 M225.826 210.349 C 221.092 212.074,222.199 220.195,227.179 220.269 C 229.564 220.305,232.753 217.215,230.823 216.740 C 230.280 216.606,230.053 216.751,229.771 217.408 C 228.318 220.796,224.443 219.270,224.443 215.311 C 224.443 211.649,226.922 209.964,229.102 212.145 C 229.875 212.917,231.207 213.413,231.207 212.928 C 231.207 211.042,228.062 209.535,225.826 210.349 M239.969 210.350 C 236.503 211.617,235.888 217.379,238.978 219.644 C 240.158 220.510,242.858 220.512,244.016 219.647 C 248.648 216.189,245.264 208.416,239.969 210.350 M249.992 210.470 C 246.759 211.873,247.582 214.498,251.671 215.826 C 254.491 216.741,255.047 217.342,254.023 218.366 C 252.964 219.425,250.769 219.347,249.796 218.217 C 249.173 217.492,247.809 217.028,247.809 217.540 C 247.809 219.188,250.618 220.697,252.891 220.270 C 254.575 219.954,255.803 218.776,255.803 217.477 C 255.803 215.695,255.383 215.298,252.598 214.449 C 249.702 213.565,249.129 213.126,249.637 212.177 C 250.269 210.996,253.380 211.082,253.846 212.294 C 254.159 213.110,255.577 212.894,255.332 212.068 C 254.828 210.371,252.100 209.555,249.992 210.470 M260.920 210.308 C 256.468 211.643,256.882 219.407,261.451 220.264 C 263.519 220.652,266.564 219.199,266.564 217.823 C 266.564 217.010,265.402 217.129,264.751 218.009 C 263.427 219.799,260.515 219.344,259.622 217.207 C 258.916 215.517,258.897 215.527,263.028 215.527 L 266.872 215.527 266.865 214.681 C 266.840 211.578,263.900 209.415,260.920 210.308 M104.876 211.651 C 104.065 212.101,103.333 213.234,103.316 214.066 C 103.306 214.543,103.652 214.604,106.380 214.604 C 109.714 214.604,109.829 214.532,109.087 212.905 C 108.414 211.427,106.375 210.820,104.876 211.651 M180.818 211.651 C 178.610 212.875,178.617 218.557,180.829 219.700 C 183.906 221.292,186.268 217.909,185.076 213.618 C 184.527 211.641,182.514 210.711,180.818 211.651 M193.713 212.068 C 193.209 212.533,192.708 213.294,192.599 213.759 L 192.401 214.604 195.662 214.604 C 197.456 214.604,198.924 214.531,198.924 214.441 C 198.924 211.851,195.592 210.334,193.713 212.068 M242.716 211.522 C 244.641 212.254,245.384 215.707,244.043 217.686 C 242.349 220.186,238.966 219.303,238.446 216.225 C 237.887 212.917,240.068 210.515,242.716 211.522 M263.803 211.687 C 264.745 212.174,265.334 212.997,265.334 213.826 C 265.334 214.251,264.918 214.307,262.337 214.231 C 259.532 214.149,259.346 214.103,259.444 213.528 C 259.756 211.693,261.990 210.749,263.803 211.687 M156.188 216.725 C 153.287 217.369,153.113 217.485,153.113 218.762 C 153.113 220.649,155.998 221.175,157.715 219.600 C 158.603 218.787,159.429 216.089,158.763 216.177 C 158.615 216.197,157.456 216.444,156.188 216.725 M82.898 272.424 C 86.229 274.037,86.255 279.361,82.939 281.052 C 81.992 281.535,80.878 281.725,78.206 281.856 L 74.712 282.028 74.712 285.365 L 74.712 288.701 73.482 288.701 L 72.252 288.701 72.252 280.246 L 72.252 271.791 76.921 271.791 C 81.006 271.791,81.752 271.870,82.898 272.424 M90.392 279.170 L 90.392 286.549 94.543 286.549 L 98.693 286.549 98.693 287.625 L 98.693 288.701 93.313 288.701 L 87.932 288.701 87.932 280.246 L 87.932 271.791 89.162 271.791 L 90.392 271.791 90.392 279.170 M107.993 278.178 L 112.220 284.550 112.220 278.171 L 112.221 271.791 113.451 271.791 L 114.681 271.791 114.681 280.246 L 114.681 288.701 113.465 288.701 L 112.249 288.701 107.931 282.343 L 103.613 275.984 103.613 282.343 L 103.613 288.701 102.383 288.701 L 101.153 288.701 101.153 280.246 L 101.153 271.791 102.460 271.799 L 103.766 271.806 107.993 278.178 M137.740 280.246 L 137.740 288.701 136.510 288.701 L 135.281 288.701 135.281 282.396 L 135.281 276.090 133.642 277.015 C 131.521 278.212,131.284 278.189,131.284 276.787 C 131.284 275.732,131.403 275.570,132.673 274.896 C 133.437 274.491,134.509 273.638,135.056 273.001 C 135.735 272.210,136.317 271.835,136.895 271.817 L 137.740 271.791 137.740 280.246 M151.883 277.325 L 151.883 282.859 152.959 282.859 C 153.984 282.859,154.035 282.911,154.035 283.935 C 154.035 284.960,153.984 285.012,152.959 285.012 L 151.883 285.012 151.883 286.856 L 151.883 288.701 150.653 288.701 L 149.424 288.701 149.424 286.856 L 149.424 285.012 145.734 285.012 L 142.045 285.012 142.048 283.859 C 142.050 282.889,142.609 281.908,145.571 277.679 C 149.975 271.390,149.616 271.791,150.845 271.791 L 151.883 271.791 151.883 277.325 M164.415 272.404 C 166.810 273.865,167.400 276.935,165.626 278.709 L 164.611 279.724 165.474 280.234 C 168.781 282.188,167.358 288.135,163.405 288.876 C 157.190 290.042,152.752 283.161,157.756 280.118 C 158.471 279.683,158.573 279.514,158.204 279.373 C 157.443 279.081,156.497 277.265,156.497 276.095 C 156.497 273.588,158.613 271.793,161.568 271.793 C 162.868 271.793,163.709 271.974,164.415 272.404 M179.862 273.164 L 179.862 274.230 176.416 274.317 L 172.970 274.404 172.728 275.634 C 172.594 276.311,172.414 277.173,172.326 277.550 C 172.180 278.176,172.236 278.209,172.960 277.934 C 179.635 275.396,183.756 285.219,177.380 288.470 C 174.106 290.139,168.744 287.838,169.156 284.940 C 169.343 283.619,171.412 283.783,171.864 285.154 C 172.632 287.480,175.877 287.830,177.250 285.735 C 179.598 282.150,175.689 277.595,172.539 280.246 C 171.415 281.191,169.404 281.340,169.415 280.477 C 169.419 280.181,169.765 278.209,170.183 276.095 C 170.601 273.982,170.944 272.218,170.944 272.175 C 170.945 272.133,172.952 272.098,175.404 272.098 L 179.862 272.098 179.862 273.164 M159.817 274.570 C 159.032 275.356,158.914 275.662,159.080 276.491 C 159.527 278.727,162.023 279.492,163.453 277.831 C 165.650 275.276,162.204 272.184,159.817 274.570 M74.712 276.899 L 74.712 279.855 77.941 279.735 C 81.843 279.591,82.875 278.946,82.816 276.693 C 82.756 274.400,81.962 273.943,78.040 273.943 L 74.712 273.943 74.712 276.899 M146.870 279.333 L 144.469 282.859 146.946 282.859 L 149.424 282.859 149.424 279.324 C 149.424 277.379,149.389 275.792,149.347 275.797 C 149.304 275.803,148.190 277.394,146.870 279.333 M321.291 277.656 C 323.148 278.495,324.897 280.221,325.783 282.091 L 326.512 283.628 326.508 301.614 C 326.505 319.034,326.485 319.644,325.880 320.984 C 325.041 322.841,323.315 324.589,321.445 325.476 L 319.908 326.205 306.072 326.205 L 292.237 326.205 290.699 325.476 C 288.830 324.589,287.104 322.841,286.265 320.984 C 285.660 319.644,285.640 319.034,285.636 301.614 L 285.632 283.628 286.351 282.084 C 286.747 281.235,287.538 280.073,288.110 279.501 C 288.681 278.929,289.844 278.138,290.693 277.743 L 292.237 277.024 306.072 277.027 C 319.319 277.031,319.967 277.058,321.291 277.656 M159.346 281.792 C 158.358 282.780,158.277 282.993,158.435 284.175 C 158.979 288.231,164.796 288.012,164.796 283.935 C 164.796 280.992,161.458 279.679,159.346 281.792 M303.510 296.003 L 301.275 299.001 302.521 299.095 L 303.766 299.190 303.766 303.920 L 303.766 308.650 302.549 308.745 L 301.333 308.839 303.461 311.659 C 304.632 313.209,305.707 314.550,305.850 314.639 C 306.060 314.768,310.097 309.777,310.479 308.916 C 310.535 308.789,310.017 308.686,309.326 308.686 L 308.071 308.686 308.071 303.920 L 308.071 299.154 309.472 299.154 L 310.874 299.154 308.517 296.080 C 305.677 292.375,306.208 292.383,303.510 296.003 M267.487 304.689 C 267.487 305.302,267.282 305.304,169.101 305.304 C 70.920 305.304,70.715 305.302,70.715 304.689 C 70.715 304.075,70.920 304.074,169.101 304.074 C 267.282 304.074,267.487 304.075,267.487 304.689 M82.748 320.189 C 84.415 320.885,87.227 324.251,86.636 324.843 C 85.916 325.562,84.004 325.274,83.638 324.391 C 82.620 321.932,79.195 321.031,76.833 322.600 C 73.494 324.819,73.494 332.214,76.833 334.433 C 79.198 336.004,82.566 335.036,83.774 332.437 C 84.409 331.070,84.826 330.899,86.228 331.432 C 87.144 331.781,86.831 333.019,85.325 334.992 C 82.818 338.279,75.766 338.029,73.367 334.567 C 68.168 327.065,74.816 316.874,82.748 320.189 M91.929 323.597 L 91.929 327.133 96.080 327.133 L 100.231 327.133 100.231 323.597 L 100.231 320.061 101.614 320.061 L 102.998 320.061 102.998 328.517 L 102.998 336.972 101.614 336.972 L 100.231 336.972 100.231 333.128 L 100.231 329.285 96.080 329.285 L 91.929 329.285 91.929 333.128 L 91.929 336.972 90.546 336.972 L 89.162 336.972 89.162 328.517 L 89.162 320.061 90.546 320.061 L 91.929 320.061 91.929 323.597 M118.370 321.138 L 118.370 322.214 113.759 322.214 L 109.147 322.214 109.147 324.827 L 109.147 327.440 113.144 327.440 L 117.141 327.440 117.141 328.517 L 117.141 329.593 113.144 329.593 L 109.147 329.593 109.147 333.282 L 109.147 336.972 107.763 336.972 L 106.380 336.972 106.380 328.517 L 106.380 320.061 112.375 320.061 L 118.370 320.061 118.370 321.138 M134.660 320.600 C 137.361 321.957,137.954 325.994,135.665 327.443 C 135.209 327.732,135.196 327.812,135.585 327.970 C 138.190 329.028,138.804 332.971,136.731 335.333 C 133.688 338.798,127.197 337.481,126.623 333.282 C 126.457 332.069,128.958 331.933,129.260 333.139 C 129.768 335.160,131.906 336.010,133.747 334.922 C 136.613 333.229,135.291 328.689,132.038 329.055 L 130.669 329.210 130.669 328.198 C 130.669 327.270,130.763 327.171,131.822 326.991 C 133.672 326.676,134.498 325.866,134.498 324.366 C 134.498 321.296,129.815 321.107,129.380 324.159 C 129.276 324.892,127.813 325.230,127.009 324.706 C 126.367 324.288,127.771 321.635,129.100 320.754 C 130.415 319.883,133.085 319.809,134.660 320.600 M148.500 320.713 C 152.533 322.979,151.695 326.701,146.030 331.679 C 142.270 334.983,142.222 334.819,146.938 334.819 L 150.961 334.819 150.961 335.895 L 150.961 336.972 145.119 336.972 C 140.064 336.972,139.277 336.908,139.277 336.498 C 139.277 335.331,140.716 333.464,143.887 330.517 C 148.036 326.661,148.786 325.346,148.003 323.304 C 147.104 320.962,142.352 321.980,142.352 324.514 C 142.352 325.276,142.276 325.318,141.045 325.229 C 139.555 325.121,139.441 324.579,140.480 322.521 C 141.661 320.180,145.865 319.232,148.500 320.713 M160.769 320.507 C 165.351 322.876,165.473 333.966,160.946 336.593 C 157.774 338.435,153.113 336.473,153.113 333.297 C 153.113 332.767,153.308 332.667,154.343 332.667 C 155.377 332.667,155.573 332.767,155.573 333.296 C 155.573 336.865,160.491 335.606,161.401 331.805 C 161.878 329.810,161.788 329.700,160.367 330.539 C 155.055 333.673,149.759 325.584,154.390 321.410 C 155.971 319.986,158.946 319.564,160.769 320.507 M180.931 320.764 C 185.520 323.363,184.896 335.130,180.072 336.952 C 176.890 338.154,173.498 336.591,172.910 333.650 C 172.640 332.300,175.037 332.084,175.374 333.427 C 176.347 337.306,181.399 334.975,181.399 330.647 L 181.399 329.966 180.258 330.548 C 176.621 332.402,172.802 330.204,172.541 326.105 C 172.236 321.302,176.776 318.411,180.931 320.764 M156.869 322.386 C 154.975 323.713,154.697 326.626,156.311 328.240 C 158.509 330.439,161.414 328.934,161.414 325.596 C 161.414 322.709,158.921 320.949,156.869 322.386 M176.861 322.314 C 174.577 323.582,174.397 327.300,176.546 328.805 C 178.277 330.017,180.662 328.885,181.061 326.663 C 181.662 323.305,179.364 320.924,176.861 322.314 M169.716 335.742 L 169.716 336.972 168.332 336.972 L 166.949 336.972 166.949 335.742 L 166.949 334.512 168.332 334.512 L 169.716 334.512 169.716 335.742 " stroke="none" fill="#044b7b" fill-rule="evenodd"></path><path id="path2" d="M53.497 57.802 L 53.497 85.473 90.392 85.473 L 127.287 85.473 127.287 57.802 L 127.287 30.131 90.392 30.131 L 53.497 30.131 53.497 57.802 M95.619 46.580 L 95.619 52.575 101.614 52.575 L 107.610 52.575 107.610 57.802 L 107.610 63.028 101.614 63.028 L 95.619 63.028 95.619 69.024 L 95.619 75.019 90.392 75.019 L 85.165 75.019 85.165 69.024 L 85.165 63.028 79.170 63.028 L 73.174 63.028 73.174 57.802 L 73.174 52.575 79.170 52.575 L 85.165 52.575 85.165 46.580 L 85.165 40.584 90.392 40.584 L 95.619 40.584 95.619 46.580 M72.252 280.246 L 72.252 288.701 73.482 288.701 L 74.712 288.701 74.712 285.363 L 74.712 282.024 78.017 281.859 C 83.723 281.573,85.977 279.683,85.311 275.743 C 84.785 272.624,83.005 271.791,76.874 271.791 L 72.252 271.791 72.252 280.246 M87.932 280.246 L 87.932 288.701 93.313 288.701 L 98.693 288.701 98.693 287.625 L 98.693 286.549 94.543 286.549 L 90.392 286.549 90.392 279.170 L 90.392 271.791 89.162 271.791 L 87.932 271.791 87.932 280.246 M101.153 280.228 L 101.153 288.701 102.377 288.701 L 103.600 288.701 103.683 282.356 L 103.766 276.011 107.995 282.356 L 112.223 288.701 113.452 288.701 L 114.681 288.701 114.681 280.246 L 114.681 271.791 113.611 271.791 L 112.541 271.791 112.458 278.265 L 112.375 284.739 108.055 278.342 L 103.736 271.945 102.444 271.850 L 101.153 271.756 101.153 280.228 M82.019 274.557 C 84.825 277.172,82.445 279.780,77.248 279.783 L 74.712 279.785 74.712 276.864 L 74.712 273.943 78.036 273.943 C 80.933 273.943,81.444 274.022,82.019 274.557 " stroke="none" fill="#d6371a" fill-rule="evenodd"></path><path id="path3" d="M257.770 43.659 C 257.770 46.111,257.818 47.114,257.876 45.888 C 257.935 44.662,257.935 42.656,257.876 41.430 C 257.818 40.204,257.770 41.207,257.770 43.659 M166.466 48.271 C 166.466 52.244,166.510 53.870,166.563 51.883 C 166.617 49.896,166.617 46.645,166.563 44.658 C 166.510 42.671,166.466 44.297,166.466 48.271 M177.534 48.271 C 177.534 52.244,177.578 53.870,177.632 51.883 C 177.685 49.896,177.685 46.645,177.632 44.658 C 177.578 42.671,177.534 44.297,177.534 48.271 M190.091 42.429 C 190.091 43.190,190.151 43.501,190.225 43.121 C 190.298 42.740,190.298 42.118,190.225 41.737 C 190.151 41.357,190.091 41.668,190.091 42.429 M183.336 45.196 C 183.336 46.126,183.393 46.507,183.464 46.042 C 183.534 45.576,183.534 44.816,183.464 44.350 C 183.393 43.885,183.336 44.266,183.336 45.196 M277.420 46.272 C 277.422 47.287,277.480 47.665,277.548 47.112 C 277.616 46.559,277.615 45.729,277.545 45.267 C 277.475 44.805,277.419 45.257,277.420 46.272 M189.169 47.963 C 189.169 48.724,189.229 49.035,189.302 48.655 C 189.376 48.274,189.376 47.652,189.302 47.271 C 189.229 46.891,189.169 47.202,189.169 47.963 M154.414 47.963 C 154.414 48.555,154.477 48.797,154.555 48.501 C 154.632 48.205,154.632 47.721,154.555 47.425 C 154.477 47.129,154.414 47.371,154.414 47.963 M183.357 52.267 C 183.357 54.043,183.408 54.769,183.470 53.882 C 183.532 52.994,183.532 51.541,183.470 50.653 C 183.408 49.766,183.357 50.492,183.357 52.267 M257.736 51.806 C 257.738 52.652,257.798 52.961,257.869 52.494 C 257.939 52.026,257.937 51.335,257.864 50.957 C 257.791 50.578,257.734 50.961,257.736 51.806 M250.709 68.870 C 250.709 72.844,250.753 74.470,250.806 72.483 C 250.860 70.496,250.860 67.244,250.806 65.257 C 250.753 63.271,250.709 64.896,250.709 68.870 M263.929 68.870 C 263.929 72.844,263.973 74.470,264.027 72.483 C 264.080 70.496,264.080 67.244,264.027 65.257 C 263.973 63.271,263.929 64.896,263.929 68.870 M222.097 71.330 C 222.097 73.105,222.148 73.832,222.210 72.944 C 222.272 72.056,222.272 70.603,222.210 69.716 C 222.148 68.828,222.097 69.554,222.097 71.330 M216.867 71.637 C 216.867 73.244,216.919 73.901,216.982 73.098 C 217.046 72.294,217.046 70.980,216.982 70.177 C 216.919 69.374,216.867 70.031,216.867 71.637 M215.918 150.961 C 215.918 151.722,215.978 152.033,216.051 151.653 C 216.124 151.272,216.124 150.650,216.051 150.269 C 215.978 149.889,215.918 150.200,215.918 150.961 M218.377 150.961 C 218.377 151.722,218.437 152.033,218.511 151.653 C 218.584 151.272,218.584 150.650,218.511 150.269 C 218.437 149.889,218.377 150.200,218.377 150.961 M126.775 152.191 C 126.775 153.459,126.829 153.978,126.896 153.344 C 126.962 152.709,126.962 151.672,126.896 151.038 C 126.829 150.404,126.775 150.922,126.775 152.191 M223.931 152.191 C 223.931 153.459,223.985 153.978,224.052 153.344 C 224.118 152.709,224.118 151.672,224.052 151.038 C 223.985 150.404,223.931 150.922,223.931 152.191 M150.725 153.420 C 150.725 154.012,150.788 154.254,150.865 153.958 C 150.943 153.663,150.943 153.178,150.865 152.882 C 150.788 152.586,150.725 152.829,150.725 153.420 M153.184 153.420 C 153.184 154.012,153.248 154.254,153.325 153.958 C 153.402 153.663,153.402 153.178,153.325 152.882 C 153.248 152.586,153.184 152.829,153.184 153.420 M128.860 155.015 C 128.830 155.713,128.669 155.856,127.825 155.937 L 126.826 156.034 126.811 159.954 L 126.797 163.875 126.897 160.031 L 126.998 156.188 127.920 156.188 C 128.892 156.188,129.283 155.684,129.039 154.745 C 128.943 154.373,128.884 154.462,128.860 155.015 M148.933 155.265 C 148.956 155.864,149.147 156.055,149.801 156.130 L 150.639 156.227 150.734 161.434 L 150.830 166.642 150.818 161.338 L 150.807 156.034 149.980 155.938 C 149.413 155.873,149.114 155.631,149.028 155.170 C 148.926 154.618,148.908 154.635,148.933 155.265 M202.732 158.032 C 202.732 160.146,202.781 161.011,202.841 159.954 C 202.901 158.897,202.901 157.168,202.841 156.111 C 202.781 155.054,202.732 155.919,202.732 158.032 M205.203 160.492 C 205.203 163.958,205.248 165.377,205.302 163.643 C 205.357 161.910,205.357 159.074,205.302 157.341 C 205.248 155.607,205.203 157.025,205.203 160.492 M215.964 160.492 C 215.964 163.958,216.008 165.377,216.063 163.643 C 216.118 161.910,216.118 159.074,216.063 157.341 C 216.008 155.607,215.964 157.025,215.964 160.492 M218.423 160.492 C 218.423 163.958,218.468 165.377,218.523 163.643 C 218.578 161.910,218.578 159.074,218.523 157.341 C 218.468 155.607,218.423 157.025,218.423 160.492 M226.016 155.015 C 225.986 155.713,225.825 155.856,224.981 155.937 L 223.982 156.034 223.967 159.954 L 223.953 163.875 224.053 160.031 L 224.154 156.188 225.076 156.188 C 226.048 156.188,226.439 155.684,226.195 154.745 C 226.099 154.373,226.040 154.462,226.016 155.015 M153.249 156.276 C 153.166 156.494,153.139 158.950,153.190 161.734 L 153.283 166.795 153.352 161.510 L 153.420 156.225 154.573 156.104 L 155.726 155.983 154.564 155.932 C 153.858 155.900,153.341 156.036,153.249 156.276 M88.357 160.646 C 88.358 162.675,88.408 163.465,88.468 162.401 C 88.528 161.338,88.527 159.678,88.467 158.712 C 88.406 157.746,88.357 158.616,88.357 160.646 M90.476 160.492 C 90.476 161.253,90.536 161.564,90.609 161.184 C 90.682 160.803,90.682 160.181,90.609 159.800 C 90.536 159.420,90.476 159.731,90.476 160.492 M129.830 160.492 C 129.830 161.253,129.890 161.564,129.963 161.184 C 130.037 160.803,130.037 160.181,129.963 159.800 C 129.890 159.420,129.830 159.731,129.830 160.492 M192.859 160.492 C 192.859 161.253,192.918 161.564,192.992 161.184 C 193.065 160.803,193.065 160.181,192.992 159.800 C 192.918 159.420,192.859 159.731,192.859 160.492 M238.657 160.184 C 238.657 160.776,238.720 161.018,238.798 160.723 C 238.875 160.427,238.875 159.942,238.798 159.646 C 238.720 159.350,238.657 159.593,238.657 160.184 M92.923 160.492 C 92.923 161.084,92.986 161.326,93.064 161.030 C 93.141 160.734,93.141 160.250,93.064 159.954 C 92.986 159.658,92.923 159.900,92.923 160.492 M112.299 160.646 C 112.302 161.322,112.365 161.563,112.439 161.180 C 112.512 160.798,112.510 160.244,112.433 159.950 C 112.356 159.656,112.295 159.969,112.299 160.646 M137.875 213.528 C 137.876 218.263,137.918 220.157,137.970 217.737 C 138.022 215.317,138.022 211.443,137.970 209.128 C 137.918 206.813,137.875 208.793,137.875 213.528 M140.311 207.840 C 140.311 209.447,140.363 210.104,140.426 209.301 C 140.489 208.497,140.489 207.183,140.426 206.380 C 140.363 205.576,140.311 206.234,140.311 207.840 M233.184 213.374 C 233.184 217.348,233.228 218.974,233.281 216.987 C 233.335 215.000,233.335 211.749,233.281 209.762 C 233.228 207.775,233.184 209.400,233.184 213.374 M187.678 215.988 C 187.678 219.539,187.723 220.949,187.778 219.122 C 187.832 217.295,187.832 214.390,187.777 212.666 C 187.722 210.942,187.678 212.437,187.678 215.988 M174.452 217.218 C 174.452 219.923,174.499 220.989,174.556 219.586 C 174.614 218.183,174.613 215.969,174.556 214.666 C 174.498 213.364,174.452 214.512,174.452 217.218 M171.991 217.525 C 171.991 220.061,172.039 221.058,172.097 219.740 C 172.154 218.422,172.154 216.346,172.096 215.128 C 172.038 213.910,171.990 214.988,171.991 217.525 M140.320 217.986 C 140.320 220.269,140.369 221.203,140.428 220.061 C 140.487 218.920,140.487 217.052,140.428 215.911 C 140.369 214.769,140.320 215.703,140.320 217.986 M179.027 215.680 C 179.030 216.526,179.089 216.835,179.160 216.368 C 179.231 215.900,179.229 215.209,179.156 214.831 C 179.083 214.452,179.025 214.835,179.027 215.680 M236.812 215.219 C 236.812 215.811,236.876 216.053,236.953 215.757 C 237.030 215.461,237.030 214.977,236.953 214.681 C 236.876 214.385,236.812 214.627,236.812 215.219 M238.350 215.219 C 238.350 215.811,238.413 216.053,238.490 215.757 C 238.568 215.461,238.568 214.977,238.490 214.681 C 238.413 214.385,238.350 214.627,238.350 215.219 M127.985 215.834 C 127.985 216.595,128.045 216.906,128.119 216.526 C 128.192 216.145,128.192 215.523,128.119 215.142 C 128.045 214.762,127.985 215.073,127.985 215.834 M112.352 278.248 C 112.352 281.883,112.396 283.370,112.451 281.553 C 112.505 279.735,112.505 276.760,112.451 274.942 C 112.396 273.125,112.352 274.612,112.352 278.248 M135.411 282.244 C 135.411 285.880,135.456 287.367,135.510 285.550 C 135.564 283.732,135.564 280.757,135.510 278.939 C 135.456 277.121,135.411 278.609,135.411 282.244 M143.812 284.932 C 144.869 284.992,146.599 284.992,147.656 284.932 C 148.713 284.872,147.848 284.823,145.734 284.823 C 143.620 284.823,142.756 284.872,143.812 284.932 M152.425 284.922 C 152.807 284.995,153.361 284.992,153.655 284.915 C 153.949 284.838,153.636 284.778,152.959 284.782 C 152.283 284.785,152.042 284.848,152.425 284.922 M89.297 328.517 C 89.297 333.251,89.340 335.145,89.392 332.725 C 89.444 330.306,89.444 326.432,89.392 324.117 C 89.340 321.802,89.297 323.782,89.297 328.517 M100.348 323.597 C 100.349 325.626,100.398 326.417,100.459 325.353 C 100.519 324.290,100.518 322.629,100.457 321.664 C 100.397 320.698,100.347 321.568,100.348 323.597 M118.141 321.138 C 118.144 321.814,118.207 322.054,118.280 321.672 C 118.354 321.290,118.351 320.736,118.274 320.442 C 118.197 320.148,118.137 320.461,118.141 321.138 M74.181 328.363 C 74.181 329.124,74.241 329.435,74.314 329.055 C 74.387 328.674,74.387 328.051,74.314 327.671 C 74.241 327.291,74.181 327.602,74.181 328.363 M116.911 328.517 C 116.914 329.193,116.977 329.433,117.051 329.051 C 117.124 328.669,117.121 328.115,117.044 327.821 C 116.967 327.527,116.907 327.840,116.911 328.517 M146.176 328.440 L 145.273 329.439 146.272 328.536 C 147.204 327.694,147.413 327.440,147.175 327.440 C 147.122 327.440,146.673 327.890,146.176 328.440 M100.350 333.128 C 100.351 335.327,100.400 336.186,100.459 335.037 C 100.518 333.889,100.518 332.090,100.458 331.040 C 100.398 329.990,100.350 330.930,100.350 333.128 " stroke="none" fill="#5888a9" fill-rule="evenodd"></path><path id="path4" d="M275.261 40.738 C 275.263 41.583,275.323 41.893,275.394 41.425 C 275.464 40.958,275.462 40.266,275.389 39.888 C 275.316 39.510,275.259 39.892,275.261 40.738 M169.212 43.966 C 169.212 45.573,169.263 46.230,169.327 45.427 C 169.390 44.623,169.390 43.309,169.327 42.506 C 169.263 41.703,169.212 42.360,169.212 43.966 M174.746 43.966 C 174.746 45.573,174.798 46.230,174.861 45.427 C 174.924 44.623,174.924 43.309,174.861 42.506 C 174.798 41.703,174.746 42.360,174.746 43.966 M180.609 48.271 C 180.609 52.244,180.653 53.870,180.706 51.883 C 180.760 49.896,180.760 46.645,180.706 44.658 C 180.653 42.671,180.609 44.297,180.609 48.271 M280.164 44.274 C 280.164 44.865,280.227 45.108,280.304 44.812 C 280.382 44.516,280.382 44.032,280.304 43.736 C 280.227 43.440,280.164 43.682,280.164 44.274 M292.516 48.271 C 292.516 51.061,292.562 52.202,292.619 50.807 C 292.676 49.412,292.676 47.129,292.619 45.734 C 292.562 44.339,292.516 45.480,292.516 48.271 M255.292 45.811 C 255.292 47.079,255.346 47.598,255.412 46.964 C 255.479 46.330,255.479 45.292,255.412 44.658 C 255.346 44.024,255.292 44.543,255.292 45.811 M283.580 46.272 C 283.581 47.625,283.635 48.140,283.700 47.417 C 283.765 46.694,283.764 45.587,283.698 44.957 C 283.632 44.328,283.579 44.919,283.580 46.272 M286.313 44.889 C 286.313 45.480,286.376 45.723,286.453 45.427 C 286.531 45.131,286.531 44.646,286.453 44.350 C 286.376 44.055,286.313 44.297,286.313 44.889 M151.668 48.271 C 151.668 49.201,151.725 49.581,151.796 49.116 C 151.866 48.651,151.866 47.890,151.796 47.425 C 151.725 46.960,151.668 47.341,151.668 48.271 M286.313 47.656 C 286.313 48.248,286.376 48.490,286.453 48.194 C 286.531 47.898,286.531 47.414,286.453 47.118 C 286.376 46.822,286.313 47.064,286.313 47.656 M280.164 48.271 C 280.164 48.862,280.227 49.105,280.304 48.809 C 280.382 48.513,280.382 48.028,280.304 47.733 C 280.227 47.437,280.164 47.679,280.164 48.271 M275.859 48.578 C 275.859 49.170,275.922 49.412,276.000 49.116 C 276.077 48.820,276.077 48.336,276.000 48.040 C 275.922 47.744,275.859 47.986,275.859 48.578 M249.430 49.193 C 249.430 49.954,249.490 50.265,249.564 49.885 C 249.637 49.504,249.637 48.882,249.564 48.501 C 249.490 48.121,249.430 48.432,249.430 49.193 M259.576 49.193 C 259.576 49.954,259.636 50.265,259.710 49.885 C 259.783 49.504,259.783 48.882,259.710 48.501 C 259.636 48.121,259.576 48.432,259.576 49.193 M169.214 52.267 C 169.214 54.043,169.265 54.769,169.327 53.882 C 169.389 52.994,169.389 51.541,169.327 50.653 C 169.265 49.766,169.214 50.492,169.214 52.267 M174.749 52.267 C 174.749 54.043,174.799 54.769,174.862 53.882 C 174.924 52.994,174.924 51.541,174.862 50.653 C 174.799 49.766,174.749 50.492,174.749 52.267 M255.276 51.806 C 255.279 52.652,255.338 52.961,255.409 52.494 C 255.480 52.026,255.478 51.335,255.405 50.957 C 255.332 50.578,255.274 50.961,255.276 51.806 M261.425 51.806 C 261.428 52.652,261.487 52.961,261.558 52.494 C 261.629 52.026,261.627 51.335,261.554 50.957 C 261.481 50.578,261.423 50.961,261.425 51.806 M264.192 51.806 C 264.195 52.652,264.254 52.961,264.325 52.494 C 264.396 52.026,264.394 51.335,264.321 50.957 C 264.248 50.578,264.190 50.961,264.192 51.806 M266.693 67.640 C 266.693 70.938,266.738 72.287,266.793 70.638 C 266.849 68.989,266.849 66.291,266.793 64.643 C 266.738 62.994,266.693 64.343,266.693 67.640 M275.613 68.870 C 275.613 72.844,275.656 74.470,275.710 72.483 C 275.764 70.496,275.764 67.244,275.710 65.257 C 275.656 63.271,275.613 64.896,275.613 68.870 M284.151 66.044 C 284.103 69.470,284.004 70.393,283.705 70.213 C 283.484 70.080,283.516 70.224,283.782 70.551 C 284.309 71.203,284.520 68.636,284.318 64.028 C 284.255 62.603,284.188 63.414,284.151 66.044 M286.988 68.870 C 286.988 72.844,287.032 74.470,287.086 72.483 C 287.139 70.496,287.139 67.244,287.086 65.257 C 287.032 63.271,286.988 64.896,286.988 68.870 M253.444 66.257 C 253.446 67.440,253.501 67.887,253.568 67.249 C 253.635 66.611,253.633 65.643,253.565 65.097 C 253.498 64.551,253.443 65.073,253.444 66.257 M175.064 70.254 C 175.064 72.621,175.112 73.549,175.171 72.316 C 175.229 71.082,175.229 69.145,175.170 68.011 C 175.111 66.877,175.063 67.886,175.064 70.254 M200.461 66.493 C 200.461 66.793,200.132 67.034,199.616 67.113 L 198.770 67.241 199.625 67.287 C 200.441 67.331,201.095 66.634,200.653 66.192 C 200.547 66.087,200.461 66.222,200.461 66.493 M215.648 70.254 C 215.648 72.621,215.697 73.549,215.755 72.316 C 215.814 71.082,215.813 69.145,215.754 68.011 C 215.695 66.877,215.647 67.886,215.648 70.254 M278.370 71.483 C 278.371 74.020,278.419 75.017,278.476 73.698 C 278.534 72.380,278.534 70.305,278.476 69.087 C 278.417 67.868,278.370 68.947,278.370 71.483 M213.482 71.022 C 213.482 72.460,213.535 73.048,213.599 72.329 C 213.664 71.610,213.664 70.434,213.599 69.716 C 213.535 68.997,213.482 69.585,213.482 71.022 M203.032 71.637 C 203.032 73.244,203.083 73.901,203.147 73.098 C 203.210 72.294,203.210 70.980,203.147 70.177 C 203.083 69.374,203.032 70.031,203.032 71.637 M220.864 71.637 C 220.864 73.244,220.916 73.901,220.979 73.098 C 221.043 72.294,221.043 70.980,220.979 70.177 C 220.916 69.374,220.864 70.031,220.864 71.637 M223.899 70.407 C 223.899 70.999,223.962 71.241,224.040 70.945 C 224.117 70.650,224.117 70.165,224.040 69.869 C 223.962 69.573,223.899 69.816,223.899 70.407 M253.453 73.328 C 253.452 74.850,253.504 75.511,253.568 74.798 C 253.633 74.084,253.633 72.839,253.570 72.031 C 253.506 71.222,253.454 71.806,253.453 73.328 M346.195 109.147 C 346.195 110.993,346.272 111.298,346.733 111.294 C 347.193 111.290,347.204 111.246,346.810 110.992 C 346.419 110.739,346.434 110.693,346.905 110.689 C 347.211 110.686,347.376 110.546,347.271 110.377 C 347.155 110.188,347.653 110.067,348.560 110.064 C 349.628 110.061,349.910 109.977,349.577 109.762 C 349.211 109.525,349.275 109.462,349.885 109.454 C 350.495 109.447,350.558 109.383,350.192 109.147 C 349.837 108.918,349.944 108.847,350.653 108.839 C 351.363 108.832,351.469 108.761,351.115 108.532 C 350.760 108.303,350.866 108.232,351.576 108.224 C 352.285 108.217,352.392 108.146,352.037 107.917 C 351.679 107.686,351.769 107.618,352.439 107.614 C 352.936 107.612,353.222 107.479,353.113 107.302 C 353.005 107.127,351.470 106.995,349.559 106.995 L 346.195 106.995 346.195 109.147 M99.113 152.652 C 99.114 154.343,99.165 154.995,99.228 154.102 C 99.290 153.208,99.289 151.825,99.226 151.027 C 99.163 150.230,99.112 150.961,99.113 152.652 M114.509 158.186 C 114.509 162.921,114.552 164.815,114.604 162.395 C 114.656 159.975,114.655 156.101,114.603 153.786 C 114.551 151.471,114.509 153.451,114.509 158.186 M197.201 158.647 C 197.201 161.099,197.249 162.102,197.307 160.876 C 197.366 159.650,197.366 157.644,197.307 156.418 C 197.249 155.192,197.201 156.195,197.201 158.647 M167.066 160.646 C 167.066 162.675,167.116 163.465,167.176 162.401 C 167.237 161.338,167.236 159.678,167.175 158.712 C 167.115 157.746,167.065 158.616,167.066 160.646 M103.705 160.492 C 103.705 161.422,103.762 161.802,103.833 161.337 C 103.903 160.872,103.903 160.111,103.833 159.646 C 103.762 159.181,103.705 159.562,103.705 160.492 M210.419 162.798 C 210.420 164.996,210.469 165.855,210.528 164.707 C 210.587 163.558,210.587 161.760,210.527 160.710 C 210.467 159.660,210.419 160.600,210.419 162.798 M156.259 163.566 C 156.259 164.158,156.322 164.400,156.399 164.105 C 156.477 163.809,156.477 163.324,156.399 163.028 C 156.322 162.733,156.259 162.975,156.259 163.566 M234.721 213.374 C 234.721 217.348,234.765 218.974,234.818 216.987 C 234.872 215.000,234.872 211.749,234.818 209.762 C 234.765 207.775,234.721 209.400,234.721 213.374 M161.224 215.988 C 161.225 218.017,161.275 218.807,161.335 217.744 C 161.395 216.680,161.395 215.020,161.334 214.054 C 161.273 213.088,161.224 213.958,161.224 215.988 M145.857 217.525 C 145.857 220.061,145.905 221.058,145.963 219.740 C 146.021 218.422,146.020 216.346,145.962 215.128 C 145.904 213.910,145.857 214.988,145.857 217.525 M262.260 213.989 L 259.339 214.179 262.165 214.238 C 263.784 214.272,265.072 214.165,265.181 213.989 C 265.285 213.820,265.328 213.708,265.276 213.741 C 265.223 213.773,263.866 213.885,262.260 213.989 M222.686 215.373 C 222.688 216.218,222.748 216.528,222.819 216.060 C 222.889 215.593,222.887 214.901,222.814 214.523 C 222.741 214.145,222.684 214.527,222.686 215.373 M244.499 215.219 C 244.499 215.811,244.562 216.053,244.639 215.757 C 244.717 215.461,244.717 214.977,244.639 214.681 C 244.562 214.385,244.499 214.627,244.499 215.219 M166.452 218.294 C 166.452 220.407,166.501 221.272,166.561 220.215 C 166.621 219.158,166.621 217.429,166.561 216.372 C 166.501 215.315,166.452 216.180,166.452 218.294 M189.772 215.834 C 189.772 216.426,189.835 216.668,189.912 216.372 C 189.990 216.076,189.990 215.592,189.912 215.296 C 189.835 215.000,189.772 215.242,189.772 215.834 M150.417 218.909 C 150.417 219.500,150.480 219.743,150.558 219.447 C 150.635 219.151,150.635 218.666,150.558 218.370 C 150.480 218.075,150.417 218.317,150.417 218.909 M151.703 277.325 C 151.703 280.453,151.749 281.733,151.805 280.169 C 151.861 278.605,151.861 276.045,151.805 274.481 C 151.749 272.917,151.703 274.197,151.703 277.325 M179.596 272.933 L 179.554 273.922 176.249 274.021 L 172.944 274.120 176.259 274.185 C 179.815 274.255,180.058 274.150,179.774 272.659 C 179.669 272.109,179.628 272.173,179.596 272.933 M134.800 273.405 L 133.897 274.404 134.896 273.501 C 135.828 272.660,136.037 272.406,135.799 272.406 C 135.746 272.406,135.297 272.855,134.800 273.405 M156.566 276.095 C 156.566 276.687,156.630 276.929,156.707 276.633 C 156.784 276.337,156.784 275.853,156.707 275.557 C 156.630 275.261,156.566 275.503,156.566 276.095 M151.677 286.703 C 151.678 287.886,151.734 288.333,151.800 287.695 C 151.867 287.057,151.866 286.089,151.798 285.543 C 151.730 284.997,151.675 285.519,151.677 286.703 M308.212 303.843 L 308.224 308.532 309.687 308.560 L 311.149 308.589 309.772 308.467 L 308.394 308.345 308.297 303.749 L 308.200 299.154 308.212 303.843 M300.999 308.667 C 300.999 308.827,301.159 309.056,301.354 309.176 C 301.567 309.308,301.626 309.261,301.501 309.060 C 301.369 308.845,301.715 308.680,302.453 308.603 L 303.613 308.482 302.306 308.430 C 301.587 308.401,300.999 308.508,300.999 308.667 M102.825 328.517 C 102.826 333.251,102.868 335.145,102.920 332.725 C 102.972 330.306,102.972 326.432,102.920 324.117 C 102.868 321.802,102.825 323.782,102.825 328.517 M106.515 328.517 C 106.515 333.251,106.558 335.145,106.610 332.725 C 106.662 330.306,106.662 326.432,106.609 324.117 C 106.557 321.802,106.515 323.782,106.515 328.517 M108.970 322.318 C 108.883 322.544,108.859 323.824,108.917 325.162 L 109.023 327.594 109.085 324.912 L 109.147 322.230 113.682 322.136 L 118.217 322.042 113.672 321.974 C 110.112 321.921,109.093 321.995,108.970 322.318 M161.492 325.749 C 161.495 326.426,161.558 326.666,161.632 326.284 C 161.705 325.901,161.702 325.348,161.626 325.054 C 161.549 324.760,161.488 325.073,161.492 325.749 M155.029 325.903 C 155.029 326.495,155.092 326.737,155.170 326.441 C 155.247 326.145,155.247 325.661,155.170 325.365 C 155.092 325.069,155.029 325.311,155.029 325.903 M163.945 326.826 C 163.945 327.417,164.009 327.659,164.086 327.364 C 164.163 327.068,164.163 326.583,164.086 326.287 C 164.009 325.992,163.945 326.234,163.945 326.826 M148.026 329.669 L 146.810 330.976 148.117 329.761 C 149.332 328.631,149.565 328.363,149.332 328.363 C 149.282 328.363,148.694 328.951,148.026 329.669 M163.945 329.593 C 163.945 330.184,164.009 330.427,164.086 330.131 C 164.163 329.835,164.163 329.350,164.086 329.055 C 164.009 328.759,163.945 329.001,163.945 329.593 M94.005 329.206 C 95.231 329.264,97.237 329.264,98.463 329.206 C 99.689 329.148,98.686 329.100,96.234 329.100 C 93.782 329.100,92.779 329.148,94.005 329.206 M108.973 329.688 C 108.888 329.910,108.863 331.674,108.917 333.608 L 109.015 337.125 109.081 333.368 L 109.147 329.611 113.067 329.515 L 116.987 329.419 113.057 329.352 C 110.051 329.301,109.091 329.380,108.973 329.688 M167.032 335.742 C 167.032 336.503,167.092 336.814,167.165 336.434 C 167.239 336.053,167.239 335.430,167.165 335.050 C 167.092 334.669,167.032 334.981,167.032 335.742 M146.637 335.045 L 150.616 335.144 150.752 336.135 C 150.885 337.109,150.887 337.108,150.847 336.049 L 150.807 334.973 146.733 334.959 L 142.659 334.945 146.637 335.045 " stroke="none" fill="#749ec4" fill-rule="evenodd"></path></g></svg>