<svg id="svg" version="1.1" xmlns="http://www.w3.org/2000/svg" xmlns:xlink="http://www.w3.org/1999/xlink" width="400" height="148.13529921942757" viewBox="0, 0, 400,148.13529921942757"><g id="svgg"><path id="path0" d="M306.000 28.942 C 304.787 29.022,302.506 29.341,301.250 29.605 C 299.563 29.959,297.435 30.511,296.417 30.859 C 296.142 30.952,295.692 31.091,295.417 31.167 C 295.142 31.243,294.504 31.467,294.000 31.665 C 293.496 31.863,292.875 32.090,292.620 32.169 C 292.225 32.292,287.928 34.412,287.046 34.920 C 285.354 35.894,284.049 36.796,281.833 38.523 C 279.211 40.568,275.063 44.766,273.789 46.667 C 273.635 46.896,273.241 47.458,272.913 47.917 C 271.383 50.057,270.940 50.799,269.555 53.543 C 267.841 56.941,267.372 58.204,265.997 63.136 C 264.312 69.176,264.386 78.549,266.167 84.750 C 266.245 85.025,266.439 85.700,266.597 86.250 C 267.001 87.656,267.335 88.667,267.587 89.250 C 267.705 89.525,267.929 90.087,268.085 90.500 C 270.642 97.303,276.904 105.349,283.000 109.665 C 283.504 110.022,284.179 110.509,284.500 110.747 C 286.111 111.946,290.324 114.262,291.659 114.683 C 291.984 114.786,292.500 115.013,292.805 115.187 C 293.110 115.362,294.273 115.777,295.388 116.111 C 296.504 116.445,298.012 116.895,298.740 117.112 C 304.573 118.853,314.513 118.832,320.542 117.065 C 320.977 116.938,321.690 116.729,322.125 116.601 C 322.560 116.473,323.367 116.237,323.917 116.078 C 324.467 115.918,324.992 115.735,325.083 115.671 C 325.175 115.607,325.737 115.379,326.333 115.166 C 330.460 113.685,336.030 110.168,339.872 106.618 C 340.673 105.878,341.388 105.230,341.461 105.178 C 341.535 105.126,342.145 104.446,342.818 103.667 C 343.491 102.888,344.126 102.175,344.229 102.083 C 344.461 101.877,345.266 100.813,345.866 99.919 C 346.114 99.551,346.542 98.950,346.819 98.583 C 347.096 98.217,347.511 97.566,347.741 97.137 C 347.972 96.708,348.229 96.314,348.314 96.262 C 348.527 96.131,351.125 90.814,351.263 90.228 C 351.325 89.965,351.591 89.248,351.856 88.635 C 353.197 85.524,354.524 77.579,354.425 73.250 C 354.290 67.374,353.449 62.965,351.434 57.583 C 349.610 52.713,346.148 47.159,342.524 43.288 C 340.852 41.503,340.753 41.406,339.516 40.333 C 338.934 39.829,338.336 39.293,338.188 39.141 C 337.895 38.845,336.685 37.935,335.338 37.000 C 334.876 36.679,334.225 36.210,333.893 35.958 C 333.560 35.706,333.216 35.500,333.128 35.500 C 333.040 35.500,332.738 35.331,332.456 35.125 C 331.917 34.731,330.761 34.096,329.500 33.502 C 329.087 33.307,328.218 32.890,327.568 32.574 C 326.918 32.258,326.295 32.000,326.184 32.000 C 326.072 32.000,325.367 31.747,324.616 31.438 C 320.259 29.644,312.025 28.540,306.000 28.942 M316.968 41.375 C 318.658 42.216,319.428 43.557,319.265 45.377 L 319.164 46.503 319.707 46.836 C 320.006 47.020,320.813 47.388,321.500 47.655 C 322.938 48.213,325.019 49.253,325.779 49.795 C 326.067 49.999,326.371 50.167,326.455 50.167 C 326.945 50.167,330.021 52.799,330.616 53.727 C 333.725 58.581,327.266 63.925,322.668 60.303 C 320.609 58.681,317.936 57.000,317.417 57.000 C 317.013 57.000,316.903 57.428,316.003 62.542 C 314.997 68.259,314.991 68.121,316.288 68.720 C 317.348 69.211,318.651 69.910,319.419 70.401 C 321.700 71.860,322.378 72.331,323.259 73.073 C 328.777 77.716,330.323 84.678,327.222 90.917 C 324.342 96.711,319.027 99.355,310.298 99.334 C 309.886 99.333,309.721 99.741,309.420 101.511 C 308.721 105.630,307.148 107.024,304.077 106.249 C 301.661 105.640,300.880 103.827,301.472 100.199 C 301.890 97.635,301.951 97.804,300.410 97.265 C 298.978 96.764,296.997 95.883,296.000 95.304 C 295.587 95.064,295.091 94.821,294.897 94.763 C 294.703 94.705,294.410 94.510,294.246 94.329 C 294.082 94.148,293.871 94.000,293.777 94.000 C 293.514 94.000,291.767 92.848,290.615 91.914 C 290.048 91.454,289.302 90.869,288.958 90.613 C 284.305 87.159,286.098 80.393,291.583 80.706 C 293.437 80.812,293.855 81.026,296.250 83.086 C 296.708 83.480,297.496 84.105,298.000 84.474 C 298.504 84.844,299.224 85.376,299.600 85.656 C 299.975 85.937,300.346 86.167,300.424 86.167 C 300.502 86.167,300.835 86.354,301.165 86.582 C 301.495 86.811,302.232 87.181,302.803 87.405 L 303.840 87.811 304.075 87.447 C 304.345 87.027,306.000 77.848,306.000 76.767 C 306.000 76.050,305.992 76.040,305.042 75.592 C 303.348 74.795,302.060 74.093,301.585 73.708 C 301.330 73.502,301.033 73.333,300.926 73.333 C 300.818 73.333,300.579 73.193,300.396 73.023 C 300.212 72.852,299.880 72.615,299.656 72.498 C 297.164 71.185,294.006 67.359,293.194 64.667 C 292.533 62.478,292.453 61.859,292.573 59.852 C 292.938 53.707,295.568 49.439,300.441 47.087 C 301.161 46.740,301.879 46.392,302.036 46.313 C 303.045 45.811,306.658 45.174,308.917 45.099 C 310.108 45.060,311.099 45.022,311.119 45.014 C 311.138 45.006,311.237 44.691,311.339 44.314 C 312.037 41.720,314.781 40.288,316.968 41.375 M308.083 54.872 C 302.969 56.122,302.431 61.684,307.191 64.096 C 308.324 64.670,308.180 65.066,309.485 57.818 C 310.069 54.577,309.988 54.406,308.083 54.872 M313.012 80.144 C 312.921 80.315,312.696 81.309,312.513 82.352 C 312.330 83.396,312.060 84.925,311.914 85.750 C 311.216 89.677,311.216 89.667,312.262 89.667 C 317.002 89.667,319.052 84.360,315.547 81.163 C 314.248 79.978,313.304 79.599,313.012 80.144 M312.167 129.417 C 312.167 129.554,312.279 129.667,312.417 129.667 C 312.554 129.667,312.667 129.554,312.667 129.417 C 312.667 129.279,312.554 129.167,312.417 129.167 C 312.279 129.167,312.167 129.279,312.167 129.417 " stroke="none" fill="#d49404" fill-rule="evenodd"></path><path id="path1" d="M83.167 18.000 C 83.167 18.099,82.528 18.167,81.583 18.167 C 80.639 18.167,80.000 18.234,80.000 18.333 C 80.000 18.557,79.281 18.545,78.771 18.313 C 78.428 18.156,78.277 18.184,77.862 18.479 C 77.532 18.714,77.113 18.833,76.613 18.833 C 76.200 18.833,75.836 18.902,75.806 18.985 C 75.775 19.069,75.375 19.168,74.917 19.204 C 74.388 19.246,74.099 19.343,74.125 19.469 C 74.151 19.592,73.946 19.667,73.583 19.667 C 73.263 19.667,73.000 19.742,73.000 19.833 C 73.000 19.925,72.700 20.000,72.333 20.000 C 71.967 20.000,71.667 20.075,71.667 20.167 C 71.667 20.258,71.442 20.333,71.167 20.333 C 70.892 20.333,70.667 20.408,70.667 20.500 C 70.667 20.592,70.404 20.667,70.083 20.667 C 69.762 20.667,69.500 20.742,69.500 20.833 C 69.500 20.925,69.275 21.000,69.000 21.000 C 68.725 21.000,68.500 21.075,68.500 21.167 C 68.500 21.258,68.275 21.333,68.000 21.333 C 67.725 21.333,67.500 21.408,67.500 21.500 C 67.500 21.592,67.349 21.667,67.164 21.667 C 66.980 21.667,66.680 21.742,66.498 21.833 C 66.316 21.925,66.018 22.075,65.836 22.167 C 65.654 22.258,65.391 22.333,65.252 22.333 C 65.114 22.333,65.000 22.408,65.000 22.500 C 65.000 22.592,64.852 22.667,64.672 22.667 C 64.491 22.667,64.076 22.817,63.750 23.000 C 63.424 23.183,63.046 23.333,62.912 23.333 C 62.777 23.333,62.667 23.408,62.667 23.500 C 62.667 23.592,62.552 23.667,62.411 23.667 C 62.271 23.667,62.113 23.779,62.060 23.917 C 62.008 24.054,61.785 24.167,61.566 24.167 C 61.346 24.167,61.167 24.242,61.167 24.333 C 61.167 24.425,61.033 24.500,60.870 24.500 C 60.707 24.500,60.465 24.650,60.333 24.833 C 60.201 25.017,59.960 25.167,59.797 25.167 C 59.633 25.167,59.500 25.242,59.500 25.333 C 59.500 25.425,59.367 25.500,59.203 25.500 C 59.040 25.500,58.799 25.650,58.667 25.833 C 58.535 26.017,58.293 26.167,58.130 26.167 C 57.967 26.167,57.833 26.242,57.833 26.333 C 57.833 26.425,57.697 26.500,57.531 26.500 C 57.365 26.500,57.069 26.650,56.872 26.833 C 56.675 27.017,56.415 27.167,56.294 27.167 C 56.173 27.167,55.965 27.317,55.833 27.500 C 55.701 27.683,55.460 27.833,55.297 27.833 C 55.133 27.833,55.000 27.912,55.000 28.008 C 55.000 28.258,54.223 29.000,53.961 29.000 C 53.840 29.000,53.632 29.150,53.500 29.333 C 53.368 29.517,53.180 29.667,53.083 29.667 C 52.986 29.667,52.799 29.817,52.667 30.000 C 52.535 30.183,52.326 30.333,52.204 30.333 C 52.082 30.333,51.540 30.783,51.000 31.333 C 50.460 31.883,49.950 32.333,49.866 32.333 C 49.782 32.333,49.573 32.521,49.400 32.750 C 49.228 32.979,49.025 33.167,48.949 33.167 C 48.765 33.167,46.333 35.659,46.333 35.848 C 46.333 36.113,44.558 38.000,44.309 38.000 C 44.231 38.000,44.167 38.118,44.167 38.263 C 44.167 38.408,43.867 38.814,43.500 39.167 C 43.133 39.519,42.833 39.909,42.833 40.033 C 42.833 40.158,42.683 40.368,42.500 40.500 C 42.317 40.632,42.167 40.841,42.167 40.963 C 42.167 41.086,42.092 41.140,42.000 41.083 C 41.907 41.026,41.833 41.153,41.833 41.370 C 41.833 41.584,41.683 41.868,41.500 42.000 C 41.317 42.132,41.167 42.357,41.167 42.500 C 41.167 42.643,41.017 42.868,40.833 43.000 C 40.650 43.132,40.500 43.374,40.500 43.537 C 40.500 43.700,40.387 43.833,40.250 43.833 C 40.112 43.833,40.000 43.967,40.000 44.130 C 40.000 44.293,39.850 44.535,39.667 44.667 C 39.483 44.799,39.333 45.036,39.333 45.194 C 39.333 45.351,39.258 45.527,39.167 45.583 C 39.075 45.640,39.000 45.815,39.000 45.973 C 39.000 46.131,38.850 46.368,38.667 46.500 C 38.483 46.632,38.333 46.874,38.333 47.037 C 38.333 47.200,38.258 47.333,38.167 47.333 C 38.075 47.333,38.000 47.483,38.000 47.667 C 38.000 47.850,37.925 48.000,37.833 48.000 C 37.742 48.000,37.667 48.150,37.667 48.333 C 37.667 48.517,37.592 48.667,37.500 48.667 C 37.408 48.667,37.333 48.812,37.333 48.990 C 37.333 49.168,37.258 49.360,37.167 49.417 C 37.075 49.473,37.000 49.665,37.000 49.843 C 37.000 50.021,36.925 50.167,36.833 50.167 C 36.742 50.167,36.667 50.392,36.667 50.667 C 36.667 50.942,36.592 51.167,36.500 51.167 C 36.408 51.167,36.333 51.317,36.333 51.500 C 36.333 51.683,36.234 51.833,36.113 51.833 C 35.991 51.833,35.793 52.202,35.667 52.667 C 35.542 53.125,35.378 53.500,35.303 53.500 C 35.228 53.500,35.167 53.762,35.167 54.083 C 35.167 54.404,35.092 54.667,35.000 54.667 C 34.908 54.667,34.833 54.892,34.833 55.167 C 34.833 55.442,34.758 55.667,34.667 55.667 C 34.575 55.667,34.500 55.892,34.500 56.167 C 34.500 56.442,34.425 56.667,34.333 56.667 C 34.242 56.667,34.167 56.892,34.167 57.167 C 34.167 57.442,34.092 57.667,34.000 57.667 C 33.908 57.667,33.833 57.929,33.833 58.250 C 33.833 58.571,33.758 58.833,33.667 58.833 C 33.575 58.833,33.500 59.133,33.500 59.500 C 33.500 59.867,33.425 60.167,33.333 60.167 C 33.242 60.167,33.167 60.542,33.167 61.000 C 33.167 61.458,33.092 61.833,33.000 61.833 C 32.908 61.833,32.833 62.246,32.833 62.750 C 32.833 63.254,32.758 63.667,32.667 63.667 C 32.574 63.667,32.500 64.111,32.500 64.667 C 32.500 65.222,32.426 65.667,32.333 65.667 C 32.233 65.667,32.167 66.355,32.167 67.399 C 32.167 68.785,32.117 69.150,31.917 69.227 C 31.543 69.370,31.543 77.353,31.917 77.726 C 32.104 77.913,32.167 78.375,32.167 79.562 C 32.167 80.439,32.241 81.193,32.333 81.250 C 32.425 81.307,32.500 81.799,32.500 82.343 C 32.500 82.892,32.574 83.333,32.667 83.333 C 32.758 83.333,32.833 83.746,32.833 84.250 C 32.833 84.754,32.908 85.167,33.000 85.167 C 33.092 85.167,33.167 85.542,33.167 86.000 C 33.167 86.458,33.242 86.833,33.333 86.833 C 33.425 86.833,33.500 87.058,33.500 87.333 C 33.500 87.608,33.575 87.833,33.667 87.833 C 33.758 87.833,33.833 88.171,33.833 88.583 C 33.833 88.996,33.908 89.333,34.000 89.333 C 34.092 89.333,34.167 89.558,34.167 89.833 C 34.167 90.108,34.242 90.333,34.333 90.333 C 34.425 90.333,34.500 90.558,34.500 90.833 C 34.500 91.108,34.575 91.333,34.667 91.333 C 34.758 91.333,34.833 91.558,34.833 91.833 C 34.833 92.108,34.908 92.333,35.000 92.333 C 35.092 92.333,35.167 92.558,35.167 92.833 C 35.167 93.108,35.242 93.333,35.333 93.333 C 35.425 93.333,35.500 93.479,35.500 93.657 C 35.500 93.835,35.575 94.027,35.667 94.083 C 35.758 94.140,35.833 94.372,35.833 94.598 C 35.833 94.825,35.946 95.054,36.083 95.106 C 36.221 95.159,36.333 95.344,36.333 95.518 C 36.333 95.691,36.408 95.833,36.500 95.833 C 36.592 95.833,36.667 95.977,36.667 96.153 C 36.667 96.328,36.760 96.507,36.875 96.549 C 37.042 96.610,37.042 96.669,36.875 96.846 C 36.562 97.177,36.624 97.500,37.000 97.500 C 37.244 97.500,37.333 97.611,37.333 97.917 C 37.333 98.146,37.408 98.333,37.500 98.333 C 37.592 98.333,37.667 98.483,37.667 98.667 C 37.667 98.850,37.742 99.000,37.833 99.000 C 37.925 99.000,38.000 99.133,38.000 99.297 C 38.000 99.460,38.150 99.701,38.333 99.833 C 38.517 99.965,38.667 100.207,38.667 100.370 C 38.667 100.533,38.742 100.667,38.833 100.667 C 38.925 100.667,39.000 100.817,39.000 101.000 C 39.000 101.183,39.075 101.333,39.167 101.333 C 39.258 101.333,39.333 101.483,39.333 101.667 C 39.333 101.850,39.400 102.000,39.481 102.000 C 39.562 102.000,39.753 102.263,39.905 102.583 C 40.058 102.904,40.254 103.167,40.341 103.167 C 40.429 103.167,40.500 103.300,40.500 103.463 C 40.500 103.626,40.650 103.868,40.833 104.000 C 41.017 104.132,41.167 104.344,41.167 104.470 C 41.167 104.596,41.392 104.910,41.667 105.167 C 41.942 105.424,42.167 105.737,42.167 105.863 C 42.167 105.990,42.317 106.201,42.500 106.333 C 42.683 106.465,42.833 106.698,42.833 106.850 C 42.833 107.002,43.133 107.436,43.500 107.813 C 43.867 108.191,44.167 108.613,44.167 108.750 C 44.167 108.888,44.232 109.000,44.311 109.000 C 44.525 109.000,46.333 110.775,46.333 110.986 C 46.333 111.085,46.408 111.167,46.500 111.167 C 46.592 111.167,46.667 111.283,46.667 111.426 C 46.667 111.794,49.126 114.167,49.507 114.167 C 49.693 114.167,50.833 115.254,50.833 115.430 C 50.833 115.604,52.047 116.667,52.246 116.667 C 52.345 116.667,52.535 116.817,52.667 117.000 C 52.799 117.183,52.986 117.333,53.083 117.333 C 53.180 117.333,53.368 117.483,53.500 117.667 C 53.632 117.850,53.857 118.000,54.000 118.000 C 54.143 118.000,54.368 118.150,54.500 118.333 C 54.632 118.517,54.844 118.667,54.970 118.667 C 55.096 118.667,55.424 118.907,55.698 119.201 C 56.224 119.764,56.623 120.036,57.375 120.344 C 57.627 120.448,57.833 120.600,57.833 120.683 C 57.833 120.766,57.967 120.833,58.130 120.833 C 58.293 120.833,58.535 120.983,58.667 121.167 C 58.799 121.350,59.040 121.500,59.203 121.500 C 59.367 121.500,59.500 121.575,59.500 121.667 C 59.500 121.758,59.650 121.833,59.833 121.833 C 60.017 121.833,60.167 121.908,60.167 122.000 C 60.167 122.092,60.317 122.167,60.500 122.167 C 60.683 122.167,60.833 122.242,60.833 122.333 C 60.833 122.425,60.969 122.500,61.135 122.500 C 61.301 122.500,61.598 122.650,61.795 122.833 C 61.992 123.017,62.268 123.167,62.410 123.167 C 62.551 123.167,62.667 123.242,62.667 123.333 C 62.667 123.425,62.892 123.500,63.167 123.500 C 63.442 123.500,63.667 123.575,63.667 123.667 C 63.667 123.758,63.809 123.833,63.982 123.833 C 64.156 123.833,64.341 123.946,64.394 124.083 C 64.446 124.221,64.604 124.333,64.745 124.333 C 64.885 124.333,65.000 124.408,65.000 124.500 C 65.000 124.592,65.146 124.667,65.323 124.667 C 65.501 124.667,65.693 124.742,65.750 124.833 C 65.807 124.925,66.057 125.000,66.306 125.000 C 66.569 125.000,66.861 125.141,67.000 125.333 C 67.141 125.529,67.431 125.667,67.703 125.667 C 67.958 125.667,68.167 125.742,68.167 125.833 C 68.167 125.925,68.392 126.000,68.667 126.000 C 68.942 126.000,69.167 126.075,69.167 126.167 C 69.167 126.258,69.429 126.333,69.750 126.333 C 70.071 126.333,70.333 126.408,70.333 126.500 C 70.333 126.592,70.558 126.667,70.833 126.667 C 71.108 126.667,71.333 126.742,71.333 126.833 C 71.333 126.925,71.633 127.000,72.000 127.000 C 72.367 127.000,72.667 127.075,72.667 127.167 C 72.667 127.258,72.929 127.333,73.250 127.333 C 73.571 127.333,73.833 127.408,73.833 127.500 C 73.833 127.592,74.208 127.667,74.667 127.667 C 75.125 127.667,75.500 127.742,75.500 127.833 C 75.500 127.925,75.867 128.000,76.316 128.000 C 76.887 128.000,77.160 128.075,77.227 128.250 C 77.298 128.434,77.588 128.500,78.328 128.500 C 78.887 128.500,79.333 128.574,79.333 128.667 C 79.333 128.765,79.917 128.833,80.750 128.833 C 81.583 128.833,82.167 128.902,82.167 129.000 C 82.167 129.111,119.199 129.167,192.931 129.167 C 281.467 129.167,303.681 129.125,303.626 128.958 C 303.588 128.844,303.338 128.731,303.070 128.709 C 302.803 128.686,302.208 128.596,301.750 128.508 C 301.292 128.420,300.429 128.267,299.833 128.167 C 296.216 127.559,293.261 126.897,292.740 126.578 C 292.551 126.462,291.630 126.131,290.693 125.841 C 289.756 125.552,288.742 125.170,288.441 124.992 C 288.139 124.814,287.547 124.564,287.125 124.437 C 286.703 124.310,286.139 124.051,285.872 123.861 C 285.605 123.671,284.964 123.357,284.446 123.164 C 283.929 122.970,283.461 122.738,283.405 122.647 C 283.349 122.556,282.916 122.298,282.443 122.072 C 281.970 121.846,281.203 121.419,280.737 121.122 C 280.272 120.826,279.644 120.433,279.341 120.250 C 279.039 120.067,278.595 119.758,278.354 119.565 C 278.113 119.372,277.673 119.089,277.375 118.936 C 277.077 118.783,276.833 118.601,276.833 118.532 C 276.833 118.462,276.590 118.264,276.292 118.091 C 275.994 117.918,275.600 117.635,275.417 117.463 C 275.233 117.290,274.446 116.627,273.667 115.989 C 271.292 114.044,266.886 109.408,265.204 107.083 C 265.138 106.991,264.889 106.654,264.652 106.333 C 263.781 105.156,263.000 104.000,263.000 103.890 C 263.000 103.827,262.896 103.658,262.769 103.513 C 262.450 103.148,260.739 100.161,260.041 98.750 C 259.724 98.108,259.288 97.225,259.071 96.787 C 258.855 96.349,258.367 95.187,257.988 94.204 C 257.608 93.221,257.237 92.267,257.163 92.083 C 257.089 91.900,256.900 91.337,256.743 90.833 C 256.587 90.329,256.355 89.614,256.229 89.244 C 256.103 88.875,256.000 88.401,256.000 88.192 C 256.000 87.983,255.911 87.648,255.803 87.447 C 255.694 87.247,255.549 86.783,255.480 86.417 C 255.411 86.050,255.229 85.188,255.074 84.500 C 253.799 78.818,253.696 70.724,254.827 65.000 C 254.908 64.587,255.062 63.762,255.169 63.167 C 255.612 60.686,255.701 60.215,255.856 59.500 C 256.178 58.022,256.561 56.746,256.756 56.500 C 256.865 56.362,257.121 55.612,257.325 54.833 C 257.529 54.054,257.849 53.154,258.036 52.833 C 258.223 52.512,258.519 51.838,258.693 51.334 C 258.868 50.829,259.183 50.154,259.395 49.834 C 259.606 49.513,259.834 49.030,259.901 48.760 C 259.967 48.491,260.186 48.041,260.386 47.760 C 260.586 47.480,260.919 46.913,261.126 46.500 C 261.572 45.612,262.035 44.838,262.689 43.889 C 262.951 43.508,263.167 43.126,263.167 43.040 C 263.167 42.955,263.324 42.742,263.517 42.568 C 263.710 42.393,263.983 42.026,264.124 41.750 C 264.264 41.475,264.575 41.010,264.815 40.717 C 265.054 40.423,265.700 39.611,266.250 38.911 C 268.430 36.137,271.847 32.727,274.702 30.473 C 275.737 29.657,276.694 28.898,276.829 28.786 C 278.163 27.685,282.960 24.830,285.417 23.675 C 286.425 23.201,287.475 22.707,287.750 22.577 C 288.591 22.179,292.236 20.834,292.475 20.834 C 292.598 20.834,292.936 20.730,293.225 20.604 C 293.723 20.387,294.780 20.088,296.833 19.583 C 298.997 19.050,301.977 18.577,304.487 18.367 C 305.372 18.293,305.916 18.173,305.959 18.042 C 306.014 17.875,283.667 17.833,194.597 17.833 C 120.421 17.833,83.167 17.889,83.167 18.000 M312.500 17.981 C 312.500 18.178,313.548 18.368,313.894 18.236 C 314.428 18.031,314.153 17.833,313.333 17.833 C 312.875 17.833,312.500 17.900,312.500 17.981 M323.500 19.833 C 323.305 19.959,323.351 19.995,323.708 19.997 C 323.960 19.999,324.167 19.925,324.167 19.833 C 324.167 19.623,323.826 19.623,323.500 19.833 M324.750 20.167 C 324.690 20.264,324.859 20.333,325.157 20.333 C 325.437 20.333,325.667 20.258,325.667 20.167 C 325.667 20.075,325.484 20.000,325.260 20.000 C 325.036 20.000,324.807 20.075,324.750 20.167 M326.167 20.500 C 326.167 20.592,326.354 20.667,326.583 20.667 C 326.813 20.667,327.000 20.592,327.000 20.500 C 327.000 20.408,326.813 20.333,326.583 20.333 C 326.354 20.333,326.167 20.408,326.167 20.500 M329.093 21.484 C 328.985 21.660,329.873 22.000,330.442 22.000 C 330.657 22.000,330.833 21.925,330.833 21.833 C 330.833 21.742,330.683 21.667,330.500 21.667 C 330.317 21.667,330.167 21.592,330.167 21.500 C 330.167 21.292,329.220 21.278,329.093 21.484 M332.444 22.778 C 332.218 23.004,332.345 23.167,332.750 23.167 C 333.009 23.167,333.167 23.072,333.167 22.917 C 333.167 22.667,332.654 22.568,332.444 22.778 M333.333 23.250 C 333.333 23.523,333.783 23.579,334.143 23.352 C 334.300 23.252,334.313 23.174,334.184 23.094 C 334.083 23.032,333.999 23.079,333.997 23.198 C 333.996 23.332,333.947 23.352,333.872 23.250 C 333.674 22.980,333.333 22.980,333.333 23.250 M334.750 24.000 C 334.693 24.092,334.764 24.167,334.907 24.167 C 335.050 24.167,335.167 24.242,335.167 24.333 C 335.167 24.425,335.354 24.500,335.583 24.500 C 335.813 24.500,336.000 24.425,336.000 24.333 C 336.000 24.242,335.850 24.167,335.667 24.167 C 335.483 24.167,335.333 24.092,335.333 24.000 C 335.333 23.908,335.225 23.833,335.093 23.833 C 334.961 23.833,334.807 23.908,334.750 24.000 M336.871 25.030 C 336.961 25.300,337.459 25.596,337.595 25.460 C 337.731 25.324,337.264 24.833,336.998 24.833 C 336.892 24.833,336.835 24.922,336.871 25.030 M338.667 26.063 C 338.667 26.440,339.146 26.754,339.373 26.527 C 339.518 26.382,339.486 26.275,339.241 26.089 C 338.831 25.779,338.667 25.772,338.667 26.063 M340.375 27.125 C 340.444 27.163,340.500 27.301,340.500 27.431 C 340.500 27.570,340.668 27.667,340.911 27.667 C 341.209 27.667,341.296 27.597,341.227 27.417 C 341.174 27.279,341.033 27.167,340.912 27.167 C 340.792 27.167,340.594 27.141,340.472 27.111 C 340.350 27.080,340.306 27.086,340.375 27.125 M341.833 27.986 C 341.833 28.366,342.062 28.667,342.351 28.667 C 342.525 28.667,342.667 28.592,342.667 28.500 C 342.667 28.408,342.554 28.333,342.417 28.333 C 342.279 28.333,342.167 28.221,342.167 28.083 C 342.167 27.946,342.092 27.833,342.000 27.833 C 341.908 27.833,341.833 27.902,341.833 27.986 M343.167 29.133 C 343.167 29.378,343.563 29.667,343.898 29.667 C 344.220 29.667,344.219 29.657,343.872 29.333 C 343.505 28.992,343.167 28.896,343.167 29.133 M344.444 30.125 C 344.402 30.194,344.543 30.381,344.757 30.542 C 345.207 30.879,345.495 30.638,345.106 30.249 C 344.836 29.978,344.564 29.928,344.444 30.125 M345.616 31.107 C 345.482 31.240,345.633 31.500,345.843 31.500 C 345.929 31.500,346.000 31.387,346.000 31.250 C 346.000 30.992,345.803 30.919,345.616 31.107 M346.566 31.764 C 346.621 31.909,346.667 32.134,346.667 32.264 C 346.667 32.394,346.798 32.501,346.958 32.502 C 347.119 32.502,347.427 32.727,347.644 33.002 C 347.860 33.276,348.142 33.500,348.269 33.500 C 348.396 33.500,348.500 33.581,348.500 33.681 C 348.500 33.781,348.912 34.265,349.417 34.757 C 349.921 35.249,350.333 35.722,350.333 35.807 C 350.333 35.892,350.521 36.085,350.750 36.235 C 350.979 36.385,351.167 36.618,351.167 36.754 C 351.167 36.889,351.279 37.000,351.417 37.000 C 351.554 37.000,351.667 37.065,351.667 37.144 C 351.667 37.318,353.060 38.833,353.220 38.833 C 353.477 38.833,353.304 38.439,352.865 38.025 C 352.607 37.782,352.347 37.452,352.287 37.292 C 352.226 37.131,352.062 37.000,351.922 37.000 C 351.782 37.000,351.667 36.880,351.667 36.734 C 351.667 36.495,346.793 31.500,346.560 31.500 C 346.507 31.500,346.510 31.619,346.566 31.764 M353.462 38.875 C 353.302 39.270,353.449 39.595,353.931 39.911 C 354.298 40.151,354.333 40.151,354.333 39.911 C 354.333 39.766,354.258 39.693,354.167 39.750 C 354.075 39.807,354.000 39.736,354.000 39.593 C 354.000 39.450,353.930 39.333,353.845 39.333 C 353.760 39.333,353.665 39.165,353.635 38.958 C 353.588 38.635,353.564 38.624,353.462 38.875 M354.333 40.583 C 354.333 40.721,354.396 40.833,354.472 40.833 C 354.548 40.833,354.712 41.023,354.836 41.256 C 354.973 41.510,355.157 41.642,355.300 41.587 C 355.467 41.523,355.506 41.578,355.431 41.772 C 355.371 41.929,355.447 42.182,355.605 42.357 C 355.944 42.731,356.167 42.755,356.167 42.417 C 356.167 42.279,356.092 42.167,356.000 42.167 C 355.908 42.167,355.833 42.070,355.833 41.951 C 355.833 41.737,354.615 40.333,354.430 40.333 C 354.377 40.333,354.333 40.446,354.333 40.583 M356.000 42.963 C 356.000 43.097,356.608 43.667,356.752 43.667 C 356.921 43.667,356.824 43.300,356.595 43.071 C 356.338 42.814,356.000 42.753,356.000 42.963 M356.833 44.083 C 356.833 44.221,356.908 44.333,357.000 44.333 C 357.092 44.333,357.167 44.451,357.167 44.595 C 357.167 44.848,357.543 45.333,357.738 45.333 C 357.897 45.333,357.845 44.865,357.679 44.806 C 357.594 44.775,357.501 44.639,357.471 44.504 C 357.356 43.982,356.833 43.637,356.833 44.083 M357.833 45.986 C 357.833 46.162,357.892 46.331,357.964 46.361 C 358.134 46.433,358.833 47.635,358.833 47.855 C 358.833 48.078,359.262 48.500,359.488 48.500 C 359.756 48.500,359.703 48.170,359.417 48.060 C 359.279 48.008,359.167 47.822,359.167 47.649 C 359.167 47.475,359.092 47.333,359.000 47.333 C 358.908 47.333,358.833 47.183,358.833 47.000 C 358.833 46.817,358.758 46.667,358.667 46.667 C 358.575 46.667,358.500 46.549,358.500 46.405 C 358.500 46.152,358.124 45.667,357.929 45.667 C 357.876 45.667,357.833 45.810,357.833 45.986 M359.500 49.069 C 359.500 49.306,359.569 49.500,359.653 49.500 C 359.738 49.500,359.855 49.720,359.914 49.988 C 359.973 50.257,360.129 50.566,360.261 50.676 C 360.392 50.785,360.500 51.048,360.500 51.261 C 360.500 51.733,360.647 51.833,361.083 51.658 C 361.267 51.584,361.323 51.518,361.208 51.512 C 361.094 51.505,361.000 51.350,361.000 51.167 C 361.000 50.983,360.925 50.833,360.833 50.833 C 360.742 50.833,360.667 50.683,360.667 50.500 C 360.667 50.317,360.592 50.167,360.500 50.167 C 360.408 50.167,360.333 50.058,360.333 49.925 C 360.333 49.792,360.226 49.623,360.095 49.550 C 359.964 49.476,359.870 49.275,359.887 49.101 C 359.903 48.928,359.823 48.753,359.708 48.712 C 359.576 48.666,359.500 48.797,359.500 49.069 M361.196 52.778 C 361.277 53.196,361.667 53.253,361.667 52.847 C 361.667 52.642,361.559 52.500,361.404 52.500 C 361.249 52.500,361.164 52.613,361.196 52.778 M361.667 54.010 C 361.667 54.307,361.736 54.477,361.833 54.417 C 361.926 54.360,362.000 54.482,362.000 54.690 C 362.000 54.983,362.044 55.022,362.200 54.867 C 362.356 54.711,362.356 54.622,362.200 54.467 C 362.090 54.357,362.000 54.094,362.000 53.883 C 362.000 53.672,361.925 53.500,361.833 53.500 C 361.742 53.500,361.667 53.729,361.667 54.010 M362.106 55.294 C 362.210 55.362,362.329 55.567,362.372 55.750 C 362.445 56.067,362.455 56.068,362.582 55.775 C 362.713 55.471,362.465 55.172,362.083 55.172 C 361.992 55.172,362.002 55.227,362.106 55.294 M362.669 56.625 C 362.668 57.015,362.742 57.333,362.833 57.333 C 363.046 57.333,363.046 56.496,362.833 56.167 C 362.715 55.984,362.671 56.106,362.669 56.625 M363.000 58.250 C 363.000 58.479,363.075 58.667,363.167 58.667 C 363.258 58.667,363.333 58.479,363.333 58.250 C 363.333 58.021,363.258 57.833,363.167 57.833 C 363.075 57.833,363.000 58.021,363.000 58.250 M363.667 60.500 C 363.667 60.683,363.734 60.833,363.816 60.833 C 364.003 60.833,364.178 60.400,364.044 60.266 C 363.843 60.066,363.667 60.175,363.667 60.500 M364.000 62.268 C 364.000 62.569,364.071 62.675,364.230 62.614 C 364.356 62.566,364.544 62.595,364.646 62.680 C 364.778 62.788,364.784 62.774,364.667 62.633 C 364.575 62.523,364.500 62.298,364.500 62.133 C 364.500 61.968,364.387 61.833,364.250 61.833 C 364.092 61.833,364.000 61.993,364.000 62.268 M72.808 62.602 C 75.118 63.261,76.679 64.540,77.738 66.642 C 78.468 68.092,78.494 68.461,77.875 68.588 C 77.623 68.639,77.145 68.753,76.814 68.841 C 75.803 69.108,75.712 69.059,75.186 67.958 C 72.814 62.993,66.124 63.752,64.373 69.185 C 63.631 71.485,64.017 76.011,65.128 78.053 C 66.779 81.085,71.338 81.822,73.913 79.473 C 74.710 78.746,75.667 77.182,75.667 76.606 C 75.667 75.912,77.951 75.896,78.640 76.584 C 78.929 76.873,77.502 79.847,76.613 80.810 C 73.554 84.125,66.534 84.014,63.540 80.604 C 60.072 76.654,60.138 68.522,63.666 65.002 C 65.903 62.771,69.806 61.746,72.808 62.602 M143.645 62.575 C 146.316 63.286,148.120 64.964,149.146 67.691 C 149.370 68.285,149.095 68.606,148.250 68.739 C 147.883 68.796,147.358 68.884,147.083 68.935 C 146.603 69.022,146.565 68.983,146.108 67.932 C 144.543 64.332,139.803 63.556,136.930 66.430 C 134.066 69.293,134.195 76.714,137.155 79.375 C 140.341 82.239,145.710 80.720,146.576 76.709 C 146.743 75.935,147.038 75.840,148.271 76.160 C 149.853 76.572,149.894 76.794,148.790 78.994 C 146.394 83.770,138.446 84.771,134.710 80.767 C 130.925 76.711,130.934 68.591,134.729 64.933 C 137.025 62.719,140.617 61.769,143.645 62.575 M364.333 64.167 C 364.333 64.500,364.417 64.667,364.583 64.667 C 364.750 64.667,364.833 64.500,364.833 64.167 C 364.833 63.833,364.750 63.667,364.583 63.667 C 364.417 63.667,364.333 63.833,364.333 64.167 M364.778 65.611 C 364.639 65.750,364.633 66.551,364.768 66.903 C 364.970 67.429,365.167 67.148,365.167 66.333 C 365.167 65.559,365.049 65.340,364.778 65.611 M89.960 68.319 C 95.583 70.374,95.946 79.958,90.500 82.565 C 87.152 84.167,82.855 82.795,81.371 79.650 C 79.161 74.966,80.963 69.722,85.333 68.118 C 86.002 67.873,89.108 68.007,89.960 68.319 M104.333 68.217 C 106.224 68.904,107.500 70.368,107.500 71.851 C 107.500 72.607,105.010 72.684,104.811 71.934 C 104.162 69.493,99.000 69.338,99.000 71.759 C 99.000 72.695,99.531 73.152,101.167 73.621 C 101.487 73.713,102.087 73.885,102.500 74.003 C 106.490 75.143,107.327 75.661,107.926 77.361 C 108.437 78.809,107.973 80.521,106.769 81.631 C 106.108 82.241,105.760 82.443,104.450 82.977 C 103.649 83.303,100.384 83.217,99.359 82.843 C 97.554 82.183,96.040 80.326,96.007 78.730 C 95.987 77.764,98.486 77.764,98.755 78.730 C 99.599 81.754,104.884 82.013,105.281 79.050 C 105.432 77.925,104.894 77.490,102.548 76.840 C 97.360 75.403,96.422 74.688,96.418 72.167 C 96.416 70.215,97.228 69.067,99.139 68.320 C 100.092 67.947,103.410 67.881,104.333 68.217 M175.070 68.255 C 175.406 68.396,175.717 68.604,175.761 68.718 C 175.885 69.041,175.053 70.921,174.803 70.884 C 174.682 70.866,174.246 70.766,173.833 70.663 C 172.434 70.314,171.411 70.939,170.828 72.500 C 170.677 72.905,170.581 74.563,170.514 77.917 L 170.417 82.750 169.125 82.799 L 167.833 82.847 167.833 75.583 L 167.833 68.319 169.042 68.368 L 170.250 68.417 170.302 68.958 C 170.365 69.613,170.436 69.626,170.878 69.065 C 171.704 68.014,173.611 67.646,175.070 68.255 M184.333 68.306 C 185.020 68.647,185.079 69.159,184.557 70.250 C 184.219 70.957,184.202 70.961,182.977 70.649 C 180.423 69.999,179.667 71.910,179.667 79.012 L 179.667 82.833 178.333 82.833 L 177.000 82.833 177.000 75.583 L 177.000 68.333 178.250 68.333 L 179.500 68.333 179.500 69.007 L 179.500 69.681 180.125 69.033 C 181.194 67.925,182.954 67.621,184.333 68.306 M194.450 68.190 C 195.756 68.722,196.053 68.907,196.834 69.667 C 198.213 71.011,199.136 73.581,198.969 75.612 L 198.917 76.250 193.625 76.294 L 188.333 76.338 188.333 76.913 C 188.333 81.155,193.923 82.657,195.860 78.935 L 196.197 78.288 197.374 78.386 C 198.858 78.511,198.963 78.613,198.594 79.578 C 198.044 81.019,196.604 82.290,194.723 82.997 C 193.679 83.389,190.407 83.155,189.211 82.603 C 183.988 80.192,184.208 70.841,189.545 68.416 C 190.532 67.967,193.561 67.828,194.450 68.190 M210.674 68.211 C 213.355 69.145,213.571 69.790,213.633 77.042 L 213.683 82.833 212.341 82.833 L 211.000 82.833 211.000 77.860 C 211.000 71.439,210.846 70.863,208.963 70.238 C 207.531 69.762,205.687 70.517,204.962 71.875 C 204.598 72.555,204.580 72.784,204.500 77.667 L 204.417 82.750 203.083 82.750 L 201.750 82.750 201.750 75.583 L 201.750 68.417 202.958 68.368 L 204.167 68.319 204.167 68.816 C 204.167 69.501,204.385 69.575,204.967 69.086 C 206.171 68.072,209.022 67.635,210.674 68.211 M226.054 68.470 C 227.131 68.983,228.166 70.104,228.634 71.265 C 229.079 72.371,229.040 72.439,227.809 72.698 C 226.664 72.938,226.412 72.843,226.081 72.051 C 224.793 68.969,220.667 69.510,219.483 72.917 C 219.124 73.951,219.172 77.354,219.561 78.475 C 220.777 81.973,225.460 81.971,226.357 78.472 L 226.563 77.667 227.440 77.667 C 229.212 77.667,229.420 78.038,228.645 79.824 C 227.674 82.061,225.792 83.167,222.954 83.167 C 220.950 83.167,220.136 82.888,218.731 81.721 C 215.781 79.270,215.568 72.769,218.340 69.762 C 218.920 69.133,219.458 68.794,220.833 68.191 C 221.625 67.844,225.133 68.032,226.054 68.470 M365.101 68.264 C 364.884 68.829,365.044 69.833,365.351 69.833 C 365.433 69.833,365.500 69.421,365.500 68.917 C 365.500 68.031,365.310 67.720,365.101 68.264 M112.634 69.292 C 113.874 72.732,115.814 78.328,115.907 78.732 C 116.070 79.440,116.280 79.050,117.290 76.167 C 118.557 72.549,119.282 70.529,119.714 69.417 L 120.102 68.417 121.384 68.368 C 122.973 68.308,122.987 67.919,121.233 72.594 C 120.445 74.697,119.739 76.604,119.665 76.833 C 119.517 77.289,119.071 78.492,117.501 82.667 C 115.510 87.959,114.502 89.050,111.851 88.778 C 110.744 88.664,110.719 88.639,110.534 87.461 C 110.351 86.290,110.307 86.333,111.689 86.333 C 113.641 86.333,115.303 83.902,114.576 82.108 C 114.290 81.404,110.869 72.330,109.986 69.933 C 109.719 69.208,109.500 68.552,109.500 68.474 C 109.500 68.397,110.127 68.333,110.894 68.333 L 112.289 68.333 112.634 69.292 M155.001 73.292 C 155.002 76.357,155.071 78.505,155.184 78.917 C 155.796 81.158,158.261 81.763,160.217 80.150 C 161.405 79.171,161.406 79.163,161.500 73.500 L 161.583 68.417 162.960 68.368 L 164.337 68.320 164.293 75.535 L 164.250 82.750 163.042 82.799 L 161.833 82.848 161.833 82.267 C 161.833 81.454,161.686 81.438,160.744 82.146 C 158.236 84.031,154.026 83.329,152.875 80.833 C 152.407 79.819,152.335 78.875,152.334 73.708 L 152.333 68.333 153.667 68.333 L 155.000 68.333 155.001 73.292 M233.358 70.583 C 233.788 71.775,234.440 73.612,234.806 74.667 C 235.172 75.721,235.693 77.216,235.962 77.990 L 236.452 79.396 236.743 78.490 C 237.077 77.445,238.325 73.943,239.545 70.625 L 240.388 68.333 241.705 68.333 C 242.992 68.333,243.020 68.342,242.917 68.708 C 242.790 69.157,242.363 70.327,241.746 71.917 C 241.497 72.558,241.121 73.571,240.911 74.167 C 240.516 75.283,239.686 77.538,238.916 79.583 C 238.674 80.225,238.135 81.688,237.717 82.833 C 235.950 87.685,234.748 89.008,232.305 88.786 C 231.067 88.674,230.901 88.514,230.756 87.292 L 230.643 86.333 231.869 86.333 C 233.466 86.333,233.996 85.934,234.591 84.284 C 235.113 82.839,235.110 82.783,234.428 81.043 C 234.114 80.240,232.957 77.183,231.858 74.250 C 230.759 71.317,229.807 68.782,229.743 68.618 C 229.635 68.343,229.741 68.324,231.101 68.368 L 232.576 68.417 233.358 70.583 M85.923 70.343 C 82.406 72.097,82.351 78.946,85.840 80.703 C 87.916 81.748,90.198 80.702,91.091 78.295 C 92.192 75.326,90.764 70.333,88.813 70.333 C 88.652 70.333,88.473 70.258,88.417 70.167 C 88.238 69.878,86.627 69.991,85.923 70.343 M190.689 70.461 C 189.624 71.003,188.915 71.910,188.589 73.145 C 188.296 74.254,188.016 74.182,192.421 74.128 L 196.083 74.083 196.028 73.500 C 195.772 70.821,193.038 69.265,190.689 70.461 M365.114 72.260 C 365.008 72.915,365.120 73.382,365.351 73.239 C 365.543 73.121,365.547 71.667,365.355 71.667 C 365.275 71.667,365.167 71.933,365.114 72.260 M365.290 75.945 C 365.074 76.278,364.978 77.571,365.150 77.829 C 365.424 78.235,365.520 77.928,365.467 76.811 C 365.439 76.227,365.360 75.838,365.290 75.945 M363.000 89.073 C 363.000 89.400,363.075 89.667,363.167 89.667 C 363.258 89.667,363.333 89.446,363.333 89.177 C 363.333 88.907,363.258 88.640,363.167 88.583 C 363.067 88.522,363.000 88.720,363.000 89.073 M362.667 90.333 C 362.667 90.517,362.742 90.667,362.833 90.667 C 362.925 90.667,363.000 90.517,363.000 90.333 C 363.000 90.150,362.925 90.000,362.833 90.000 C 362.742 90.000,362.667 90.150,362.667 90.333 M361.333 94.167 C 361.333 94.350,361.408 94.500,361.500 94.500 C 361.592 94.500,361.667 94.350,361.667 94.167 C 361.667 93.983,361.592 93.833,361.500 93.833 C 361.408 93.833,361.333 93.983,361.333 94.167 " stroke="none" fill="#b4ccfb" fill-rule="evenodd"></path><path id="path2" d="M305.333 18.865 C 302.279 19.114,302.119 19.132,301.175 19.312 C 300.666 19.409,299.987 19.532,299.667 19.585 C 297.385 19.963,296.887 20.078,294.667 20.740 C 294.162 20.891,293.487 21.084,293.167 21.169 C 292.846 21.254,292.171 21.482,291.667 21.676 C 291.162 21.870,290.600 22.066,290.417 22.112 C 290.233 22.159,289.858 22.295,289.583 22.416 C 289.308 22.537,288.746 22.763,288.333 22.918 C 287.921 23.074,287.471 23.265,287.333 23.343 C 286.667 23.723,285.267 24.333,285.063 24.333 C 284.937 24.333,284.833 24.393,284.833 24.466 C 284.833 24.539,284.140 24.955,283.292 25.391 C 282.444 25.828,281.300 26.480,280.750 26.841 C 280.200 27.202,279.637 27.549,279.500 27.611 C 279.362 27.674,278.575 28.219,277.750 28.823 C 276.925 29.427,276.063 30.044,275.833 30.193 C 275.604 30.342,275.179 30.679,274.888 30.941 C 274.598 31.202,273.923 31.792,273.388 32.250 C 272.162 33.302,269.368 36.099,268.167 37.476 C 267.662 38.055,267.063 38.743,266.833 39.006 C 266.604 39.269,266.192 39.789,265.917 40.163 C 265.642 40.536,265.192 41.131,264.917 41.485 C 264.642 41.839,264.287 42.343,264.129 42.606 C 263.971 42.868,263.544 43.533,263.180 44.083 C 262.816 44.633,262.398 45.345,262.251 45.664 C 262.104 45.984,261.846 46.396,261.678 46.581 C 261.509 46.766,261.317 47.104,261.251 47.333 C 261.185 47.563,260.922 48.087,260.667 48.500 C 260.411 48.913,260.148 49.438,260.083 49.667 C 260.017 49.896,259.744 50.472,259.476 50.947 C 259.208 51.421,258.873 52.209,258.730 52.697 C 258.588 53.184,258.365 53.749,258.236 53.952 C 257.951 54.399,257.616 55.380,257.252 56.833 C 257.103 57.429,256.729 58.592,256.420 59.417 C 255.157 62.795,254.505 68.332,254.635 74.583 C 254.717 78.525,255.277 83.650,255.800 85.250 C 255.890 85.525,256.054 86.200,256.164 86.750 C 256.275 87.300,256.461 88.050,256.578 88.417 C 256.695 88.783,257.036 89.871,257.336 90.833 C 257.855 92.498,257.976 92.829,258.600 94.292 C 259.196 95.690,259.333 95.990,260.177 97.750 C 261.875 101.293,264.441 105.277,267.223 108.687 C 269.310 111.245,273.975 115.778,275.833 117.051 C 276.063 117.208,276.587 117.595,277.000 117.911 C 278.298 118.907,279.657 119.833,279.819 119.833 C 279.904 119.833,280.186 120.007,280.446 120.220 C 280.970 120.651,282.155 121.347,283.417 121.966 C 283.875 122.190,284.362 122.472,284.500 122.591 C 284.637 122.710,285.181 122.969,285.708 123.166 C 286.236 123.363,286.767 123.624,286.890 123.747 C 287.012 123.870,287.607 124.122,288.210 124.309 C 288.813 124.495,289.669 124.828,290.112 125.048 C 290.554 125.268,291.817 125.693,292.917 125.991 C 294.017 126.289,295.104 126.628,295.333 126.744 C 296.041 127.101,296.881 127.368,297.750 127.514 C 298.208 127.591,298.996 127.732,299.500 127.828 C 302.727 128.440,303.219 128.474,309.417 128.517 C 311.525 128.531,314.000 128.457,314.917 128.353 C 317.987 128.002,320.195 127.648,321.833 127.245 C 322.429 127.099,323.217 126.920,323.583 126.848 C 323.950 126.775,324.438 126.638,324.667 126.542 C 324.896 126.447,325.533 126.237,326.083 126.075 C 326.633 125.914,327.320 125.681,327.609 125.557 C 327.897 125.434,328.214 125.333,328.311 125.333 C 328.409 125.333,328.735 125.227,329.036 125.097 C 329.337 124.967,329.857 124.742,330.192 124.597 C 330.527 124.452,330.859 124.333,330.930 124.333 C 331.073 124.333,334.440 122.752,334.833 122.500 C 334.971 122.412,335.533 122.109,336.083 121.827 C 337.238 121.235,337.449 121.110,338.532 120.375 C 338.971 120.077,339.369 119.833,339.417 119.833 C 339.464 119.833,339.878 119.571,340.335 119.250 C 340.792 118.929,341.560 118.392,342.042 118.056 C 344.745 116.167,349.019 112.210,351.372 109.416 C 351.990 108.683,352.591 107.970,352.708 107.831 C 352.825 107.692,353.107 107.318,353.333 107.000 C 353.560 106.682,353.845 106.308,353.967 106.169 C 354.299 105.791,354.945 104.826,355.314 104.156 C 355.495 103.829,355.761 103.462,355.906 103.342 C 356.052 103.221,356.311 102.805,356.483 102.416 C 356.655 102.028,356.877 101.659,356.976 101.598 C 357.076 101.536,357.312 101.136,357.502 100.708 C 357.691 100.279,357.954 99.810,358.085 99.664 C 358.217 99.519,358.437 99.080,358.575 98.689 C 358.713 98.298,358.978 97.785,359.163 97.550 C 359.349 97.314,359.612 96.745,359.749 96.285 C 359.885 95.825,360.157 95.179,360.352 94.849 C 360.547 94.520,360.881 93.688,361.094 93.000 C 361.306 92.313,361.673 91.287,361.908 90.721 C 362.471 89.369,363.536 84.337,364.154 80.121 C 364.645 76.764,364.795 68.764,364.378 68.110 C 364.310 68.004,364.198 67.354,364.128 66.667 C 364.006 65.466,363.862 64.477,363.519 62.500 C 363.381 61.703,362.858 59.743,362.096 57.167 C 361.832 56.276,361.052 54.056,360.837 53.583 C 360.345 52.503,360.000 51.668,359.998 51.551 C 359.997 51.477,359.478 50.391,358.845 49.138 C 355.151 41.825,350.473 36.063,343.690 30.473 C 343.176 30.049,342.051 29.226,341.583 28.932 C 341.308 28.759,340.971 28.514,340.833 28.387 C 340.365 27.957,339.418 27.335,338.707 26.992 C 338.317 26.804,337.867 26.514,337.707 26.347 C 337.547 26.181,337.136 25.954,336.794 25.843 C 336.452 25.733,336.123 25.563,336.063 25.467 C 336.003 25.371,335.465 25.070,334.867 24.799 C 334.268 24.527,333.594 24.184,333.368 24.036 C 333.143 23.888,332.536 23.626,332.021 23.453 C 331.505 23.279,330.971 23.044,330.833 22.930 C 330.533 22.680,329.848 22.416,328.833 22.159 C 328.421 22.055,327.578 21.749,326.961 21.480 C 322.730 19.634,311.926 18.328,305.333 18.865 M313.994 29.082 C 318.439 29.669,322.514 30.572,324.616 31.438 C 325.367 31.747,326.072 32.000,326.184 32.000 C 326.295 32.000,326.918 32.258,327.568 32.574 C 328.218 32.890,329.087 33.307,329.500 33.502 C 330.761 34.096,331.917 34.731,332.456 35.125 C 332.738 35.331,333.040 35.500,333.128 35.500 C 333.216 35.500,333.560 35.706,333.893 35.958 C 334.225 36.210,334.876 36.679,335.338 37.000 C 336.685 37.935,337.895 38.845,338.188 39.141 C 338.336 39.293,338.934 39.829,339.516 40.333 C 340.753 41.406,340.852 41.503,342.524 43.288 C 346.148 47.159,349.610 52.713,351.434 57.583 C 353.449 62.965,354.290 67.374,354.425 73.250 C 354.524 77.579,353.197 85.524,351.856 88.635 C 351.591 89.248,351.325 89.965,351.263 90.228 C 351.125 90.814,348.527 96.131,348.314 96.262 C 348.229 96.314,347.972 96.708,347.741 97.137 C 347.511 97.566,347.096 98.217,346.819 98.583 C 346.542 98.950,346.114 99.551,345.866 99.919 C 345.266 100.813,344.461 101.877,344.229 102.083 C 344.126 102.175,343.491 102.888,342.818 103.667 C 342.145 104.446,341.535 105.126,341.461 105.178 C 341.388 105.230,340.673 105.878,339.872 106.618 C 337.724 108.604,335.700 110.123,332.619 112.063 C 331.305 112.890,327.659 114.690,326.333 115.166 C 325.737 115.379,325.175 115.607,325.083 115.671 C 324.992 115.735,324.467 115.918,323.917 116.078 C 323.367 116.237,322.560 116.473,322.125 116.601 C 321.690 116.729,320.977 116.938,320.542 117.065 C 319.719 117.306,318.894 117.479,316.500 117.914 C 311.459 118.828,303.247 118.457,298.740 117.112 C 298.012 116.895,296.504 116.445,295.388 116.111 C 294.273 115.777,293.110 115.362,292.805 115.187 C 292.500 115.013,291.984 114.786,291.659 114.683 C 290.324 114.262,286.111 111.946,284.500 110.747 C 284.179 110.509,283.504 110.022,283.000 109.665 C 276.904 105.349,270.642 97.303,268.085 90.500 C 267.929 90.087,267.705 89.525,267.587 89.250 C 267.335 88.667,267.001 87.656,266.597 86.250 C 266.439 85.700,266.245 85.025,266.167 84.750 C 263.387 75.072,264.675 63.214,269.555 53.543 C 270.940 50.799,271.383 50.057,272.913 47.917 C 273.241 47.458,273.635 46.896,273.789 46.667 C 273.942 46.438,274.684 45.538,275.436 44.667 C 278.754 40.825,283.046 37.221,287.046 34.920 C 287.928 34.412,292.225 32.292,292.620 32.169 C 292.875 32.090,293.496 31.863,294.000 31.665 C 294.504 31.467,295.142 31.243,295.417 31.167 C 295.692 31.091,296.142 30.952,296.417 30.859 C 298.306 30.214,301.603 29.465,303.833 29.176 C 306.854 28.783,311.408 28.741,313.994 29.082 M314.294 41.180 C 312.975 41.491,311.748 42.792,311.339 44.314 C 311.237 44.691,311.138 45.006,311.119 45.014 C 311.099 45.022,310.108 45.060,308.917 45.099 C 306.658 45.174,303.045 45.811,302.036 46.313 C 301.879 46.392,301.161 46.740,300.441 47.087 C 292.570 50.886,289.964 61.643,295.255 68.500 C 296.226 69.759,298.668 71.978,299.656 72.498 C 299.880 72.615,300.212 72.852,300.396 73.023 C 300.579 73.193,300.818 73.333,300.926 73.333 C 301.033 73.333,301.330 73.502,301.585 73.708 C 302.060 74.093,303.348 74.795,305.042 75.592 C 305.992 76.040,306.000 76.050,306.000 76.767 C 306.000 77.848,304.345 87.027,304.075 87.447 L 303.840 87.811 302.803 87.405 C 302.232 87.181,301.495 86.811,301.165 86.582 C 300.835 86.354,300.502 86.167,300.424 86.167 C 300.346 86.167,299.975 85.937,299.600 85.656 C 299.224 85.376,298.504 84.844,298.000 84.474 C 297.496 84.105,296.708 83.480,296.250 83.086 C 293.855 81.026,293.437 80.812,291.583 80.706 C 286.098 80.393,284.305 87.159,288.958 90.613 C 289.302 90.869,290.048 91.454,290.615 91.914 C 291.767 92.848,293.514 94.000,293.777 94.000 C 293.871 94.000,294.082 94.148,294.246 94.329 C 294.410 94.510,294.703 94.705,294.897 94.763 C 295.091 94.821,295.587 95.064,296.000 95.304 C 296.997 95.883,298.978 96.764,300.410 97.265 C 301.951 97.804,301.890 97.635,301.472 100.199 C 300.880 103.827,301.661 105.640,304.077 106.249 C 307.148 107.024,308.721 105.630,309.420 101.511 C 309.721 99.741,309.886 99.333,310.298 99.334 C 317.840 99.352,322.999 97.270,326.086 92.962 C 327.958 90.350,329.083 85.826,328.673 82.566 C 328.193 78.754,326.517 75.814,323.259 73.073 C 322.378 72.331,321.700 71.860,319.419 70.401 C 318.651 69.910,317.348 69.211,316.288 68.720 C 314.991 68.121,314.997 68.259,316.003 62.542 C 316.903 57.428,317.013 57.000,317.417 57.000 C 317.936 57.000,320.609 58.681,322.668 60.303 C 327.266 63.925,333.725 58.581,330.616 53.727 C 330.021 52.799,326.945 50.167,326.455 50.167 C 326.371 50.167,326.067 49.999,325.779 49.795 C 325.019 49.253,322.938 48.213,321.500 47.655 C 320.813 47.388,320.006 47.020,319.707 46.836 L 319.164 46.503 319.265 45.377 C 319.522 42.514,317.145 40.508,314.294 41.180 M309.458 54.772 C 310.028 54.924,310.021 55.000,308.738 61.896 C 308.243 64.560,308.207 64.611,307.191 64.096 C 305.083 63.027,303.915 61.231,304.047 59.257 C 304.221 56.636,305.196 55.577,308.083 54.872 C 308.957 54.658,309.018 54.654,309.458 54.772 M314.275 80.210 C 319.180 83.092,317.781 89.667,312.262 89.667 C 311.216 89.667,311.216 89.677,311.914 85.750 C 312.060 84.925,312.330 83.396,312.513 82.352 C 312.989 79.639,313.091 79.515,314.275 80.210 " stroke="none" fill="#f9c741" fill-rule="evenodd"></path><path id="path3" d="M67.722 62.663 C 63.329 63.960,60.995 67.418,61.003 72.616 C 61.010 76.867,62.401 80.080,64.988 81.818 C 68.335 84.068,74.065 83.571,76.613 80.810 C 77.502 79.847,78.929 76.873,78.640 76.584 C 77.951 75.896,75.667 75.912,75.667 76.606 C 75.667 77.182,74.710 78.746,73.913 79.473 C 71.338 81.822,66.779 81.085,65.128 78.053 C 64.017 76.011,63.631 71.485,64.373 69.185 C 66.124 63.752,72.814 62.993,75.186 67.958 C 75.712 69.059,75.803 69.108,76.814 68.841 C 77.145 68.753,77.623 68.639,77.875 68.588 C 78.494 68.461,78.468 68.092,77.738 66.642 C 75.964 63.121,71.788 61.461,67.722 62.663 M138.500 62.732 C 132.415 64.587,130.009 72.044,133.307 78.828 C 136.129 84.632,145.908 84.737,148.790 78.994 C 149.894 76.794,149.853 76.572,148.271 76.160 C 147.038 75.840,146.743 75.935,146.576 76.709 C 145.710 80.720,140.341 82.239,137.155 79.375 C 134.195 76.714,134.066 69.293,136.930 66.430 C 139.803 63.556,144.543 64.332,146.108 67.932 C 146.565 68.983,146.603 69.022,147.083 68.935 C 147.358 68.884,147.883 68.796,148.250 68.739 C 149.447 68.551,149.480 68.277,148.542 66.351 C 146.958 63.099,142.530 61.504,138.500 62.732 M85.333 68.118 C 80.963 69.722,79.161 74.966,81.371 79.650 C 83.569 84.310,90.892 84.443,93.382 79.868 C 95.196 76.534,94.328 71.204,91.651 69.238 C 90.184 68.162,86.834 67.568,85.333 68.118 M99.139 68.320 C 97.228 69.067,96.416 70.215,96.418 72.167 C 96.422 74.688,97.360 75.403,102.548 76.840 C 104.894 77.490,105.432 77.925,105.281 79.050 C 104.884 82.013,99.599 81.754,98.755 78.730 C 98.486 77.764,95.987 77.764,96.007 78.730 C 96.040 80.326,97.554 82.183,99.359 82.843 C 100.384 83.217,103.649 83.303,104.450 82.977 C 105.760 82.443,106.108 82.241,106.769 81.631 C 107.973 80.521,108.437 78.809,107.926 77.361 C 107.327 75.661,106.490 75.143,102.500 74.003 C 102.087 73.885,101.487 73.713,101.167 73.621 C 99.531 73.152,99.000 72.695,99.000 71.759 C 99.000 69.338,104.162 69.493,104.811 71.934 C 105.010 72.684,107.500 72.607,107.500 71.851 C 107.500 68.950,102.705 66.925,99.139 68.320 M171.735 68.315 C 171.452 68.488,171.066 68.825,170.878 69.065 C 170.436 69.626,170.365 69.613,170.302 68.958 L 170.250 68.417 169.042 68.368 L 167.833 68.319 167.833 75.583 L 167.833 82.847 169.125 82.799 L 170.417 82.750 170.514 77.917 C 170.581 74.563,170.677 72.905,170.828 72.500 C 171.411 70.939,172.434 70.314,173.833 70.663 C 174.246 70.766,174.682 70.866,174.803 70.884 C 175.053 70.921,175.885 69.041,175.761 68.718 C 175.492 68.019,172.683 67.737,171.735 68.315 M181.083 68.198 C 180.900 68.301,180.469 68.677,180.125 69.033 L 179.500 69.681 179.500 69.007 L 179.500 68.333 178.250 68.333 L 177.000 68.333 177.000 75.583 L 177.000 82.833 178.333 82.833 L 179.667 82.833 179.667 79.012 C 179.667 71.910,180.423 69.999,182.977 70.649 C 184.202 70.961,184.219 70.957,184.557 70.250 C 185.079 69.159,185.020 68.647,184.333 68.306 C 183.657 67.970,181.609 67.902,181.083 68.198 M189.545 68.416 C 184.208 70.841,183.988 80.192,189.211 82.603 C 190.407 83.155,193.679 83.389,194.723 82.997 C 196.604 82.290,198.044 81.019,198.594 79.578 C 198.963 78.613,198.858 78.511,197.374 78.386 L 196.197 78.288 195.860 78.935 C 193.923 82.657,188.333 81.155,188.333 76.913 L 188.333 76.338 193.625 76.294 L 198.917 76.250 198.969 75.612 C 199.136 73.581,198.213 71.011,196.834 69.667 C 196.053 68.907,195.756 68.722,194.450 68.190 C 193.561 67.828,190.532 67.967,189.545 68.416 M206.189 68.346 C 205.789 68.524,205.239 68.857,204.967 69.086 C 204.385 69.575,204.167 69.501,204.167 68.816 L 204.167 68.319 202.958 68.368 L 201.750 68.417 201.750 75.583 L 201.750 82.750 203.083 82.750 L 204.417 82.750 204.500 77.667 C 204.580 72.784,204.598 72.555,204.962 71.875 C 205.687 70.517,207.531 69.762,208.963 70.238 C 210.846 70.863,211.000 71.439,211.000 77.860 L 211.000 82.833 212.341 82.833 L 213.683 82.833 213.633 77.042 C 213.575 70.240,213.489 69.859,211.757 68.736 C 210.497 67.919,207.609 67.716,206.189 68.346 M220.833 68.191 C 219.458 68.794,218.920 69.133,218.340 69.762 C 215.568 72.769,215.781 79.270,218.731 81.721 C 220.136 82.888,220.950 83.167,222.954 83.167 C 225.792 83.167,227.674 82.061,228.645 79.824 C 229.420 78.038,229.212 77.667,227.440 77.667 L 226.563 77.667 226.357 78.472 C 225.460 81.971,220.777 81.973,219.561 78.475 C 219.172 77.354,219.124 73.951,219.483 72.917 C 220.667 69.510,224.793 68.969,226.081 72.051 C 226.412 72.843,226.664 72.938,227.809 72.698 C 229.040 72.439,229.079 72.371,228.634 71.265 C 228.166 70.104,227.131 68.983,226.054 68.470 C 225.133 68.032,221.625 67.844,220.833 68.191 M109.500 68.474 C 109.500 68.552,109.719 69.208,109.986 69.933 C 110.869 72.330,114.290 81.404,114.576 82.108 C 115.303 83.902,113.641 86.333,111.689 86.333 C 110.307 86.333,110.351 86.290,110.534 87.461 C 110.719 88.639,110.744 88.664,111.851 88.778 C 114.502 89.050,115.510 87.959,117.501 82.667 C 119.071 78.492,119.517 77.289,119.665 76.833 C 119.739 76.604,120.445 74.697,121.233 72.594 C 122.987 67.919,122.973 68.308,121.384 68.368 L 120.102 68.417 119.714 69.417 C 119.282 70.529,118.557 72.549,117.290 76.167 C 116.280 79.050,116.070 79.440,115.907 78.732 C 115.814 78.328,113.874 72.732,112.634 69.292 L 112.289 68.333 110.894 68.333 C 110.127 68.333,109.500 68.397,109.500 68.474 M152.334 73.708 C 152.335 78.875,152.407 79.819,152.875 80.833 C 154.026 83.329,158.236 84.031,160.744 82.146 C 161.686 81.438,161.833 81.454,161.833 82.267 L 161.833 82.848 163.042 82.799 L 164.250 82.750 164.293 75.535 L 164.337 68.320 162.960 68.368 L 161.583 68.417 161.500 73.500 C 161.406 79.163,161.405 79.171,160.217 80.150 C 158.261 81.763,155.796 81.158,155.184 78.917 C 155.071 78.505,155.002 76.357,155.001 73.292 L 155.000 68.333 153.667 68.333 L 152.333 68.333 152.334 73.708 M229.743 68.618 C 229.807 68.782,230.759 71.317,231.858 74.250 C 232.957 77.183,234.114 80.240,234.428 81.043 C 235.110 82.783,235.113 82.839,234.591 84.284 C 233.996 85.934,233.466 86.333,231.869 86.333 L 230.643 86.333 230.756 87.292 C 230.901 88.514,231.067 88.674,232.305 88.786 C 234.748 89.008,235.950 87.685,237.717 82.833 C 238.135 81.688,238.674 80.225,238.916 79.583 C 239.686 77.538,240.516 75.283,240.911 74.167 C 241.121 73.571,241.497 72.558,241.746 71.917 C 242.363 70.327,242.790 69.157,242.917 68.708 C 243.020 68.342,242.992 68.333,241.705 68.333 L 240.388 68.333 239.545 70.625 C 238.325 73.943,237.077 77.445,236.743 78.490 L 236.452 79.396 235.962 77.990 C 235.693 77.216,235.172 75.721,234.806 74.667 C 234.440 73.612,233.788 71.775,233.358 70.583 L 232.576 68.417 231.101 68.368 C 229.741 68.324,229.635 68.343,229.743 68.618 M88.417 70.167 C 88.473 70.258,88.652 70.333,88.813 70.333 C 90.764 70.333,92.192 75.326,91.091 78.295 C 89.933 81.417,86.332 82.083,84.388 79.535 C 82.798 77.450,83.016 72.805,84.783 71.128 C 85.764 70.196,88.060 69.589,88.417 70.167 M193.695 70.311 C 194.980 70.866,195.895 72.116,196.028 73.500 L 196.083 74.083 192.421 74.128 C 188.016 74.182,188.296 74.254,188.589 73.145 C 189.225 70.733,191.607 69.411,193.695 70.311 " stroke="none" fill="#f8f9fc" fill-rule="evenodd"></path><path id="path4" d="M309.000 17.667 C 309.000 17.765,308.395 17.833,307.518 17.833 C 306.389 17.833,306.014 17.890,305.945 18.071 C 305.880 18.240,305.453 18.333,304.468 18.394 C 302.199 18.535,299.059 19.029,296.750 19.608 C 294.371 20.204,293.720 20.389,293.225 20.604 C 292.936 20.730,292.598 20.834,292.475 20.834 C 292.236 20.834,288.591 22.179,287.750 22.577 C 287.475 22.707,286.425 23.201,285.417 23.675 C 282.960 24.830,278.163 27.685,276.829 28.786 C 276.694 28.898,275.737 29.657,274.702 30.473 C 271.847 32.727,268.430 36.137,266.250 38.911 C 265.700 39.611,265.054 40.423,264.815 40.717 C 264.575 41.010,264.264 41.475,264.124 41.750 C 263.983 42.026,263.710 42.393,263.517 42.568 C 263.324 42.742,263.167 42.955,263.167 43.040 C 263.167 43.126,262.951 43.508,262.689 43.889 C 262.035 44.838,261.572 45.612,261.126 46.500 C 260.919 46.913,260.586 47.480,260.386 47.760 C 260.186 48.041,259.967 48.491,259.901 48.760 C 259.834 49.030,259.606 49.513,259.395 49.834 C 259.183 50.154,258.868 50.829,258.693 51.334 C 258.519 51.838,258.223 52.512,258.036 52.833 C 257.849 53.154,257.529 54.054,257.325 54.833 C 257.121 55.612,256.865 56.362,256.756 56.500 C 256.467 56.865,255.912 58.993,255.497 61.333 C 255.203 62.987,254.986 64.173,254.825 65.000 C 253.696 70.795,253.799 78.818,255.074 84.500 C 255.229 85.188,255.411 86.050,255.480 86.417 C 255.549 86.783,255.694 87.247,255.803 87.447 C 255.911 87.648,256.000 87.983,256.000 88.192 C 256.000 88.401,256.103 88.875,256.229 89.244 C 256.355 89.614,256.587 90.329,256.743 90.833 C 256.900 91.337,257.089 91.900,257.163 92.083 C 257.237 92.267,257.608 93.221,257.988 94.204 C 258.367 95.187,258.855 96.349,259.071 96.787 C 259.288 97.225,259.724 98.108,260.041 98.750 C 260.739 100.161,262.450 103.148,262.769 103.513 C 262.896 103.658,263.000 103.827,263.000 103.890 C 263.000 104.000,263.781 105.156,264.652 106.333 C 264.889 106.654,265.138 106.991,265.204 107.083 C 266.886 109.408,271.292 114.044,273.667 115.989 C 274.446 116.627,275.233 117.290,275.417 117.463 C 275.600 117.635,275.994 117.918,276.292 118.091 C 276.590 118.264,276.833 118.462,276.833 118.532 C 276.833 118.601,277.077 118.783,277.375 118.936 C 277.673 119.089,278.113 119.372,278.354 119.565 C 278.595 119.758,279.039 120.067,279.341 120.250 C 279.644 120.433,280.272 120.826,280.737 121.122 C 281.203 121.419,281.970 121.846,282.443 122.072 C 282.916 122.298,283.349 122.556,283.405 122.647 C 283.461 122.738,283.929 122.970,284.446 123.164 C 284.964 123.357,285.605 123.671,285.872 123.861 C 286.139 124.051,286.703 124.310,287.125 124.437 C 287.547 124.564,288.139 124.814,288.441 124.992 C 288.742 125.170,289.756 125.552,290.693 125.841 C 291.630 126.131,292.551 126.462,292.740 126.578 C 293.271 126.904,296.676 127.661,299.917 128.175 C 300.558 128.276,301.355 128.429,301.686 128.513 C 302.017 128.598,302.564 128.667,302.900 128.667 C 303.289 128.667,303.545 128.757,303.606 128.917 C 303.664 129.067,303.915 129.167,304.234 129.167 C 304.527 129.167,304.857 129.257,304.967 129.367 C 305.122 129.522,305.211 129.522,305.367 129.367 C 305.609 129.124,306.167 129.101,306.167 129.333 C 306.167 129.425,306.312 129.500,306.490 129.500 C 306.668 129.500,306.860 129.575,306.917 129.667 C 307.098 129.960,307.500 129.845,307.500 129.500 C 307.500 129.230,307.611 129.167,308.083 129.167 C 308.562 129.167,308.667 129.228,308.667 129.512 C 308.667 129.753,308.755 129.840,308.958 129.798 C 309.119 129.764,309.240 129.609,309.227 129.452 C 309.214 129.295,309.308 129.167,309.435 129.167 C 309.563 129.167,309.667 129.224,309.667 129.293 C 309.667 129.561,310.367 129.866,310.553 129.680 C 310.652 129.581,310.868 129.500,311.033 129.500 C 311.198 129.500,311.333 129.425,311.333 129.333 C 311.333 129.231,312.156 129.167,313.467 129.167 C 314.640 129.167,315.671 129.097,315.758 129.012 C 315.845 128.927,316.929 128.817,318.167 128.767 C 321.311 128.640,322.339 128.512,322.446 128.234 C 322.502 128.089,322.781 128.000,323.184 128.000 C 323.541 128.000,323.833 127.925,323.833 127.833 C 323.833 127.742,324.215 127.667,324.682 127.667 C 325.391 127.667,325.546 127.612,325.618 127.333 C 325.667 127.149,325.846 127.000,326.019 127.000 C 326.192 127.000,326.333 126.925,326.333 126.833 C 326.333 126.742,326.483 126.667,326.667 126.667 C 326.850 126.667,327.000 126.592,327.000 126.500 C 327.000 126.408,327.300 126.333,327.667 126.333 C 328.033 126.333,328.333 126.258,328.333 126.167 C 328.333 126.075,328.746 126.000,329.250 126.000 C 329.754 126.000,330.167 125.925,330.167 125.833 C 330.167 125.742,330.374 125.667,330.627 125.667 C 330.906 125.667,331.168 125.536,331.295 125.333 C 331.437 125.105,331.683 125.000,332.075 125.000 C 332.390 125.000,332.693 124.925,332.750 124.833 C 332.807 124.742,332.999 124.667,333.177 124.667 C 333.410 124.667,333.500 124.551,333.500 124.250 C 333.500 123.867,333.561 123.833,334.250 123.833 C 334.662 123.833,335.000 123.758,335.000 123.667 C 335.000 123.575,335.133 123.500,335.297 123.500 C 335.460 123.500,335.701 123.350,335.833 123.167 C 335.965 122.983,336.252 122.833,336.469 122.833 C 336.724 122.833,336.895 122.715,336.952 122.500 C 337.000 122.316,337.179 122.167,337.353 122.167 C 337.525 122.167,337.667 122.092,337.667 122.000 C 337.667 121.908,337.808 121.833,337.981 121.833 C 338.391 121.833,339.193 121.415,339.053 121.275 C 338.993 121.216,339.093 121.167,339.274 121.167 C 339.455 121.167,339.765 121.017,339.962 120.833 C 340.158 120.650,340.418 120.500,340.540 120.500 C 340.661 120.500,340.868 120.350,341.000 120.167 C 341.132 119.983,341.326 119.833,341.430 119.833 C 341.535 119.833,341.761 119.646,341.933 119.417 C 342.105 119.188,342.340 119.000,342.456 119.000 C 342.572 119.000,342.667 118.925,342.667 118.833 C 342.667 118.742,342.787 118.667,342.933 118.667 C 343.080 118.667,343.410 118.442,343.667 118.167 C 343.924 117.892,344.254 117.667,344.400 117.667 C 344.556 117.667,344.667 117.528,344.667 117.333 C 344.667 117.125,344.778 117.000,344.963 117.000 C 345.126 117.000,345.368 116.850,345.500 116.667 C 345.632 116.483,345.874 116.333,346.037 116.333 C 346.222 116.333,346.333 116.208,346.333 116.000 C 346.333 115.811,346.444 115.667,346.590 115.667 C 346.913 115.667,348.167 114.403,348.167 114.077 C 348.167 113.943,348.281 113.833,348.420 113.833 C 348.749 113.833,350.833 111.749,350.833 111.420 C 350.833 111.281,350.967 111.167,351.130 111.167 C 351.440 111.167,352.000 110.622,352.000 110.321 C 352.000 110.224,352.375 109.780,352.833 109.333 C 353.292 108.887,353.667 108.434,353.667 108.328 C 353.667 108.221,353.892 107.924,354.167 107.667 C 354.442 107.410,354.667 107.078,354.667 106.930 C 354.667 106.782,354.929 106.406,355.250 106.094 C 355.685 105.672,355.834 105.386,355.836 104.972 C 355.838 104.591,355.884 104.489,355.984 104.646 C 356.154 104.915,356.500 104.755,356.500 104.407 C 356.500 104.275,356.575 104.167,356.667 104.167 C 356.758 104.167,356.833 103.907,356.833 103.589 C 356.833 103.148,356.892 103.033,357.079 103.105 C 357.479 103.258,357.833 102.746,357.833 102.012 C 357.833 101.506,357.900 101.333,358.095 101.333 C 358.551 101.333,358.833 100.881,358.833 100.151 C 358.833 99.762,358.878 99.489,358.932 99.543 C 359.149 99.760,360.000 98.773,360.000 98.306 C 360.000 98.046,360.075 97.833,360.167 97.833 C 360.258 97.833,360.324 97.777,360.314 97.708 C 360.260 97.369,360.371 96.444,360.443 96.624 C 360.553 96.896,361.000 96.471,361.000 96.095 C 361.000 95.951,361.075 95.833,361.167 95.833 C 361.259 95.833,361.333 95.389,361.333 94.833 C 361.333 93.944,361.370 93.833,361.667 93.833 C 361.852 93.833,362.000 93.722,362.000 93.583 C 362.000 93.446,362.075 93.333,362.167 93.333 C 362.258 93.333,362.333 93.113,362.333 92.843 C 362.333 92.574,362.408 92.307,362.500 92.250 C 362.592 92.193,362.667 91.664,362.667 91.073 C 362.667 90.469,362.739 90.000,362.833 90.000 C 362.925 90.000,363.000 89.647,363.000 89.217 C 363.000 88.607,363.044 88.478,363.200 88.633 C 363.543 88.976,363.667 88.857,363.667 88.184 C 363.667 87.762,363.754 87.502,363.917 87.440 C 364.088 87.374,364.167 87.106,364.167 86.589 C 364.167 86.173,364.242 85.833,364.333 85.833 C 364.425 85.833,364.500 85.421,364.500 84.917 C 364.500 84.412,364.575 84.000,364.667 84.000 C 364.759 84.000,364.833 83.556,364.833 83.000 C 364.833 82.444,364.907 82.000,365.000 82.000 C 365.096 82.000,365.167 81.472,365.167 80.750 C 365.167 80.028,365.237 79.500,365.333 79.500 C 365.610 79.500,365.526 78.169,365.232 77.874 C 364.941 77.583,365.011 76.255,365.335 75.932 C 365.426 75.841,365.500 75.524,365.500 75.227 C 365.500 74.929,365.575 74.640,365.667 74.583 C 365.878 74.453,365.887 73.000,365.677 73.000 C 365.590 73.000,365.467 73.085,365.403 73.188 C 365.322 73.319,365.246 73.302,365.150 73.131 C 364.985 72.837,365.149 71.667,365.355 71.667 C 365.610 71.667,365.520 69.996,365.250 69.726 C 364.936 69.412,364.925 68.433,365.232 68.125 C 365.475 67.882,365.354 67.501,364.886 67.030 C 364.581 66.723,364.603 65.681,364.917 65.560 C 365.364 65.389,365.229 64.667,364.750 64.667 C 364.398 64.667,364.333 64.589,364.333 64.167 C 364.333 63.833,364.417 63.667,364.583 63.667 C 364.879 63.667,364.924 62.990,364.646 62.713 C 364.544 62.610,364.353 62.567,364.223 62.617 C 364.028 62.692,364.002 62.508,364.078 61.562 C 364.128 60.932,364.125 60.510,364.071 60.625 C 363.831 61.132,363.667 60.745,363.667 59.677 C 363.667 59.040,363.592 58.473,363.500 58.417 C 363.408 58.360,363.333 58.393,363.333 58.490 C 363.333 58.587,363.258 58.667,363.167 58.667 C 363.075 58.667,363.000 58.479,363.000 58.250 C 363.000 58.021,363.075 57.833,363.167 57.833 C 363.258 57.833,363.333 57.646,363.333 57.417 C 363.333 57.188,363.258 57.000,363.167 57.000 C 363.075 57.000,363.000 57.075,363.000 57.167 C 363.000 57.258,362.925 57.333,362.833 57.333 C 362.742 57.333,362.667 56.991,362.667 56.573 C 362.667 56.109,362.602 55.854,362.500 55.917 C 362.408 55.973,362.333 55.871,362.333 55.690 C 362.333 55.509,362.240 55.323,362.125 55.277 C 361.958 55.210,361.958 55.190,362.125 55.180 C 362.240 55.173,362.333 55.087,362.333 54.990 C 362.333 54.893,362.258 54.860,362.167 54.917 C 362.075 54.973,362.000 54.861,362.000 54.667 C 362.000 54.473,362.075 54.360,362.167 54.417 C 362.258 54.473,362.333 54.440,362.333 54.343 C 362.333 54.108,362.114 54.119,361.867 54.367 C 361.711 54.522,361.667 54.415,361.667 53.884 C 361.667 53.411,361.585 53.171,361.398 53.099 C 361.230 53.035,361.161 52.874,361.213 52.673 C 361.260 52.495,361.212 52.308,361.107 52.258 C 360.969 52.192,360.974 52.140,361.125 52.069 C 361.475 51.906,361.357 51.642,360.958 51.698 C 360.667 51.738,360.571 51.657,360.526 51.333 C 360.495 51.104,360.370 50.804,360.248 50.667 C 360.126 50.529,359.974 50.210,359.912 49.958 C 359.849 49.706,359.722 49.500,359.630 49.500 C 359.538 49.500,359.495 49.275,359.536 49.000 C 359.576 48.725,359.542 48.500,359.459 48.500 C 359.256 48.500,358.833 48.064,358.833 47.855 C 358.833 47.639,358.148 46.451,357.942 46.309 C 357.856 46.249,357.826 46.047,357.875 45.860 C 357.936 45.627,357.838 45.425,357.565 45.220 C 357.346 45.056,357.167 44.789,357.167 44.627 C 357.167 44.466,357.092 44.333,357.000 44.333 C 356.908 44.333,356.833 44.211,356.833 44.061 C 356.833 43.911,356.630 43.614,356.382 43.401 C 356.134 43.188,355.981 42.963,356.043 42.901 C 356.105 42.840,355.968 42.642,355.738 42.461 C 355.453 42.237,355.353 42.034,355.422 41.818 C 355.493 41.594,355.455 41.528,355.292 41.590 C 355.158 41.642,354.968 41.502,354.836 41.256 C 354.712 41.023,354.548 40.833,354.472 40.833 C 354.396 40.833,354.333 40.688,354.333 40.510 C 354.333 40.332,354.257 40.139,354.164 40.082 C 354.071 40.024,354.037 39.908,354.089 39.824 C 354.141 39.739,354.073 39.713,353.938 39.765 C 353.629 39.883,353.294 39.296,353.446 38.901 C 353.524 38.696,353.496 38.649,353.348 38.741 C 353.145 38.866,351.667 37.462,351.667 37.144 C 351.667 37.065,351.554 37.000,351.417 37.000 C 351.279 37.000,351.167 36.889,351.167 36.754 C 351.167 36.618,350.979 36.385,350.750 36.235 C 350.521 36.085,350.333 35.892,350.333 35.807 C 350.333 35.722,349.921 35.249,349.417 34.757 C 348.912 34.265,348.500 33.781,348.500 33.681 C 348.500 33.581,348.396 33.500,348.269 33.500 C 348.142 33.500,347.860 33.276,347.644 33.002 C 347.427 32.727,347.119 32.502,346.958 32.502 C 346.688 32.500,346.592 32.219,346.625 31.524 C 346.632 31.363,346.498 31.325,346.158 31.393 C 345.601 31.505,345.359 31.262,345.787 31.023 C 345.948 30.932,346.027 30.805,345.961 30.739 C 345.895 30.673,345.713 30.724,345.555 30.851 C 345.310 31.050,345.290 31.050,345.412 30.847 C 345.515 30.677,345.487 30.636,345.314 30.703 C 345.023 30.814,344.253 30.236,344.493 30.088 C 344.676 29.975,344.355 29.333,344.117 29.333 C 344.042 29.333,344.027 29.408,344.083 29.500 C 344.241 29.755,343.567 29.698,343.351 29.438 C 343.246 29.312,343.208 29.087,343.265 28.938 C 343.350 28.715,343.250 28.667,342.702 28.667 C 342.017 28.667,341.833 28.487,341.833 27.818 C 341.833 27.536,341.751 27.509,341.167 27.603 C 340.631 27.688,340.500 27.659,340.500 27.452 C 340.500 27.310,340.406 27.151,340.292 27.099 C 340.177 27.046,340.261 27.048,340.479 27.103 C 340.746 27.170,340.838 27.142,340.761 27.018 C 340.698 26.916,340.539 26.833,340.407 26.833 C 340.275 26.833,340.167 26.749,340.167 26.645 C 340.167 26.523,339.964 26.489,339.594 26.549 C 338.928 26.657,338.581 26.367,338.747 25.841 C 338.847 25.529,338.786 25.500,338.032 25.500 C 337.153 25.500,336.754 25.235,336.932 24.771 C 337.020 24.541,336.896 24.500,336.101 24.500 C 335.587 24.500,335.167 24.425,335.167 24.333 C 335.167 24.242,335.035 24.164,334.875 24.161 C 334.612 24.157,334.609 24.136,334.848 23.953 C 335.231 23.659,335.048 23.333,334.500 23.333 C 334.240 23.333,333.996 23.277,333.958 23.208 C 333.919 23.140,333.911 23.177,333.939 23.292 C 333.967 23.406,333.842 23.500,333.661 23.500 C 333.481 23.500,333.333 23.400,333.333 23.279 C 333.333 23.127,333.174 23.081,332.825 23.132 C 332.348 23.202,332.324 23.180,332.427 22.770 C 332.519 22.402,332.481 22.333,332.185 22.333 C 331.991 22.333,331.833 22.258,331.833 22.167 C 331.833 22.075,331.432 22.000,330.942 22.000 C 329.845 22.000,328.895 21.705,329.154 21.446 C 329.458 21.142,329.355 21.000,328.833 21.000 C 328.558 21.000,328.333 20.925,328.333 20.833 C 328.333 20.739,327.861 20.667,327.250 20.667 C 326.639 20.667,326.167 20.594,326.167 20.500 C 326.167 20.408,325.836 20.333,325.432 20.333 C 324.780 20.333,324.708 20.296,324.785 20.000 C 324.852 19.744,324.790 19.667,324.519 19.667 C 324.325 19.667,324.167 19.742,324.167 19.833 C 324.167 19.925,323.960 19.998,323.708 19.995 C 323.316 19.991,323.292 19.965,323.542 19.820 C 324.136 19.474,323.881 19.167,323.000 19.167 C 322.542 19.167,322.167 19.092,322.167 19.000 C 322.167 18.908,321.754 18.833,321.250 18.833 C 320.746 18.833,320.333 18.771,320.333 18.695 C 320.333 18.619,319.902 18.540,319.375 18.519 C 318.848 18.498,318.392 18.411,318.361 18.324 C 318.331 18.237,317.824 18.167,317.236 18.167 C 316.634 18.167,316.167 18.094,316.167 18.000 C 316.167 17.717,314.343 17.800,314.046 18.097 C 313.767 18.376,312.640 18.294,312.528 17.986 C 312.497 17.902,312.141 17.833,311.736 17.833 C 311.331 17.833,311.000 17.758,311.000 17.667 C 311.000 17.574,310.556 17.500,310.000 17.500 C 309.444 17.500,309.000 17.574,309.000 17.667 M316.267 19.160 C 320.646 19.800,325.548 20.863,326.961 21.480 C 327.578 21.749,328.421 22.055,328.833 22.159 C 329.848 22.416,330.533 22.680,330.833 22.930 C 330.971 23.044,331.505 23.279,332.021 23.453 C 332.536 23.626,333.143 23.888,333.368 24.036 C 333.594 24.184,334.268 24.527,334.867 24.799 C 335.465 25.070,336.003 25.371,336.063 25.467 C 336.123 25.563,336.452 25.733,336.794 25.843 C 337.136 25.954,337.547 26.181,337.707 26.347 C 337.867 26.514,338.317 26.804,338.707 26.992 C 339.418 27.335,340.365 27.957,340.833 28.387 C 340.971 28.514,341.308 28.759,341.583 28.932 C 342.051 29.226,343.176 30.049,343.690 30.473 C 350.473 36.063,355.151 41.825,358.845 49.138 C 359.478 50.391,359.997 51.477,359.998 51.551 C 360.000 51.668,360.345 52.503,360.837 53.583 C 361.052 54.056,361.832 56.276,362.096 57.167 C 362.858 59.743,363.381 61.703,363.519 62.500 C 363.862 64.477,364.006 65.466,364.128 66.667 C 364.198 67.354,364.310 68.004,364.378 68.110 C 364.795 68.764,364.645 76.764,364.154 80.121 C 363.536 84.337,362.471 89.369,361.908 90.721 C 361.673 91.287,361.306 92.313,361.094 93.000 C 360.881 93.688,360.547 94.520,360.352 94.849 C 360.157 95.179,359.885 95.825,359.749 96.285 C 359.612 96.745,359.349 97.314,359.163 97.550 C 358.978 97.785,358.713 98.298,358.575 98.689 C 358.437 99.080,358.217 99.519,358.085 99.664 C 357.954 99.810,357.691 100.279,357.502 100.708 C 357.312 101.136,357.076 101.536,356.976 101.598 C 356.877 101.659,356.655 102.028,356.483 102.416 C 356.311 102.805,356.052 103.221,355.906 103.342 C 355.761 103.462,355.495 103.829,355.314 104.156 C 354.945 104.826,354.299 105.791,353.967 106.169 C 353.845 106.308,353.560 106.682,353.333 107.000 C 353.107 107.318,352.825 107.692,352.708 107.831 C 352.591 107.970,351.990 108.683,351.372 109.416 C 349.019 112.210,344.745 116.167,342.042 118.056 C 341.560 118.392,340.792 118.929,340.335 119.250 C 339.878 119.571,339.464 119.833,339.417 119.833 C 339.369 119.833,338.971 120.077,338.532 120.375 C 337.449 121.110,337.238 121.235,336.083 121.827 C 335.533 122.109,334.971 122.412,334.833 122.500 C 334.440 122.752,331.073 124.333,330.930 124.333 C 330.859 124.333,330.527 124.452,330.192 124.597 C 329.857 124.742,329.337 124.967,329.036 125.097 C 328.735 125.227,328.409 125.333,328.311 125.333 C 328.214 125.333,327.897 125.434,327.609 125.557 C 327.320 125.681,326.633 125.914,326.083 126.075 C 325.533 126.237,324.896 126.447,324.667 126.542 C 324.438 126.638,323.950 126.775,323.583 126.848 C 323.217 126.920,322.429 127.099,321.833 127.245 C 320.195 127.648,317.987 128.002,314.917 128.353 C 314.000 128.457,311.525 128.531,309.417 128.517 C 303.219 128.474,302.727 128.440,299.500 127.828 C 298.996 127.732,298.208 127.591,297.750 127.514 C 296.881 127.368,296.041 127.101,295.333 126.744 C 295.104 126.628,294.017 126.289,292.917 125.991 C 291.817 125.693,290.554 125.268,290.112 125.048 C 289.669 124.828,288.813 124.495,288.210 124.309 C 287.607 124.122,287.012 123.870,286.890 123.747 C 286.767 123.624,286.236 123.363,285.708 123.166 C 285.181 122.969,284.637 122.710,284.500 122.591 C 284.362 122.472,283.875 122.190,283.417 121.966 C 282.155 121.347,280.970 120.651,280.446 120.220 C 280.186 120.007,279.904 119.833,279.819 119.833 C 279.657 119.833,278.298 118.907,277.000 117.911 C 276.587 117.595,276.063 117.208,275.833 117.051 C 273.975 115.778,269.310 111.245,267.223 108.687 C 264.441 105.277,261.875 101.293,260.177 97.750 C 259.333 95.990,259.196 95.690,258.600 94.292 C 257.976 92.829,257.855 92.498,257.336 90.833 C 257.036 89.871,256.695 88.783,256.578 88.417 C 256.461 88.050,256.275 87.300,256.164 86.750 C 256.054 86.200,255.890 85.525,255.800 85.250 C 255.277 83.650,254.717 78.525,254.635 74.583 C 254.505 68.332,255.157 62.795,256.420 59.417 C 256.729 58.592,257.103 57.429,257.252 56.833 C 257.616 55.380,257.951 54.399,258.236 53.952 C 258.365 53.749,258.588 53.184,258.730 52.697 C 258.873 52.209,259.208 51.421,259.476 50.947 C 259.744 50.472,260.017 49.896,260.083 49.667 C 260.148 49.438,260.411 48.913,260.667 48.500 C 260.922 48.087,261.185 47.563,261.251 47.333 C 261.317 47.104,261.509 46.766,261.678 46.581 C 261.846 46.396,262.104 45.984,262.251 45.664 C 262.398 45.345,262.816 44.633,263.180 44.083 C 263.544 43.533,263.971 42.868,264.129 42.606 C 264.287 42.343,264.642 41.839,264.917 41.485 C 265.192 41.131,265.642 40.536,265.917 40.163 C 266.192 39.789,266.604 39.269,266.833 39.006 C 267.063 38.743,267.662 38.055,268.167 37.476 C 269.368 36.099,272.162 33.302,273.388 32.250 C 273.923 31.792,274.598 31.202,274.888 30.941 C 275.179 30.679,275.604 30.342,275.833 30.193 C 276.063 30.044,276.925 29.427,277.750 28.823 C 278.575 28.219,279.362 27.674,279.500 27.611 C 279.637 27.549,280.200 27.202,280.750 26.841 C 281.300 26.480,282.444 25.828,283.292 25.391 C 284.140 24.955,284.833 24.539,284.833 24.466 C 284.833 24.393,284.937 24.333,285.063 24.333 C 285.267 24.333,286.667 23.723,287.333 23.343 C 287.471 23.265,287.921 23.074,288.333 22.918 C 288.746 22.763,289.308 22.537,289.583 22.416 C 289.858 22.295,290.233 22.159,290.417 22.112 C 290.600 22.066,291.162 21.870,291.667 21.676 C 292.171 21.482,292.846 21.254,293.167 21.169 C 293.487 21.084,294.162 20.891,294.667 20.740 C 296.887 20.078,297.385 19.963,299.667 19.585 C 299.987 19.532,300.666 19.409,301.175 19.312 C 301.684 19.215,302.434 19.107,302.842 19.072 C 309.248 18.523,312.036 18.541,316.267 19.160 M359.918 49.164 C 359.846 49.281,359.888 49.431,360.015 49.510 C 360.319 49.697,360.398 49.586,360.205 49.241 C 360.086 49.029,360.014 49.009,359.918 49.164 " stroke="none" fill="#d4c59a" fill-rule="evenodd"></path></g></svg>