<?xml version="1.0" encoding="UTF-8" standalone="no"?>
<svg
   xmlns:dc="http://purl.org/dc/elements/1.1/"
   xmlns:cc="http://creativecommons.org/ns#"
   xmlns:rdf="http://www.w3.org/1999/02/22-rdf-syntax-ns#"
   xmlns:svg="http://www.w3.org/2000/svg"
   xmlns="http://www.w3.org/2000/svg"
   xmlns:sodipodi="http://sodipodi.sourceforge.net/DTD/sodipodi-0.dtd"
   xmlns:inkscape="http://www.inkscape.org/namespaces/inkscape"
   sodipodi:docname="nbp-logo-2021_v2.svg"
   inkscape:version="1.0 (4035a4fb49, 2020-05-01)"
   id="svg8"
   version="1.1"
   viewBox="0 0 87.133003 29.993"
   height="29.993mm"
   width="87.133003mm">
  <defs
     id="defs2">
    <style
       id="style847">.cls-1{fill:#1d2d4f;}.cls-2{fill:#c6b27b;}</style>
  </defs>
  <sodipodi:namedview
     inkscape:window-maximized="1"
     inkscape:window-y="-8"
     inkscape:window-x="-8"
     inkscape:window-height="1017"
     inkscape:window-width="1920"
     inkscape:guide-bbox="true"
     showguides="true"
     showgrid="false"
     inkscape:document-rotation="0"
     inkscape:current-layer="layer1"
     inkscape:document-units="mm"
     inkscape:cy="124.20658"
     inkscape:cx="105.26199"
     inkscape:zoom="3.6063568"
     inkscape:pageshadow="2"
     inkscape:pageopacity="0.0"
     borderopacity="1.0"
     bordercolor="#666666"
     pagecolor="#ffffff"
     id="base" />
  <metadata
     id="metadata5">
    <rdf:RDF>
      <cc:Work
         rdf:about="">
        <dc:format>image/svg+xml</dc:format>
        <dc:type
           rdf:resource="http://purl.org/dc/dcmitype/StillImage" />
        <dc:title></dc:title>
      </cc:Work>
    </rdf:RDF>
  </metadata>
  <g
     id="layer1"
     inkscape:groupmode="layer"
     inkscape:label="Warstwa 1">
    <g
       transform="scale(0.26458333)"
       id="g935">
      <path
         class="cls-1"
         d="M 113.36,56.68 A 56.68,56.68 0 1 1 56.68,0 56.68,56.68 0 0 1 113.36,56.68 Z"
         id="path851" />
      <path
         class="cls-2"
         d="m 104.24,55 v 3.33 h -0.08 a 47.78,47.78 0 0 1 -1.18,9 h 0.08 l -0.87,3.22 h -0.07 A 47.28,47.28 0 0 1 98.65,79 h 0.06 L 97,81.89 h -0.06 a 48,48 0 0 1 -5.55,7.21 l 0.06,0.05 -2.35,2.36 -0.06,-0.06 A 48,48 0 0 1 81.87,97 v 0.06 L 79,98.69 v 0 a 46.58,46.58 0 0 1 -8.4,3.48 v 0.06 l -3.22,0.86 v -0.06 a 47.67,47.67 0 0 1 -9,1.18 v 0.07 H 55 v -0.07 A 47.67,47.67 0 0 1 46,103 v 0.06 l -3.22,-0.86 v -0.06 a 47,47 0 0 1 -8.41,-3.48 v 0 L 31.45,97 v -0.06 a 48,48 0 0 1 -7.21,-5.55 l -0.06,0.06 -2.35,-2.36 0.06,-0.05 A 47.37,47.37 0 0 1 16.35,81.82 H 16.28 L 14.65,79 h 0.06 a 47.28,47.28 0 0 1 -3.47,-8.4 h -0.07 l -0.86,-3.22 h 0.07 a 47.78,47.78 0 0 1 -1.18,-9 H 9.12 V 55 H 9.2 a 47.67,47.67 0 0 1 1.18,-9 h -0.07 l 0.86,-3.22 h 0.08 a 46.58,46.58 0 0 1 3.48,-8.4 h -0.08 l 1.67,-2.89 h 0.08 a 46.8,46.8 0 0 1 5.54,-7.21 l -0.07,-0.07 2.35,-2.36 0.07,0.07 a 47.88,47.88 0 0 1 7.21,-5.53 l -0.05,-0.08 2.89,-1.67 v 0.08 a 46.88,46.88 0 0 1 8.4,-3.48 V 11.16 L 46,10.29 v 0.09 A 46.87,46.87 0 0 1 55,9.2 V 9.1 h 3.34 v 0.1 a 46.87,46.87 0 0 1 9,1.18 v -0.09 l 3.22,0.87 v 0.08 A 46.88,46.88 0 0 1 79,14.72 v -0.08 l 2.89,1.67 v 0.08 a 47.88,47.88 0 0 1 7.21,5.53 l 0.07,-0.07 2.35,2.36 -0.07,0.07 A 46.8,46.8 0 0 1 97,31.49 h 0.08 l 1.67,2.89 h -0.08 a 46.58,46.58 0 0 1 3.48,8.4 h 0.08 L 103.1,46 H 103 a 47.67,47.67 0 0 1 1.18,9 z"
         id="path853" />
      <path
         class="cls-1"
         d="m 97.58,58.33 h 6.58 a 47.78,47.78 0 0 1 -1.18,9 l -6.36,-1.71 -0.86,3.22 6.36,1.71 A 47.28,47.28 0 0 1 98.65,79 l -5.72,-3.29 -1.66,2.88 5.73,3.27 a 48,48 0 0 1 -5.55,7.21 l -4.65,-4.66 -2.36,2.36 4.66,4.65 A 48,48 0 0 1 81.87,97 l -3.3,-5.72 -2.88,1.67 3.31,5.69 a 46.58,46.58 0 0 1 -8.4,3.48 l -1.71,-6.37 -3.22,0.86 1.7,6.37 a 47.67,47.67 0 0 1 -9,1.18 V 97.57 H 55 v 6.59 A 47.67,47.67 0 0 1 46,103 l 1.7,-6.37 -3.22,-0.86 -1.7,6.37 a 47,47 0 0 1 -8.41,-3.48 l 3.3,-5.72 -2.88,-1.67 -3.3,5.73 a 48,48 0 0 1 -7.21,-5.55 l 4.65,-4.65 -2.35,-2.36 -4.65,4.66 a 47.37,47.37 0 0 1 -5.54,-7.22 l 5.7,-3.29 -1.66,-2.88 -5.72,3.29 a 47.28,47.28 0 0 1 -3.47,-8.4 l 6.36,-1.71 -0.86,-3.22 -6.36,1.71 a 47.78,47.78 0 0 1 -1.18,-9 h 6.58 V 55 H 9.2 a 47.67,47.67 0 0 1 1.18,-9 l 6.36,1.7 0.86,-3.22 -6.35,-1.7 a 46.58,46.58 0 0 1 3.48,-8.4 l 5.7,3.29 1.66,-2.89 -5.69,-3.29 a 46.8,46.8 0 0 1 5.54,-7.21 l 4.64,4.64 2.35,-2.35 -4.64,-4.65 a 47.88,47.88 0 0 1 7.21,-5.53 l 3.29,5.69 2.88,-1.67 -3.29,-5.69 a 46.88,46.88 0 0 1 8.4,-3.48 l 1.7,6.35 L 47.7,16.73 46,10.38 A 46.87,46.87 0 0 1 55,9.2 v 6.57 h 3.34 V 9.2 a 46.87,46.87 0 0 1 9,1.18 l -1.7,6.35 3.22,0.86 1.7,-6.35 A 46.88,46.88 0 0 1 79,14.72 l -3.29,5.69 2.88,1.67 3.29,-5.69 a 47.88,47.88 0 0 1 7.21,5.53 l -4.65,4.65 2.36,2.35 4.64,-4.64 A 46.8,46.8 0 0 1 97,31.49 l -5.69,3.28 1.66,2.89 5.7,-3.29 a 46.58,46.58 0 0 1 3.48,8.4 l -6.35,1.7 0.86,3.22 L 103,46 a 47.67,47.67 0 0 1 1.18,9 h -6.6 z"
         id="path855" />
      <path
         class="cls-2"
         d="m 56.68,4.73 a 52,52 0 1 0 52,52 52,52 0 0 0 -52,-52 z m 46.32,62.62 -6.36,-1.71 -0.86,3.22 6.36,1.71 A 47.28,47.28 0 0 1 98.65,79 l -5.72,-3.29 -1.66,2.88 5.73,3.27 a 48,48 0 0 1 -5.55,7.21 l -4.65,-4.66 -2.36,2.36 4.66,4.65 A 48,48 0 0 1 81.87,97 l -3.3,-5.72 -2.88,1.67 3.31,5.69 a 46.58,46.58 0 0 1 -8.4,3.48 l -1.71,-6.37 -3.22,0.86 1.7,6.37 a 47.67,47.67 0 0 1 -9,1.18 V 97.57 H 55 v 6.59 A 47.67,47.67 0 0 1 46,103 l 1.7,-6.37 -3.22,-0.86 -1.7,6.37 a 47,47 0 0 1 -8.41,-3.48 l 3.3,-5.72 -2.88,-1.67 -3.3,5.73 a 48,48 0 0 1 -7.21,-5.55 l 4.65,-4.65 -2.35,-2.36 -4.65,4.66 a 47.37,47.37 0 0 1 -5.54,-7.22 l 5.7,-3.29 -1.66,-2.88 -5.72,3.29 a 47.28,47.28 0 0 1 -3.47,-8.4 l 6.36,-1.71 -0.86,-3.22 -6.36,1.71 a 47.78,47.78 0 0 1 -1.18,-9 h 6.58 V 55 H 9.2 a 47.67,47.67 0 0 1 1.18,-9 l 6.36,1.7 0.86,-3.22 -6.35,-1.7 a 46.58,46.58 0 0 1 3.48,-8.4 l 5.7,3.29 1.66,-2.89 -5.69,-3.29 a 46.8,46.8 0 0 1 5.54,-7.21 l 4.64,4.64 2.35,-2.35 -4.64,-4.65 a 47.88,47.88 0 0 1 7.21,-5.53 l 3.29,5.69 2.88,-1.67 -3.29,-5.69 a 46.88,46.88 0 0 1 8.4,-3.48 l 1.7,6.35 L 47.7,16.73 46,10.38 A 46.87,46.87 0 0 1 55,9.2 v 6.57 h 3.34 V 9.2 a 46.87,46.87 0 0 1 9,1.18 l -1.7,6.35 3.22,0.86 1.7,-6.35 A 46.88,46.88 0 0 1 79,14.72 l -3.29,5.69 2.88,1.67 3.29,-5.69 a 47.88,47.88 0 0 1 7.21,5.53 l -4.65,4.65 2.36,2.35 4.64,-4.64 A 46.8,46.8 0 0 1 97,31.49 l -5.69,3.28 1.66,2.89 5.7,-3.29 a 46.58,46.58 0 0 1 3.48,8.4 l -6.35,1.7 0.86,3.22 L 103,46 a 47.67,47.67 0 0 1 1.18,9 h -6.6 v 3.33 h 6.58 A 47.78,47.78 0 0 1 103,67.35 Z"
         id="path857" />
      <path
         class="cls-2"
         d="M 56.68,20.17 A 36.51,36.51 0 1 0 93.19,56.68 36.52,36.52 0 0 0 56.68,20.17 Z m 0.06,71.38 A 34.88,34.88 0 1 1 91.56,56.61 34.89,34.89 0 0 1 56.74,91.55 Z"
         id="path859" />
      <polygon
         class="cls-2"
         points="43.78,66.83 34.16,53.73 34.16,66.83 30.2,66.83 30.2,49.36 27.87,46.73 27.87,46.63 33.74,46.63 43.53,59.77 43.53,46.63 47.49,46.63 47.49,66.83 "
         id="polygon861" />
      <path
         class="cls-2"
         d="m 64.91,56 c -0.15,-0.07 -0.38,-0.15 -0.38,-0.15 a 1.34,1.34 0 0 0 0.35,-0.15 4.28,4.28 0 0 0 2,-4 A 4.07,4.07 0 0 0 65.3,48 c -1,-0.83 -2.84,-1.36 -5.38,-1.36 h -9.53 v 0.19 l 2.69,2.57 v 17.44 h 6.8 c 2.86,0 4.71,-0.54 6.09,-1.51 a 5.29,5.29 0 0 0 2,-4.56 A 4.74,4.74 0 0 0 64.91,56 Z m -7.58,-6.08 h 2.34 c 2.32,0.16 2.86,1.27 2.86,2.47 0,1.6 -1,2.54 -3,2.54 h -2.2 z m 2.53,13.7 H 57.33 V 57.78 H 60 c 2.38,0 3.42,1 3.42,3 0,2 -1.21,2.79 -3.56,2.79 z"
         id="path863" />
      <path
         class="cls-2"
         d="m 85.18,48.82 c -0.93,-1 -2.17,-2.19 -6.66,-2.19 h -9.09 v 0.19 l 2.71,2.57 v 17.45 h 4.24 v -7.56 h 0.25 a 22.55,22.55 0 0 0 2.56,0.17 c 1.71,0 4,-0.28 5.5,-1.61 a 5.74,5.74 0 0 0 1.86,-4.78 6.1,6.1 0 0 0 -1.37,-4.24 z m -6.78,7.49 a 7.86,7.86 0 0 1 -1.87,-0.16 h -0.15 v -6.26 h 2.08 c 1.37,0 3.66,0.4 3.66,3.16 0,2 -1.21,3.26 -3.72,3.26 z"
         id="path865" />
      <path
         class="cls-1"
         d="M 145.64,50.06 134.33,38.65 h -0.06 v 10.81 c 0,1.4 0.56,2.24 2.52,2.3 v 0.69 H 131 v -0.73 c 1.34,-0.06 1.81,-0.9 1.81,-2.3 V 35.58 c 0,-1.79 -0.65,-2.24 -2.37,-2.3 v -0.69 h 3.73 a 15.8,15.8 0 0 0 2.11,2.39 l 11.43,11.4 h 0.06 v -10.8 c 0,-1.4 -0.54,-2.24 -2.52,-2.3 v -0.69 h 5.8 v 0.69 c -1.33,0.06 -1.8,0.9 -1.8,2.3 v 13.88 c 0,1.1 0,2.09 0.06,3.22 h -1.25 a 25.61,25.61 0 0 0 -2.42,-2.62 z"
         id="path867" />
      <path
         class="cls-1"
         d="m 172,51.72 v 0.69 h -7.79 v -0.69 c 1.75,-0.09 1.93,-0.75 1.37,-2.3 L 164,45.07 a 1.64,1.64 0 0 1 -1.07,0.24 h -3.55 c -0.83,0 -1.19,0.09 -1.51,0.93 l -1.22,3.22 c -0.5,1.4 0,2.21 2,2.3 v 0.69 H 153 v -0.73 c 1,-0.09 1.63,-0.9 2.16,-2.3 l 5.51,-14.51 a 26,26 0 0 0 1,-3 h 1.59 a 26,26 0 0 0 1,3 l 5.33,14.51 c 0.87,2.1 1.26,2.3 2.41,2.3 z m -8.59,-8.3 -2.22,-6 h -0.06 l -2.51,6.75 a 1.58,1.58 0 0 1 0.82,-0.12 h 3.44 c 0.56,0.07 0.77,-0.05 0.56,-0.59 z"
         id="path869" />
      <path
         class="cls-1"
         d="m 186.43,49.94 -5,-6.93 c -0.44,-0.63 -0.68,-0.74 -1.1,-0.77 v -1 c 3.65,0 5.13,-1.73 5.13,-4 0,-2.63 -1.87,-3.61 -3.79,-3.61 -1.37,0 -1.93,0.27 -1.93,1.94 v 13.89 c 0,2 0.47,2.24 2.37,2.3 v 0.69 h -8 v -0.73 c 1.34,-0.06 1.81,-0.3 1.81,-2.3 V 35.58 c 0,-2 -0.47,-2.24 -2.37,-2.3 v -0.69 h 2.37 c 2.87,0 4.89,-0.15 6.43,-0.15 5.33,0 7.25,1.82 7.25,4.36 0,2.54 -1.92,4.3 -4.47,4.81 v 0.11 l 5.39,7.7 c 1.36,1.91 2.1,2.39 3.11,2.39 v 0.69 a 8.19,8.19 0 0 1 -2.4,0.32 5.26,5.26 0 0 1 -4.8,-2.88 z"
         id="path871" />
      <path
         class="cls-1"
         d="m 214.15,42.47 c 0,6.27 -4.48,10.42 -10,10.42 -5.52,0 -10,-4 -10,-10.33 0,-6.33 4.47,-10.42 10,-10.42 5.53,0 10,4.03 10,10.33 z m -4.12,0.84 c 0,-6.36 -3,-9.91 -6.4,-9.91 -3.25,0 -5.36,3.16 -5.36,8.33 0,6.36 3,9.91 6.4,9.91 3.26,0 5.33,-3.16 5.33,-8.33 z"
         id="path873" />
      <path
         class="cls-1"
         d="m 217.7,51.72 c 1.3,-0.06 1.81,-0.3 1.81,-2.3 V 35.58 c 0,-2 -0.48,-2.24 -2.37,-2.3 v -0.69 h 2.37 c 2.37,0 4.56,-0.15 6.57,-0.15 6.61,0 11.2,2.84 11.2,9.47 0,7 -5.6,10.54 -11,10.54 h -8.58 z m 15.46,-9.4 c 0,-6.24 -3.14,-8.72 -7.4,-8.72 -1.84,0 -2.4,0.27 -2.4,1.94 v 13.92 c 0,1.52 0.47,1.79 2.16,1.79 5.12,0 7.64,-3.67 7.64,-8.89 z"
         id="path875" />
      <path
         class="cls-1"
         d="m 260.76,42.47 c 0,6.27 -4.47,10.42 -10,10.42 -5.53,0 -10,-4 -10,-10.33 0,-6.33 4.48,-10.42 10,-10.42 5.52,0 10,4.03 10,10.33 z m -4.11,0.84 c 0,-6.36 -3,-9.91 -6.4,-9.91 -3.26,0 -5.36,3.16 -5.36,8.33 0,6.36 3,9.91 6.4,9.91 3.25,0 5.36,-3.16 5.36,-8.33 z"
         id="path877" />
      <path
         class="cls-1"
         d="m 268.79,50.09 -3.91,-14.51 c -0.56,-2.06 -0.89,-2.21 -1.92,-2.3 v -0.69 h 7.78 v 0.69 c -1.89,0.09 -2.16,0.74 -1.74,2.3 l 2.87,10.57 h 0.06 l 5.42,-13.8 h 1.86 c 0.36,1.11 0.69,2.12 1.13,3.23 l 4.35,10.57 h 0.12 l 3,-10.57 c 0.42,-1.4 -0.26,-2.21 -2.16,-2.3 v -0.69 h 5.75 v 0.69 c -0.92,0.09 -1.6,0.9 -2,2.3 l -4.08,14.51 c -0.27,1 -0.39,1.55 -0.57,2.59 h -1.86 a 13,13 0 0 0 -0.83,-2.59 L 277,37.72 v 0 l -5,12.37 a 14.21,14.21 0 0 0 -0.8,2.59 h -1.87 c -0.16,-1.04 -0.27,-1.55 -0.54,-2.59 z"
         id="path879" />
      <path
         class="cls-1"
         d="m 309.07,32.59 v 0.69 c -0.89,0.09 -1.57,0.9 -2.37,2.3 l -3.7,6.63 a 3.45,3.45 0 0 0 -0.57,2 v 5.22 c 0,2 0.48,2.24 2.37,2.3 v 0.69 h -8 v -0.7 c 1.33,-0.06 1.8,-0.3 1.8,-2.3 v -5.18 a 3.32,3.32 0 0 0 -0.5,-2 l -3.7,-6.63 c -1.13,-2 -1.51,-2.21 -2.67,-2.3 v -0.69 h 7.91 v 0.69 c -1.75,0.09 -1.78,0.78 -0.92,2.3 l 3.11,5.73 h 0.06 l 3.2,-5.73 c 0.8,-1.44 0.24,-2.21 -1.54,-2.3 v -0.69 z"
         id="path881" />
      <path
         class="cls-1"
         d="m 131.01,80.490001 c 1.33,-0.06 1.8,-0.3 1.8,-2.3 v -13.84 c 0,-2 -0.47,-2.24 -2.37,-2.3 v -0.69 h 2.37 c 3.17,0 4.53,-0.15 7.23,-0.15 4.5,0 6.51,1.65 6.51,4.06 0,2.41 -1.62,3.8 -4.08,4.48 v 0.06 c 3.64,0.3 5.95,2.09 5.95,5.14 0,3.31 -2.49,6.27 -8.17,6.27 h -9.24 z m 7.19,-10.81 c 2.34,-0.21 4.39,-1.37 4.39,-4.12 0,-2.54 -1.93,-3.19 -3.68,-3.19 -1.75,0 -2.25,0.27 -2.25,1.94 v 5.82 a 2.68,2.68 0 0 1 1.54,-0.41 z m 6.25,5.35 c 0,-3 -2.34,-4.21 -5.21,-4.21 -1.75,0 -2.58,0.47 -2.58,1.76 v 5.61 c 0,1.52 0.48,1.79 2.46,1.79 3.91,0.04 5.33,-2.49 5.33,-4.91 z"
         id="path883" />
      <path
         class="cls-1"
         d="m 168.26,80.490001 v 0.69 h -7.78 v -0.69 c 1.74,-0.09 1.92,-0.75 1.36,-2.3 l -1.57,-4.39 a 1.63,1.63 0 0 1 -1.07,0.24 h -3.55 c -0.83,0 -1.19,0.09 -1.51,0.93 l -1.22,3.22 c -0.5,1.4 0,2.21 2,2.3 v 0.69 h -5.69 v -0.69 c 1,-0.09 1.63,-0.9 2.16,-2.3 l 5.51,-14.51 a 24.27,24.27 0 0 0 1,-3 h 1.6 a 24.2,24.2 0 0 0 1,3 l 5.34,14.51 c 0.85,2.1 1.24,2.3 2.42,2.3 z m -8.58,-8.3 -2.22,-6 h -0.06 l -2.52,6.75 a 1.62,1.62 0 0 1 0.83,-0.12 h 3.43 c 0.54,0.07 0.74,-0.05 0.54,-0.59 z"
         id="path885" />
      <path
         class="cls-1"
         d="m 185.06,78.830001 -11.32,-11.41 h -0.05 v 10.81 c 0,1.4 0.56,2.24 2.51,2.3 v 0.69 h -5.77 v -0.73 c 1.33,-0.06 1.8,-0.9 1.8,-2.3 v -13.84 c 0,-1.79 -0.65,-2.24 -2.37,-2.3 v -0.69 h 3.74 a 15.18,15.18 0 0 0 2.1,2.39 l 11.43,11.4 h 0.06 v -10.8 c 0,-1.4 -0.53,-2.24 -2.52,-2.3 v -0.69 h 5.81 v 0.69 c -1.34,0.06 -1.81,0.9 -1.81,2.3 v 13.88 c 0,1.1 0,2.09 0.06,3.22 h -1.24 a 28.2,28.2 0 0 0 -2.43,-2.62 z"
         id="path887" />
      <path
         class="cls-1"
         d="m 206.23,78.710001 -5,-7.11 c -0.47,-0.62 -0.68,-0.77 -1,-0.77 -0.32,0 -0.65,0.23 -0.65,0.95 v 6.45 c 0,2 0.47,2.24 2.37,2.3 v 0.69 h -8 v -0.73 c 1.34,-0.06 1.81,-0.3 1.81,-2.3 v -13.84 c 0,-2 -0.47,-2.24 -2.37,-2.3 v -0.69 h 8 v 0.69 c -1.34,0.06 -1.81,0.3 -1.81,2.3 v 5.31 h 0.06 l 6.51,-5.4 c 0.78,-0.63 1.07,-1 1.07,-1.4 0,-0.4 -0.44,-0.75 -1.66,-0.81 v -0.69 h 6.52 v 0.69 a 6.11,6.11 0 0 0 -3.27,1.73 l -4.83,4 c -0.32,0.27 -0.32,0.54 0,1 l 6.49,9.37 c 1.33,1.91 2.1,2.39 3.08,2.39 v 0.69 a 8.12,8.12 0 0 1 -2.43,0.32 c -2.61,-0.01 -3.79,-1.29 -4.89,-2.84 z"
         id="path889" />
      <path
         class="cls-1"
         d="m 223.44,80.490001 c 1.33,-0.06 1.81,-0.3 1.81,-2.3 v -13.84 c 0,-2 -0.48,-2.24 -2.37,-2.3 v -0.69 h 2.37 c 2.78,0 5.09,-0.15 6.27,-0.15 5.25,0 7.56,2.06 7.56,4.84 0,3 -2.61,6.12 -9.39,5.52 v -1 c 3.82,0.24 5.27,-2 5.27,-4.48 0,-2.48 -1.69,-3.7 -4,-3.7 -1.33,0 -1.89,0.3 -1.89,1.94 v 13.9 c 0,2 0.47,2.24 2.66,2.3 v 0.69 h -8.32 z"
         id="path891" />
      <path
         class="cls-1"
         d="m 262,71.240001 c 0,6.27 -4.47,10.42 -10,10.42 -5.53,0 -10,-4 -10,-10.33 0,-6.33 4.47,-10.42 10,-10.42 5.53,0 10,4.03 10,10.33 z m -4.12,0.84 c 0,-6.36 -3,-9.91 -6.39,-9.91 -3.26,0 -5.36,3.16 -5.36,8.33 0,6.36 3,9.91 6.39,9.91 3.29,0 5.36,-3.16 5.36,-8.33 z"
         id="path893" />
      <path
         class="cls-1"
         d="m 265.56,80.490001 c 1.3,-0.06 1.8,-0.3 1.8,-2.3 v -13.84 c 0,-2 -0.47,-2.24 -2.37,-2.3 v -0.69 h 8 v 0.69 c -1.33,0.06 -1.81,0.3 -1.81,2.3 v 13.88 c 0,1.52 0.48,1.79 2.25,1.79 h 2.25 c 2.76,0 3.59,-1.64 3.76,-3.61 h 0.69 l -0.24,4.81 h -14.33 z"
         id="path895" />
      <path
         class="cls-1"
         d="m 282.56,77.750001 a 5,5 0 0 1 0.82,-2.74 h 0.69 c 0.11,2.95 1.86,5.37 4.82,5.37 a 3.26,3.26 0 0 0 3.59,-3.37 c 0,-5 -9.39,-4.24 -9.39,-10.51 0,-3.44 2.81,-5.59 7.11,-5.59 a 14.35,14.35 0 0 1 4.88,0.81 v 4.57 h -0.68 c -0.65,-3 -2.19,-4.09 -4.41,-4.09 -2.52,0 -3.44,1.49 -3.44,2.8 0,4.3 9.39,3.83 9.39,10.6 0,3.88 -3.08,6.06 -7.28,6.06 -2.73,0 -6.1,-0.95 -6.1,-3.91 z"
         id="path897" />
      <path
         class="cls-1"
         d="m 311.81,78.710001 -5,-7.11 c -0.47,-0.62 -0.68,-0.77 -1,-0.77 -0.32,0 -0.65,0.23 -0.65,0.95 v 6.45 c 0,2 0.48,2.24 2.37,2.3 v 0.69 h -8 v -0.73 c 1.33,-0.06 1.8,-0.3 1.8,-2.3 v -13.84 c 0,-2 -0.47,-2.24 -2.37,-2.3 v -0.69 h 8 v 0.69 c -1.33,0.06 -1.81,0.3 -1.81,2.3 v 5.31 h 0.06 l 6.52,-5.4 c 0.77,-0.63 1.06,-1 1.06,-1.4 0,-0.4 -0.44,-0.75 -1.66,-0.81 v -0.69 h 6.52 v 0.69 a 6.18,6.18 0 0 0 -3.23,1.73 l -4.83,4 c -0.32,0.27 -0.32,0.54 0,1 l 6.49,9.37 c 1.33,1.91 2.1,2.39 3.08,2.39 v 0.69 a 8.12,8.12 0 0 1 -2.43,0.32 c -2.6,-0.01 -3.79,-1.29 -4.92,-2.84 z"
         id="path899" />
      <path
         class="cls-1"
         d="m 321.32,80.490001 c 1.34,-0.06 1.81,-0.3 1.81,-2.3 v -13.84 c 0,-2 -0.47,-2.24 -2.37,-2.3 v -0.69 h 8 v 0.69 c -1.34,0.06 -1.81,0.3 -1.81,2.3 v 13.88 c 0,2 0.47,2.24 2.37,2.3 v 0.69 h -8 z"
         id="path901" />
    </g>
  </g>
</svg>
